<?xml version="1.0" encoding="UTF-8"?>
<svg id="_レイヤー_2" data-name="レイヤー 2" xmlns="http://www.w3.org/2000/svg" viewBox="0 0 194.45 36.33">
  <defs>
    <style>
      .cls-1 {
        fill: #0062b1;
      }
    </style>
  </defs>
  <g id="_施設名とテキスト" data-name="施設名とテキスト">
    <g>
      <path class="cls-1" d="m15.57,36.33l-1.82-8.1H5.55l-1.76,8.1H0L7.89,0h3.53l7.94,36.33h-3.79ZM9.55,7.78l-3.48,17.12h7.11l-3.63-17.12Z"/>
      <path class="cls-1" d="m35.08,0c3.94,0,9.6.57,9.6,8.61v2.85c0,4-1.66,6.69-4.98,7.73l5.81,17.12h-4.05l-5.35-16.35h-4.41v16.35h-3.89V0h7.26Zm-3.37,16.61h3.84c2.85,0,5.24-1.66,5.24-4.88v-3.42c0-4.51-3.48-4.93-5.45-4.93h-3.63v13.23Z"/>
      <path class="cls-1" d="m54.08,0h14.58v3.58h-10.69v12.66h9.45v3.37h-9.45v13.13h10.85v3.58h-14.74V0Z"/>
      <path class="cls-1" d="m90.87,36.33l-1.82-8.1h-8.2l-1.76,8.1h-3.79L83.19,0h3.53l7.94,36.33h-3.79Zm-6.02-28.54l-3.48,17.12h7.11l-3.63-17.12Z"/>
      <path class="cls-1" d="m118.32,0h3.94l7.63,22.73h.16l7.32-22.73h3.94v36.33h-3.89V11.73h-.16l-6.49,18.47h-1.92l-6.49-18.47h-.16v24.6h-3.89V0Z"/>
      <path class="cls-1" d="m165.34,36.33l-1.82-8.1h-8.2l-1.76,8.1h-3.79L157.66,0h3.53l7.94,36.33h-3.79Zm-6.02-28.54l-3.48,17.12h7.11l-3.63-17.12Z"/>
      <path class="cls-1" d="m177.59,0h7.89c6.54,0,8.98,4.25,8.98,9.24v3.22c0,4.67-3.01,8.87-8.2,8.87h-4.77v15h-3.89V0Zm3.89,18.01h3.68c3.58,0,5.4-2.39,5.4-4.93v-4.31c0-3.32-1.71-5.4-5.35-5.4h-3.74v14.63Z"/>
    </g>
  </g>
</svg>