<?xml version="1.0" encoding="utf-8"?>
<!-- Generator: Adobe Illustrator 27.3.1, SVG Export Plug-In . SVG Version: 6.00 Build 0)  -->
<svg version="1.1" id="_レイヤー_2" xmlns="http://www.w3.org/2000/svg" xmlns:xlink="http://www.w3.org/1999/xlink" x="0px"
	 y="0px" viewBox="0 0 1200 276" style="enable-background:new 0 0 1200 276;" xml:space="preserve">
<style type="text/css">
	.st0{fill:none;}
	.st1{fill:#D6F3FF;}
</style>
<g id="_レイヤー_2-2">
	<g>
		<g>
			<rect x="100.2" class="st0" width="199.8" height="275"/>
			<polygon class="st1" points="110,209.2 110,184.2 181.1,196.7 			"/>
			<polygon class="st1" points="215.3,70.8 215.3,45.7 286.4,58.2 			"/>
			<rect x="300.2" class="st0" width="199.8" height="275"/>
			<polygon class="st1" points="310,209.2 310,184.2 381.1,196.7 			"/>
			<polygon class="st1" points="415.3,70.8 415.3,45.7 486.4,58.2 			"/>
			<rect x="500.2" class="st0" width="199.8" height="275"/>
			<polygon class="st1" points="510,209.2 510,184.2 581.1,196.7 			"/>
			<polygon class="st1" points="615.3,70.8 615.3,45.7 686.4,58.2 			"/>
			<rect x="700.2" class="st0" width="199.8" height="275"/>
			<polygon class="st1" points="710,209.2 710,184.2 781.1,196.7 			"/>
			<polygon class="st1" points="815.3,70.8 815.3,45.7 886.4,58.2 			"/>
			<rect x="900.2" class="st0" width="199.8" height="275"/>
			<polygon class="st1" points="910,209.2 910,184.2 981.1,196.7 			"/>
			<polygon class="st1" points="1015.3,70.8 1015.3,45.7 1086.4,58.2 			"/>
		</g>
		<rect y="1" class="st0" width="1200" height="275"/>
	</g>
</g>
</svg>
