<?xml version="1.0" encoding="UTF-8"?>
<svg id="_レイヤー_2" data-name="レイヤー 2" xmlns="http://www.w3.org/2000/svg" viewBox="0 0 182.79 169.47">
  <defs>
    <style>
      .cls-1 {
        fill: #efed72;
      }

      .cls-2 {
        fill: #00b2eb;
        stroke: #36bcee;
        stroke-miterlimit: 10;
        stroke-width: .26px;
      }
    </style>
  </defs>
  <g id="_施設名とテキスト" data-name="施設名とテキスト">
    <polygon class="cls-2" points="182.65 120.84 143.47 169.34 57.19 159.76 .13 113.8 7.05 32.95 48.08 6.7 104.7 .13 158.86 28.03 173.32 74.13 182.65 120.84"/>
    <g>
      <path class="cls-1" d="m61.73,55.61c0,.4-.33.66-.66.66h-15.13c-1.21,0-2.2-.92-2.2-2.2v-1.36h-.59c-.4,0-.66-.29-.66-.66,0-.33.26-.66.66-.66,1.03,0,1.91.88,1.91,1.98v1.65h1.03v-6.16h-3.05c-.22-.15-.29-.22-.55-.55-.29-.22-.29-.66,0-.92.26-.22.66-.22.92,0l.18.15h2.5v-2.79h-2.12c-.22-.18-.44-.4-.59-.55-.29-.29-.29-.66,0-.95.26-.26.66-.26.92,0l.18.18h1.62v-3.25h-.37c-.37,0-.66-.33-.66-.66,0-.37.29-.66.66-.66,1.1,0,1.98.84,1.98,1.93v2.64h.95c.11-.51.55-.84,1.03-.84.62,0,1.1.44,1.1,1.05s-.48,1.1-1.1,1.1h-1.98v2.79h1.49c.11-.48.55-.81,1.03-.81.62,0,1.1.48,1.1,1.03,0,.51-.26.88-.7,1.06-.11.04-.22.04-.4.04h-2.53v6.09h13.37c.33,0,.66.33.66.66Zm-10.84-3.56c0,.66-.48,1.14-1.14,1.14s-1.17-.48-1.17-1.14.51-1.14,1.17-1.14,1.14.48,1.14,1.14Zm8.09-9.78v4.79h1.36v-1.21c0-.4.33-.66.66-.66.4,0,.66.26.66.66v.33c0,1.21-.99,2.2-2.2,2.2h-.55v1.14c0,1.1.84,2.02,1.93,2.31.33.11.59.44.59.81,0,.4-.26.66-.66.66h-.99c-1.21,0-2.2-.99-2.2-2.2v-2.73h-.81c-.33,0-.66-.33-.66-.66,0-.4.33-.66.66-.66h.81v-4.79h-2.68v7.04c0,.88.11,1.21.7,1.32.33.07.62.33.62.7,0,.4-.29.66-.66.66h-.99c-1.21,0-2.2-.97-2.2-2.18v-7.54c-.44,0-.55.07-.73,0l-1.1-1.03c-.22-.29-.22-.73,0-.95.29-.26.73-.26.95,0l.7.66h5.39v-1.98l-.66-.7c-.26-.22-.26-.66,0-.95.22-.22.66-.22.95,0,.66.73,1.1,1.65,1.1,2.64v.99h.7c0-.66.62-1.25,1.27-1.25.7,0,1.32.59,1.32,1.32,0,.59-.44,1.14-1.05,1.25h-2.24Zm2.53-3.52c-.51,0-.99-.44-.99-.99s.48-.99.99-.99c.55,0,.99.44.99.99s-.44.99-.99.99Z"/>
      <path class="cls-1" d="m80.54,58.88c0,1.25-.99,2.2-2.2,2.2h-1.05c-.33,0-.66-.29-.66-.66,0-.33.29-.66.66-.73.55-.11.66-.44.66-1.32v-8.22h-3.23v8.4c0,1.21-.99,2.2-2.2,2.2h-.84c-.33,0-.59-.29-.59-.62s.22-.55.55-.59c.48-.07.92-.22,1.25-.55.44-.44.55-1.06.55-1.87l-.04-5.98c0-1.21.99-2.2,2.2-2.2h2.75c1.21,0,2.2.99,2.2,2.2v7.74Zm8.29-12.36h-16.31l-1.1-1.05c-.29-.26-.29-.7,0-.92.26-.29.66-.29.92,0l.66.66h14.29c0-.66.62-1.21,1.27-1.21.7,0,1.32.55,1.32,1.25,0,.62-.44,1.17-1.05,1.27Zm-12.53,7.19c-.44,0-.77-.33-.77-.77s.33-.77.77-.77.84.33.84.77-.4.77-.84.77Zm0,3.34c-.44,0-.77-.33-.77-.77s.33-.75.77-.75.84.33.84.75c0,.44-.4.77-.84.77Zm.77-13.35c-.55,0-.99-.44-.99-.99s.44-.99.99-.99.99.44.99.99-.44.99-.99.99Zm6.55,9.45c-.66,0-1.17-.48-1.17-1.14s.51-1.16,1.17-1.16,1.14.51,1.14,1.16-.48,1.14-1.14,1.14Zm.44-9.5c-.55,0-.99-.44-.99-.99s.44-.99.99-.99.99.44.99.99-.44.99-.99.99Zm2.68,5.32c0-.33.29-.59.66-.59.4,0,.66.26.66.59v10.55c0,1.1-.88,1.98-1.98,1.98-.33,0-.66-.33-.66-.73,0-.33.29-.66.66-.7.55-.11.66-.44.66-1.28v-9.83Z"/>
      <path class="cls-1" d="m98.46,51.68c-.66,0-1.14-.48-1.14-1.14s.48-1.17,1.14-1.17,1.17.51,1.17,1.17-.51,1.14-1.17,1.14Zm4.35,9.78l-.99.99c-.99.88-1.83,1.36-3.19,0l-.84-.88c-.33-.33-.26-.62-.11-.84.18-.22.4-.26.77-.22.62,0,.95-.04,1.65-.59.55-.51.99-.88,1.1-1.1.33-.66.51-.99,1.54.33.73.88.66,1.65.07,2.31Zm-3.25-5.61c-.66,0-1.21-.48-1.21-1.14s.55-1.17,1.21-1.17c.62,0,1.17.51,1.17,1.17s-.55,1.14-1.17,1.14Zm18.97.73c0,.66-.44,1.14-1.05,1.25-.04.07-.15.07-.26.07h-1.87v4.11c0,1.21-.99,2.2-2.2,2.2h-5.45c-1.21,0-2.2-.99-2.2-2.2v-4.11h-1.87c-.26-.22-.44-.4-1.14-1.1-.29-.22-.29-.66,0-.95.26-.22.66-.22.92,0l.73.73h1.36v-2.75c0-1.21.99-2.2,2.2-2.2h5.45c1.21,0,2.2.99,2.2,2.2v2.75h.59c0-.73.62-1.27,1.32-1.27.66,0,1.27.55,1.27,1.27Zm-1.1-8.31c0,.73-.61,1.27-1.32,1.27h-12.49c-.37,0-.7-.29-.7-.66,0-.4.26-.66.66-.73.7,0,1.36-.33,1.91-.81.55-.55.83-1.27.88-1.98,0-.4.33-.73.73-.73.37,0,.7.33.7.77v2.81h7.04c0-.66.62-1.21,1.28-1.21.7,0,1.32.55,1.32,1.25Zm-8,6.51c0-.89-.34-1.61-1.24-1.61s-1.24.71-1.24,1.61.32,1.61,1.24,1.61,1.24-.71,1.24-1.61Zm4.42,0c0-.89-.34-1.61-1.24-1.61s-1.24.71-1.24,1.61.32,1.61,1.24,1.61,1.24-.71,1.24-1.61Zm-4.42,5.92c0-.97-.34-1.75-1.24-1.75s-1.24.78-1.24,1.75.32,1.75,1.24,1.75,1.24-.78,1.24-1.75Zm4.42,0c0-.97-.34-1.75-1.24-1.75s-1.24.78-1.24,1.75.32,1.75,1.24,1.75,1.24-.78,1.24-1.75Z"/>
      <path class="cls-1" d="m142.12,49.45c-.15.07-.33.07-.48.07h-13.63v7.23c0,1.1-.84,1.93-1.93,1.93-.37,0-.66-.29-.66-.66,0-.33.29-.66.62-.73.59-.11.7-.44.7-1.25v-6.53h-.48l-1.1-1.05c-.29-.26-.29-.7,0-.92.26-.29.66-.29.92,0l.73.66h13.57c0-.66.55-1.21,1.27-1.21s1.32.55,1.32,1.25c0,.55-.33.99-.84,1.21Zm-.22,6.93c0,.7-.55,1.25-1.25,1.25h-4.13v2.31c0,.73-.59,1.28-1.32,1.28-.66,0-1.25-.55-1.25-1.28v-2.31h-4.18l-1.1-1.1c-.29-.22-.29-.66,0-.92.26-.22.66-.22.92,0l.73.7h3.63v-2.95h-2.37l-1.1-1.1c-.26-.29-.26-.73,0-.95.29-.26.66-.26.95,0l.7.66h5.45c0-.66.55-1.21,1.25-1.21s1.27.55,1.27,1.27c0,.66-.44,1.14-1.05,1.25-.11,0-2.53.07-2.53.07v2.95h2.86c0-.7.55-1.25,1.27-1.25s1.25.59,1.25,1.32Zm-2.35-11.81c0,1.21-.99,2.2-2.2,2.2h-5.45c-1.21,0-2.2-.99-2.2-2.2v-2.64c0-.22.18-.44.44-.44.29,0,.51.15.62.37.66,1.54,1.65,2.2,3.3,2.2v-2.13h-.66c-.33,0-.66-.29-.66-.66,0-.4.33-.66.66-.66,1.1,0,1.98.88,1.98,1.98v1.47c1.43-.04,2.46-.7,3.12-2.2.11-.22.33-.37.62-.37.22,0,.44.22.44.44v2.64Z"/>
      <path class="cls-1" d="m72.85,81.75v3.15h2.41c1.77,0,3.21,1.45,3.21,3.21v9.28c0,1.61-1.28,2.89-2.89,2.89-.58,0-.96-.48-.96-.96,0-.55.39-1.03.87-1.12.9-.16,1.06-.64,1.06-1.83v-9.54h-3.69v8.09c0,1.77-1.45,3.21-3.21,3.21h-1.28c-.48,0-.9-.32-.9-.8s.42-.9.9-.96c.71-.1,1.28-.32,1.77-.8.64-.64.8-1.54.8-2.51v-11.31h-3.05l-.8-.8c-.42-.32-.42-.96,0-1.35.32-.32.96-.32,1.35,0l.16.22h7.87c.16-.71.8-1.19,1.54-1.19.87,0,1.61.71,1.61,1.61,0,.8-.74,1.51-1.61,1.51h-5.14Zm-1.93-6.17c0-.8.64-1.45,1.45-1.45s1.45.64,1.45,1.45-.64,1.45-1.45,1.45-1.45-.64-1.45-1.45Zm26.08,21.1c-1.12,1.12-2.96,1.12-4.08,0l-6.04-6.01v6.23c0,1.22.1,1.7.96,1.86.48.06.9.55.9,1.03,0,.58-.42,1.06-.96,1.06-1.54,0-2.83-1.28-2.83-2.83v-9.6h-4.24c-.58,0-.96-.48-.96-1.06,0-.55.39-.96.96-1.03,1.03,0,1.99-.48,2.79-1.22.8-.8,1.22-1.83,1.28-2.89,0-.55.48-1.03,1.06-1.03.55,0,1.03.48,1.03,1.03v5.72l8.13,8.09.64-.74c.39-.32.96-.32,1.35,0,.42.42.42,1.06,0,1.38Zm-16.38-18.31c0-.55.42-1.03,1.06-1.03,1.12-.1,2.15-.58,3.05-1.38.87-.87,1.35-1.99,1.35-3.12.1-.64.58-1.06,1.12-1.06.64,0,1.12.48,1.12,1.12v4.66h4.02c0-1.03.8-1.83,1.86-1.83s1.83.87,1.83,1.93-.8,1.83-1.83,1.83h-12.53c-.58,0-1.06-.48-1.06-1.12Zm13.91,7.71c0,.96-.74,1.77-1.7,1.77-.87,0-1.67-.8-1.67-1.77,0-.87.8-1.67,1.67-1.67.96,0,1.7.8,1.7,1.67Z"/>
      <path class="cls-1" d="m116.56,96.53c-.52,1.27-1.38,2.12-2.23,2.61-.44.25-1.02.23-1.36-.1-.36-.34-.55-.57-.54-.88.02-.61,1.06-.48,1.68-2.39.49-1.53.07-2.43-.45-3.26-.55-.83-1.3-1.42-2.32-1.66-.95-.24-1.89-.12-2.77.43-1.66.99-2.25,3.2-1.3,4.9,1.07-.71,2.06-1.3,2.41-1.59-.05-.07-.12-.12-.17-.19-.19-.36-.12-.76.24-.99.28-.24.71-.12.95.17.64.9.28,1.78-.43,2.25l-2.9,1.73c-1.11.78-2.34,1.34-3.12-.88-.79-2.22-.55-5.93,2.88-7.99,1.75-.88,3.4-.98,4.99-.68,2.03.37,3.36,1.53,4.29,3.42.74,1.5.79,3.53.15,5.11Z"/>
      <path class="cls-1" d="m53.86,129.13c-1.64,1.24-3.53.6-4.46-.7l-5.3-7.47-5.52,4.4c-.43.39-1.13.28-1.46-.14-.37-.49-.37-1.15.15-1.52l16.92-13.85-11.01-2.72-1.16-1.95c-.28-.47-.14-1.03.33-1.31.51-.3,1.04-.17,1.34.34l.74,1.25,11.06,2.79c1.25.31,1.67,1.91.62,2.81l-5.53,4.57c-1.48,1.55-1.33,2.91-.03,4.73l2.16,2.86c.86,1.18,2.29,1.81,3.66,1.65.51-.04.97.08,1.25.55.25.33.21.88-.18,1.11l-3.57,2.58Z"/>
      <path class="cls-1" d="m78.99,133.52v-.06s.95-11.67.95-11.67c.22-2.91-2-4.69-4.16-4.89-2.55-.19-4.59,1.66-4.77,4.24l-.37,4.54c0,.59-.41.99-.94,1.09-.47.09-1.02-.24-1.11-.71l-1.22-6.63c-.32-1.74.84-3.42,2.58-3.74l13.17-2.42c1.67-.31,3.06,1.01,2.94,2.66l-1.23,17.34c-.17,1.76-1.62,3.07-3.43,3.01-1.42-.07-2.53-1.33-2.4-2.76Zm-3.76-6.23c-.95.17-1.79-.49-1.94-1.34-.17-.95.39-1.8,1.34-1.98s1.81.42,1.98,1.37c.16.85-.43,1.78-1.37,1.95Z"/>
      <path class="cls-1" d="m100.98,119.91c-1.19,0-2.25-.96-2.25-2.18s1.06-2.25,2.25-2.25,2.18,1.06,2.18,2.25-.96,2.18-2.18,2.18Zm15.84,5.36l-8.45,8.58c-1.03,1.06-2.96,1.54-4.56.1l-2.73-2.73c-.42-.39-.32-.96,0-1.29.55-.55,1.03-.64,1.61-.55,1.03.06,2.25-.32,3.05-1.22l7.39-7.13c.06,0,.06-.1.06-.1,1.12-1.12,2.57-1.03,3.63-.06,1.19,1.19,1.19,3.21,0,4.4Z"/>
      <path class="cls-1" d="m143.09,117.62c0,1.06-.32,2.09-.9,2.99l-5.85,9.22c-.9,1.45-2.83,1.83-4.18.87-1.12-.71-1.45-2.31-.64-3.37l.06-.16,5.24-8.32c.87-1.22.96-2.83.32-4.01h-12.69l-1.54-1.61c-.39-.42-.39-.96,0-1.38.32-.39.96-.39,1.28,0l1.06,1.06h14.61c1.77,0,3.21,1.45,3.21,3.21v1.51Zm4.56-7.77c0,1.28-1.03,2.31-2.31,2.31s-2.41-1.03-2.41-2.31,1.12-2.41,2.41-2.41,2.31,1.12,2.31,2.41Zm-1.19,0c0-.64-.48-1.22-1.12-1.22s-1.22.58-1.22,1.22.58,1.12,1.22,1.12,1.12-.48,1.12-1.12Z"/>
    </g>
  </g>
</svg>