<?xml version="1.0" encoding="UTF-8"?>
<svg id="_レイヤー_2" data-name="レイヤー 2" xmlns="http://www.w3.org/2000/svg" viewBox="0 0 95.43 95.43">
  <defs>
    <style>
      .cls-1 {
        fill: #fff;
      }

      .cls-2 {
        fill: #da4823;
      }
    </style>
  </defs>
  <g id="_施設名とテキスト" data-name="施設名とテキスト">
    <g>
      <path class="cls-2" d="m95.43,47.72c0,26.35-21.36,47.72-47.72,47.72S0,74.07,0,47.72,21.36,0,47.71,0s47.72,21.36,47.72,47.72"/>
      <path class="cls-1" d="m47.65,22.52h-.58s-.06.03-.06.06v.58s.03.06.06.06h.58s.06-.03.06-.06v-.58s-.03-.06-.06-.06"/>
      <path class="cls-1" d="m49.69,22.52h-1.17s-.06.03-.06.06v.58s.03.06.06.06h1.17s.06-.03.06-.06v-.58s-.03-.06-.06-.06"/>
      <path class="cls-1" d="m49.69,23.39h-1.17s-.06.03-.06.06v.58s.03.06.06.06h1.17s.06-.03.06-.06v-.58s-.03-.06-.06-.06"/>
      <path class="cls-1" d="m49.69,24.27h-1.17s-.06.03-.06.06v1.46s.03.06.06.06h1.17s.06-.03.06-.06v-1.46s-.03-.06-.06-.06"/>
      <path class="cls-1" d="m48.24,23.39h-1.75s-.06.03-.06.06v.58s.03.06.06.06h.44l-.48.48s-.02.03-.02.04v.87s.01.05.04.05c0,0,.02,0,.02,0,.01,0,.03,0,.04-.02l.48-.48v.74s.03.06.06.06h.58s.06-.03.06-.06v-.74l.48.48s.03.02.04.02c0,0,.01,0,.02,0,.02,0,.04-.03.04-.05v-.87s0-.03-.02-.04l-.25-.25.25-.25s.02-.03.02-.04v-.58s-.03-.06-.06-.06"/>
      <path class="cls-1" d="m34.94,50.4h-3.62c-.2,0-.36.16-.36.36v14.48c0,.2.16.36.36.36h7.24c.2,0,.36-.16.36-.36v-3.62c0-.2-.16-.36-.36-.36h-3.26v-10.5c0-.2-.16-.36-.36-.36"/>
      <path class="cls-1" d="m45.8,50.4h-7.24c-.2,0-.36.16-.36.36v3.62c0,.2.16.36.36.36h3.26v10.5c0,.2.16.36.36.36h3.62c.2,0,.36-.16.36-.36v-14.48c0-.2-.16-.36-.36-.36"/>
      <path class="cls-1" d="m53.04,50.4h-3.62c-.2,0-.36.16-.36.36v14.48c0,.2.16.36.36.36h7.24c.2,0,.36-.16.36-.36v-3.62c0-.2-.16-.36-.36-.36h-3.26v-10.5c0-.2-.16-.36-.36-.36"/>
      <path class="cls-1" d="m63.9,50.4h-7.24c-.2,0-.36.16-.36.36v3.62c0,.2.16.36.36.36h3.26v10.5c0,.2.16.36.36.36h3.62c.2,0,.36-.16.36-.36v-14.48c0-.2-.16-.36-.36-.36"/>
      <path class="cls-1" d="m15.03,44.97h-3.62c-.2,0-.36.16-.36.36v3.62c0,.2.16.36.36.36h3.62c.2,0,.36-.16.36-.36v-3.62c0-.2-.16-.36-.36-.36"/>
      <path class="cls-1" d="m27.7,44.97h-7.24c-.2,0-.36.16-.36.36v3.62c0,.2.16.36.36.36h7.24c.2,0,.36-.16.36-.36v-3.62c0-.2-.16-.36-.36-.36"/>
      <path class="cls-1" d="m27.7,50.4h-7.24c-.2,0-.36.16-.36.36v3.62c0,.2.16.36.36.36h7.24c.2,0,.36-.16.36-.36v-3.62c0-.2-.16-.36-.36-.36"/>
      <path class="cls-1" d="m27.7,55.83h-7.24c-.2,0-.36.16-.36.36v9.05c0,.2.16.36.36.36h7.24c.2,0,.36-.16.36-.36v-9.05c0-.2-.16-.36-.36-.36"/>
      <path class="cls-1" d="m18.65,50.4H7.79c-.2,0-.36.16-.36.36v3.62c0,.2.16.36.36.36h2.75l-3.01,3.01c-.07.07-.11.16-.11.25v5.43c0,.15.09.28.22.33.04.02.09.03.14.03.09,0,.19-.04.25-.1l3.01-3.01v4.56c0,.2.16.36.36.36h3.62c.2,0,.36-.16.36-.36v-4.56l3.01,3.01c.07.07.16.1.25.1.05,0,.09,0,.14-.03.13-.06.22-.19.22-.33v-5.43c0-.09-.04-.19-.1-.25l-1.55-1.56,1.55-1.56c.07-.07.1-.16.1-.25v-3.62c0-.2-.16-.36-.36-.36"/>
      <path class="cls-1" d="m87.43,61.27h-7.24c-.2,0-.36.16-.36.36v3.62c0,.2.16.36.36.36h7.24c.2,0,.36-.16.36-.36v-3.62c0-.2-.16-.36-.36-.36"/>
      <path class="cls-1" d="m87.43,44.97h-7.24c-.2,0-.36.16-.36.36v14.48c0,.2.16.36.36.36h7.24c.2,0,.36-.16.36-.36v-14.48c0-.2-.16-.36-.36-.36"/>
      <path class="cls-1" d="m74.76,44.97h-3.62c-.2,0-.36.16-.36.36v3.62c0,.2.16.36.36.36h3.62c.2,0,.36-.16.36-.36v-3.62c0-.2-.16-.36-.36-.36"/>
      <path class="cls-1" d="m78.38,50.4h-10.86c-.2,0-.36.16-.36.36v3.62c0,.2.16.36.36.36h2.75l-3.01,3.01c-.07.07-.1.16-.1.25v5.43c0,.15.09.28.22.33.05.02.09.03.14.03.09,0,.19-.04.25-.1l3.01-3.01v4.56c0,.2.16.36.36.36h3.62c.2,0,.36-.16.36-.36v-4.56l3.01,3.01c.07.07.16.1.26.1.05,0,.09,0,.14-.03.13-.06.22-.19.22-.33v-5.43c0-.09-.04-.19-.1-.25l-1.56-1.56,1.56-1.56c.07-.07.1-.16.1-.25v-3.62c0-.2-.16-.36-.36-.36"/>
      <path class="cls-1" d="m52.45,31.55c-.15-.27-.27-.5-.34-.64-.51-1.13-.63-3.11-.31-5.43.29-2.16-.13-4.1-1.14-5.2-.65-.71-1.52-1.07-2.51-1.02-.95.04-1.78.44-2.41,1.14-1.09,1.22-1.38,3.15-1.29,4.55.08,1.19.32,2.71.53,3.8.06.32-.16.62-.48.67-2.42.36-4.12,1.11-5.05,2.24-.56.68-.83,1.49-.75,2.29.04.39.15.76.31,1.1.08.15.08.33.01.49-.23.52-.32,1.07-.27,1.62.05.54.22,1.04.49,1.49.09.15.11.33.05.5-.16.44-.23.9-.18,1.36.06.62.28,1.19.63,1.66.1.13.13.29.1.45-.05.29-.07.58-.04.87.08.97.5,1.79,1.22,2.37.8.64,1.92.97,3.34.97,1.15,0,2.02-.21,2.68-.54.14-.07.3-.08.44-.03.32.1.73.17,1.19.17.74,0,1.61-.16,2.48-.57,1.14-.53,2.63-1.65,3.28-4,1.23-4.5-1.01-8.55-1.97-10.27m-11.2,9.99c-.37-.31-.59-.71-.63-1.21h0c-.02-.18.17-.31.34-.24.84.38,1.9.57,3.16.57s2.31-.18,3.14-.55c.16-.07.34.04.34.22,0,.11-.01.23-.05.34-.09.31-.22.56-.41.76-.52.56-1.54.84-3.03.84-1.29,0-2.28-.26-2.87-.74m6.2-4.75c.13-.05.28.02.32.16.04.14.05.3.01.48-.06.34-.23.64-.5.88-.6.54-1.69.83-3.16.83s-2.64-.32-3.27-.92c-.34-.33-.54-.74-.58-1.23,0-.05,0-.11,0-.17,0-.18.19-.29.35-.21.89.46,2.07.69,3.52.69s2.47-.16,3.32-.5m-6.05,6.98c-.06-.19.12-.36.31-.3.68.22,1.49.33,2.41.33,1.22,0,2.2-.17,2.97-.51.17-.08.37.08.33.26,0,.03-.01.06-.02.09-.12.4-.49,1.62-3.05,1.62-1.18,0-2.58-.27-2.95-1.49m11.55-2.35c-.49,1.78-1.6,2.63-2.44,3.02-.45.21-.9.33-1.3.38-.29.04-.51-.24-.41-.51.03-.08.06-.15.08-.23.19-.63.13-1.32-.14-1.93-.05-.1-.04-.23,0-.33.12-.23.22-.47.29-.74.18-.65.11-1.35-.17-1.97-.05-.11-.05-.25.02-.35.2-.32.34-.67.41-1.05.11-.6.02-1.2-.27-1.73-.07-.13-.06-.28.02-.4.16-.24.28-.5.37-.79.17-.59.11-1.54-.6-2.26-.62-.63-1.89-1.24-4.46-.59-.38.09-.64.46-.59.84.06.46.51.76.95.64,1.45-.37,2.54-.31,3.01.17.27.27.26.62.22.78-.08.29-.25.52-.52.71-.43.3-1.35.67-3.28.67-1.7,0-2.91-.36-3.51-1.03-.24-.27-.38-.59-.42-.96-.03-.27.02-.69.4-1.15,1.11-1.33,3.89-1.73,5.45-1.86h0s.06,0,.09-.01c.41-.09.68-.49.59-.91,0-.03-.65-3.05-.77-5.01-.09-1.37.27-2.71.91-3.42.36-.4.8-.61,1.34-.63.54-.02.97.15,1.32.53.69.76.98,2.28.75,3.97-.36,2.64-.21,4.87.44,6.28.09.2.22.44.39.75.94,1.7,2.89,5.23,1.83,9.13"/>
      <path class="cls-1" d="m47.65,22.52h-.58s-.06.03-.06.06v.58s.03.06.06.06h.58s.06-.03.06-.06v-.58s-.03-.06-.06-.06"/>
      <path class="cls-1" d="m49.69,22.52h-1.17s-.06.03-.06.06v.58s.03.06.06.06h1.17s.06-.03.06-.06v-.58s-.03-.06-.06-.06"/>
      <path class="cls-1" d="m49.69,23.39h-1.17s-.06.03-.06.06v.58s.03.06.06.06h1.17s.06-.03.06-.06v-.58s-.03-.06-.06-.06"/>
      <path class="cls-1" d="m49.69,24.27h-1.17s-.06.03-.06.06v1.46s.03.06.06.06h1.17s.06-.03.06-.06v-1.46s-.03-.06-.06-.06"/>
      <path class="cls-1" d="m48.24,23.39h-1.75s-.06.03-.06.06v.58s.03.06.06.06h.44l-.48.48s-.02.03-.02.04v.87s.01.05.04.05c0,0,.02,0,.02,0,.01,0,.03,0,.04-.02l.48-.48v.74s.03.06.06.06h.58s.06-.03.06-.06v-.74l.48.48s.03.02.04.02c0,0,.01,0,.02,0,.02,0,.04-.03.04-.05v-.87s0-.03-.02-.04l-.25-.25.25-.25s.02-.03.02-.04v-.58s-.03-.06-.06-.06"/>
    </g>
  </g>
</svg>