<?xml version="1.0" encoding="UTF-8"?>
<svg id="_レイヤー_2" data-name="レイヤー 2" xmlns="http://www.w3.org/2000/svg" viewBox="0 0 318.89 87.51">
  <defs>
    <style>
      .cls-1 {
        fill: #36bdef;
      }
    </style>
  </defs>
  <g id="_施設名とテキスト" data-name="施設名とテキスト">
    <g>
      <path class="cls-1" d="m38.19,36.44c.11,1.01-.74,1.86-1.75,1.75-1.17-.12-2.34-.19-3.53-.19-4.27,0-8.44.81-12.38,2.41-4.09,1.66-7.75,4.09-10.89,7.23-3.14,3.14-5.57,6.8-7.23,10.89-1.6,3.94-2.41,8.11-2.41,12.38s.81,8.44,2.41,12.38c.78,1.92,2.28,3.07,4.88,2.06,3.01-1.17,2.84-2.97,2.06-4.88-1.23-3.04-1.86-6.26-1.86-9.57s.63-6.52,1.86-9.57c1.28-3.15,3.16-5.98,5.58-8.41,2.43-2.43,5.25-4.31,8.41-5.58,3.04-1.23,6.26-1.86,9.57-1.86s6.52.63,9.57,1.86c1.4.57,2.4,1.36,4.32-.56,1.72-1.72,1.13-2.92.56-4.32-1.23-3.04-1.86-6.26-1.86-9.57s.63-6.52,1.86-9.57c1.28-3.15,3.16-5.98,5.58-8.41,2.43-2.43,5.26-4.31,8.41-5.58,3.04-1.23,6.26-1.86,9.57-1.86s6.52.63,9.57,1.86c1.92.78,3.55,1.12,4.88-2.06,1.4-3.35-.15-4.1-2.06-4.88-3.94-1.6-8.11-2.41-12.38-2.41s-8.44.81-12.38,2.41c-4.09,1.66-7.75,4.09-10.89,7.23-3.14,3.14-5.57,6.8-7.23,10.89-1.6,3.94-2.41,8.11-2.41,12.38,0,1.18.06,2.36.19,3.53Z"/>
      <path class="cls-1" d="m115.95,52.82c0,.99.79,1.78,1.78,1.78h.02c2.86,0,5.65.54,8.29,1.61,2.74,1.11,5.19,2.74,7.29,4.84,2.1,2.1,3.73,4.56,4.84,7.29,2.14,5.28,2.14,11.31,0,16.59-.78,1.92-1.55,3.38-4.88,2.06-3.26-1.29-2.84-2.96-2.06-4.88,1.41-3.48,1.41-7.47,0-10.95-.73-1.8-1.81-3.42-3.2-4.81-1.39-1.39-3.01-2.47-4.81-3.2-1.74-.71-3.58-1.06-5.48-1.06s-3.73.36-5.48,1.06c-1.4.57-2.77.91-4.28-.6-1.51-1.51-1.17-2.88-.6-4.28.71-1.74,1.06-3.58,1.06-5.48s-.36-3.73-1.06-5.48c-.73-1.8-1.81-3.42-3.2-4.81-1.39-1.39-3.01-2.46-4.81-3.2-3.48-1.41-7.47-1.41-10.95,0-1.92.78-3.5,1.33-4.88-2.06-1.67-4.11,1.85-4.98,4.95-5.73,4.59-1.11,9.45-.91,13.82.89,2.69,1.11,5.1,2.72,7.18,4.79,2.1,2.1,3.73,4.56,4.84,7.29,1.07,2.64,1.61,5.43,1.61,8.29v.02Z"/>
      <g>
        <path class="cls-1" d="m170.84,24.3s-.48.24-.68.33l-.93.38c-.26.1-.42.38-.37.63.15.75.45,2.17.51,2.17.03-.02.24-.31.36-.48.05-.08.13-.14.21-.19l4.41-2.41c.19-.11.32-.31.31-.52l-.02-1.43c0-.18-.19-.27-.35-.18l-.64.34c-.18.1-.37-.03-.35-.22l.63-5.13c.03-.29.29-.52.58-.52h.33c.27,0,.46.2.46.46-.01.41-.02.97-.02,1.21,0,1.67.1,2.82.48,4.38.03.13.09.38.14.56.04.16,0,.34-.12.47-.14.17-.32.39-.43.51-.39.43-.81.84-1.41,1.35-.11.09-.28.23-.45.36-.28.22-.31.63-.05.82l.88.65c.18.13.45.11.65-.05.27-.22.64-.54.95-.85.12-.12.35-.36.55-.58.23-.24.6-.26.78-.03.16.2.33.4.44.51.57.57,1.12.85,1.67.85.86,0,1.27-.77,1.32-.86h0c.19-.34.41-.85.62-1.48.1-.29.23-.84.32-1.19.05-.2-.02-.39-.18-.5l-1.31-.87s-.13.53-.23.77c-.17.4-.4.72-.68.72-.22,0-.37-.13-.46-.27-.1-.15-.17-.38-.17-.38,0,0,.53-.85.73-1.19.45-.78.76-1.4,1.11-2.13.08-.17.36-.77.36-.77l1.2-1.38-2.18-.02c-.36,0-.56.08-.67.36-.17.43-.4.96-.67,1.52-.15.32-.7,1.36-.7,1.36,0,0-.2-1.03-.24-1.32-.05-.41-.08-.78-.09-1.13-.01-.33,0-.87.01-1.28,0-.3.28-.56.58-.56h3.52c.29,0,.55-.23.58-.52l.13-1.02c.04-.29-.17-.52-.45-.52h-3.55c-.29,0-.49-.23-.45-.52l.33-2.52c.01-.09.05-.18.1-.26l1.57-.83h-3.36c-.29,0-.55.23-.58.52l-.37,3.1c-.03.29-.29.52-.58.52h-2.38c-.29,0-.55.23-.58.52l-1.08,8.78Z"/>
        <path class="cls-1" d="m162.67,27.37s.42.52.57.69c1.13,1.31,3.28,3.17,8.96,3.17,1.07,0,5.74-.02,7.06-.02.21,0,.42-.12.54-.31l.94-1.55c.67-1.11,2.62-1.05-.45-.79-2.03.17-6.73.55-9.03.55-1.04,0-1.97-.04-3.05-.4-.13-.04-.51-.21-.83-.35-.3-.13-.47-.45-.43-.8l.35-2.86c.02-.2.2-.35.4-.35h1.83c.2,0,.37-.16.4-.35l.19-1.52c.02-.2-.12-.35-.31-.35h-1.83c-.2,0-.33-.16-.31-.35l.18-1.43c.02-.2.2-.35.4-.35h2.08c.2,0,.37-.16.4-.35l.18-1.47c.02-.2-.12-.35-.31-.35h-2.4c-.2,0-.33-.16-.31-.35l.18-1.48c.02-.2.2-.35.4-.35h2.23c.2,0,.37-.16.4-.35l.16-1.3c.02-.2-.12-.35-.31-.35h-2.23c-.2,0-.33-.16-.31-.35l.14-1.17c0-.06.03-.12.07-.17l1.62-.99h-3.66c-.2,0-.38.16-.4.35l-.24,1.97c-.02.2-.2.35-.4.35h-2.77c-.2,0-.37.16-.4.35l-.16,1.3c-.02.2.12.35.31.35h2.77c.2,0,.33.16.31.35l-.18,1.48c-.02.2-.2.35-.4.35h-3.19c-.2,0-.37.16-.4.35l-.18,1.47c-.02.2.12.35.31.35h3.61c.2,0,.33.16.31.35l-.65,5.3c-.03.22-.33.31-.43.13l-.73-1.32c-.04-.07-.05-.15-.03-.23l.4-1.93c.01-.07.04-.13.09-.18.15-.18.68-.59.68-.59,0,0-1.88-.04-2.62-.05-.19,0-.36.14-.4.33-.03.18-.07.39-.1.53-.53,2.55-1.46,5.15-2.63,7.38-.08.16-.21.39-.32.58-.11.2-.02.43.18.48l1.82.45c.16.04.34-.04.43-.2.1-.18.23-.42.33-.63.22-.47.5-1.14.89-2.2.06-.17.29-.81.29-.81Z"/>
        <path class="cls-1" d="m179.69,12.37c-.29.12-.44.46-.3.71.17.3.36.65.41.77.05.11.13.32.21.51.09.24.38.33.63.2l1.07-.55c.24-.13.36-.41.27-.65-.19-.49-.42-.92-.64-1.27-.11-.18-.33-.24-.55-.16l-1.11.44Z"/>
        <path class="cls-1" d="m214.7,17.45h-3.48c-.29,0-.56.23-.6.52l-1.27,10.33c-.11.86-.57,1.02-1.39,1.02-.12,0-.23,0-.34,0-.39-.02-.71.4-.58.76l.45,1.29c.07.19.25.31.46.3,2.78-.06,3.6-.45,3.86-2.58l1.29-10.5c.01-.11.06-.21.13-.3l1.48-.85Z"/>
        <path class="cls-1" d="m205.54,18.36l-1.05,8.57c-.04.29.17.53.47.53h1.29c.29,0,.56-.24.6-.53l.98-7.98c.02-.12.07-.24.16-.34l1.54-.78h-3.39c-.29,0-.56.25-.6.54Z"/>
        <path class="cls-1" d="m206.6,13.8c-.12.15-.3.25-.48.25h-5.04c-.06,0-.16-.05-.02-.11.16-.08.61-.28.61-.28.31-.14.45-.52.3-.79-.44-.77-.78-1.29-1.03-1.65-.13-.19-.38-.25-.61-.15l-1.45.61c-.33.14-.48.54-.31.81.29.45.6.97.78,1.28.07.12-.04.28-.18.28h-4.52c-.29,0-.56.24-.6.53l-.11.9c-.04.29.17.53.47.53h19.97c.29,0,.56-.24.6-.53l.11-.9c.04-.29-.17-.53-.47-.53h-4.89s-.27-.12-.14-.28c.19-.23,1.12-1.54,1.12-1.54l1.81-.98-3.73-.05c-.21,0-.42.12-.53.31-.57.95-1.31,1.82-1.66,2.29Z"/>
        <path class="cls-1" d="m202.05,29.32l1.34-10.94c.04-.29-.17-.53-.47-.53h-7.56c-.29,0-.56.24-.6.53l-1.58,12.84c-.04.29.17.53.47.53h1.24c.29,0,.56-.24.6-.53l.48-3.92c.04-.29.3-.53.6-.53h2.9c.29,0,.5.24.47.53l-.18,1.43c-.06.52-.37.77-.94.77-.02,0-.22,0-.55-.02-.38-.03-.72.35-.63.71l.32,1.31c.05.21.24.36.47.35,2.01-.07,3.37-.58,3.61-2.53Zm-4.61-9.61h2.9c.29,0,.5.24.47.53l-.07.61c-.04.29-.3.53-.6.53h-2.9c-.29,0-.5-.24-.47-.53l.07-.61c.04-.29.3-.53.6-.53Zm-1.1,4.67l.07-.61c.04-.29.3-.53.6-.53h2.9c.29,0,.5.24.47.53l-.07.61c-.04.29-.3.53-.6.53h-2.9c-.29,0-.5-.24-.47-.53Z"/>
        <path class="cls-1" d="m231.77,15.97l.9.57c.29.19.55.17.74.01.73-.6,1.45-1.36,1.77-1.71.12-.13.28-.2.44-.2h11.57c.29,0,.56-.24.6-.53l.12-.94c.04-.29-.17-.53-.47-.53h-10.03c-.19,0-.29-.21-.17-.38l.49-.66c.05-.07.12-.13.2-.18l1.96-.97h-3.83c-.2,0-.4.12-.51.3-1.21,1.99-2.56,3.31-3.78,4.38-.28.24-.28.65,0,.83Z"/>
        <path class="cls-1" d="m242.54,30.94c.42-.39.65-.79.91-1.51.06-.16.17-.51.26-.8.08-.25.32-.43.57-.43h.98c.29,0,.56-.24.6-.53l.11-.9c.04-.29-.17-.53-.47-.53h-.61c-.31,0-.52-.26-.46-.57l.36-1.79c.06-.28.31-.49.59-.49h.67c.29,0,.56-.24.6-.53l.1-.8c.04-.29-.17-.53-.47-.53h-.51c-.3,0-.51-.24-.47-.54.12-.87.36-2.62.51-3.77.04-.29-.17-.53-.47-.53h-10.65c-.3,0-.56.24-.6.53-.15,1.3-.42,2.98-.57,3.8-.05.28-.31.5-.59.5h-.93c-.29,0-.56.24-.6.53l-.1.8c-.04.29.17.53.47.53h.65c.32,0,.54.29.45.61-.29,1.08-.92,3.34-1.33,4.58-.1.31.08.61.39.64l1.13.11c.25.03.51-.13.61-.38.05-.12.1-.25.15-.36.09-.23.32-.39.56-.39h6.4c.36,0,.57.35.42.69-.08.18-.16.35-.23.44-.31.41-.82.61-1.93.67-.39.02-.67.44-.53.78l.41,1.02c.07.19.26.3.47.29,1.33-.1,2.41-.49,3.15-1.14Zm-1.19-12.26h1.38c.3,0,.51.24.46.54l-.25,1.79c-.04.29-.31.52-.6.52h-1.41c-.3,0-.51-.25-.46-.55l.29-1.79c.05-.29.31-.51.59-.51Zm-4.82,7.57h-1.35c-.32,0-.53-.28-.46-.59l.43-1.79c.06-.27.32-.47.59-.47h1.42c.33,0,.54.29.45.61l-.5,1.79c-.07.26-.32.45-.58.45Zm1.14-4.71h-1.45c-.3,0-.51-.25-.46-.55l.27-1.79c.04-.29.31-.52.59-.52h1.48c.3,0,.51.25.46.56l-.3,1.79c-.05.28-.31.51-.59.51Zm1.75,4.12l.45-1.79c.07-.27.32-.46.58-.46h1.54c.31,0,.52.26.46.57l-.36,1.79c-.06.28-.31.49-.59.49h-1.63c-.32,0-.53-.28-.45-.6Z"/>
        <path class="cls-1" d="m228.57,21.39l.85-1.01c.2-.24.18-.56-.02-.74-.72-.6-1.52-1.18-2.21-1.6-.22-.13-.53-.07-.72.15l-.79.95c-.21.25-.18.6.06.76.55.37,1.35.95,2.05,1.59.21.2.58.14.79-.11Z"/>
        <path class="cls-1" d="m226.08,31.66c1.28-1.87,2.24-3.26,3.49-5.41.13-.22.1-.49-.08-.64l-.8-.68c-.25-.21-.65-.11-.83.2-1.02,1.74-2.21,3.46-3.58,5.11-.18.22-.19.53,0,.71l1.19,1.12c.19.18.33.26.42.28,0-.01,0-.03.01-.06.04-.36.05-.43.17-.61h0Z"/>
        <path class="cls-1" d="m228.61,11.61l-.86.93c-.22.23-.22.57,0,.75.61.51,1.19,1.06,1.65,1.55.2.21.54.18.77-.04l.93-.94c.22-.22.24-.56.04-.75-.58-.57-1.24-1.14-1.79-1.59-.21-.17-.53-.13-.74.1Z"/>
        <path class="cls-1" d="m263.31,19.83h15.58c.29,0,.56-.24.6-.53l.12-.99c.04-.29-.17-.53-.47-.53h-18.28c-.3,0-.58.25-.6.56-.05.66-.11,1.42-.23,2.35-.48,3.93-1.52,7-3.34,9.8-.19.29-.1.65.2.76l1.51.52c.24.08.53-.03.68-.26,2.37-3.77,3.1-7.57,3.55-10.57.02-.14.05-.36.08-.57.04-.29.31-.52.6-.52Z"/>
        <path class="cls-1" d="m278.07,25.77h-6.12c-.29,0-.5-.24-.47-.53l.13-1.03c.04-.29.3-.53.6-.53h4.94c.29,0,.56-.24.6-.53l.13-1.02c.04-.29-.17-.53-.47-.53h-12.77c-.29,0-.56.24-.6.53l-.13,1.02c-.04.29.17.53.47.53h3.92c.29,0,.5.24.47.53l-.13,1.03c-.04.29-.3.53-.6.53h-5.08c-.29,0-.56.24-.6.53l-.14,1.17c-.04.29.17.53.47.53h5.08c.29,0,.5.24.47.53l-.4,3.29c-.04.29.17.53.47.53h1.78c.29,0,.56-.24.6-.53l.4-3.29c.04-.29.3-.53.6-.53h6.12c.29,0,.56-.24.6-.53l.14-1.17c.04-.29-.17-.53-.47-.53Z"/>
        <path class="cls-1" d="m261.39,12.03l-.46,3.77c-.04.29.17.53.47.53h16.42c.29,0,.56-.24.6-.53l.38-3.13c.02-.15.1-.29.22-.39l1.53-.81-3.76-.04c-.3,0-.57.24-.6.53l-.22,1.81c-.04.29-.3.53-.6.53h-3.47c-.29,0-.5-.24-.47-.53l.19-1.53c.02-.15.1-.3.23-.4l1.64-.89-3.99-.02c-.29,0-.56.24-.6.53l-.28,2.31c-.04.29-.3.53-.6.53h-3.67c-.29,0-.5-.24-.47-.53l.14-1.1c.02-.16.11-.31.25-.41l1.53-.74-3.79-.02c-.29,0-.56.24-.6.53Z"/>
        <path class="cls-1" d="m183.64,62.13h-1.42c-.29,0-.5-.24-.47-.53l.32-2.58c.04-.29.3-.53.6-.53h1.42c.29,0,.5.24.47.53l-.32,2.58c-.04.29-.3.53-.6.53Zm4.59,0h-1.45c-.29,0-.5-.24-.47-.53l.32-2.58c.04-.29.3-.53.6-.53h1.45c.29,0,.5.24.47.53l-.32,2.58c-.04.29-.3.53-.6.53Zm4.74,0h-1.59c-.29,0-.5-.24-.47-.53l.32-2.58c.04-.29.3-.53.6-.53h1.59c.29,0,.5.24.47.53l-.32,2.58c-.04.29-.3.53-.6.53Zm-13.09-5l-.57,4.47c-.04.29-.3.53-.6.53h-1.06c-.29,0-.56.24-.6.53l-.12.94c-.04.29.17.53.47.53h20c.29,0,.56-.24.6-.53l.12-.94c.04-.29-.17-.53-.47-.53h-1.08c-.29,0-.5-.24-.47-.53l.56-4.6.18.03c.49.08.92-.03,1.31-.32.65-.5,1.15-1.55,1.38-2.87.04-.21-.06-.41-.25-.5l-1.07-.53c-.29-.14-.66.03-.78.36-.18.5-.46.97-.91.97-.26,0-.77-.13-1.58-.87-.1-.1-.31-.31-.47-.48-.13-.14-.12-.37.04-.53.22-.22.54-.54.8-.81.32-.35,1.16-1.33,1.16-1.33l1.13-.35s-1.34-.93-1.94-1.44c-.22-.19-.57-.13-.77.12-.31.39-.71.9-.84,1.08-.17.24-.52.65-.78.95-.14.16-.39.15-.46-.04-.14-.35-.33-.84-.4-1.09-.04-.14-.08-.27-.11-.42-.02-.1-.06-.28-.1-.46-.07-.34.23-.69.59-.69h6.35c.29,0,.56-.24.6-.53l.14-1.12c.04-.29-.17-.53-.47-.53h-3.26c-.32,0-.16-.07-.04-.17l.58-.45c.26-.2.32-.57.13-.79-.35-.39-.73-.73-1.22-1.09-.17-.13-.41-.12-.61,0l-.94.62c-.3.2-.37.61-.14.83.07.07.42.47.67.75.14.16.19.29-.15.29h-1.91c-.29,0-.5-.23-.47-.52.03-.29.06-.62.07-.68l.04-.21,1.32-.86-3.19-.03c-.31-.02-.6.24-.63.55-.02.23-.03.43-.04.67,0,.1,0,.29,0,.49,0,.31-.28.59-.6.59h-8.28c-.32,0-.6.28-.6.59,0,.54-.01,1.29-.03,1.59-.03.41-.06.86-.12,1.34-.24,1.91-.71,3.68-1.38,5.11-.32.7-.62,1.2-.9,1.58-.19.26-.14.59.11.74l1.1.64c.22.13.53.06.71-.16.15-.18.32-.39.43-.56.6-.85.94-1.93,1.31-3.08.1-.31.27-.91.38-1.33.07-.26.32-.45.58-.45h2.18c.31,0,.53.27.46.58-.04.2-.09.41-.14.53-.19.53-.5.95-1.1,1.04-.03,0-.29,0-.56,0-.35,0-.66.33-.61.67l.16,1.1c.03.24.24.41.49.4,2.39-.12,3.1-.77,3.47-1.81l.13-.37h0c.43-1.2.64-2.5.78-3.7.03-.29-.18-.53-.47-.53h-4.36c-.29,0-.5-.23-.47-.52l.07-.66c.03-.3.3-.54.6-.54h6.35c.24,0,.43.16.46.38.06.37.15.91.21,1.18.18.83.39,1.48.61,2.04.08.2.23.54.34.78.07.15,0,.34-.17.43-.23.12-.52.28-.67.35-.61.3-1.15.53-1.65.71-.27.1-.53.18-.79.26-.34.1-.54.48-.39.78l.62,1.29c.11.23.4.32.66.2.21-.1.44-.2.56-.26.73-.35,1.4-.69,2.02-1.07.2-.12.53-.34.79-.52.22-.15.5-.14.67.03.17.17.37.38.47.48.57.56.96.88,1.36,1.17.14.1.84.59.84.59h-14.8c-.29,0-.56.24-.6.53Z"/>
        <path class="cls-1" d="m216.92,50.39c-.25-.18-.64-.07-.81.24-.63,1.14-1.24,2.39-1.44,2.74-.16.3-.26.32-.3-.02-.04-.41-.07-.84.02-1.57.13-1.03.78-4.48,1.39-6.02.06-.16.09-.36.17-.49.1-.17,1.4-.91,1.4-.91h-3.22c-.27-.01-.53.18-.61.45-.43,1.54-1.11,4.21-1.43,6.85-.28,2.25-.22,4.33.18,6.2.05.22.24.36.46.36h1.09c.24,0,.46-.16.55-.38,1-2.38,2.19-4.63,3.19-6.43.13-.24.08-.51-.12-.65l-.52-.37Z"/>
        <path class="cls-1" d="m217.54,62.92l1.44.82c.2.11.47.07.65-.11,1.01-.96,2.35-2.35,3.63-4.63,1.27-2.25,2.07-4.7,2.39-7.29.2-1.59.27-3.35.34-5.17v-.31c.01-.54.05-1.09.05-1.09l1.26-1.05h-3.27c-.32,0-.6.28-.6.6.03,3.48-.36,7.06-.36,7.09-.29,2.36-1.1,4.67-2.34,6.68-1.13,1.81-2.29,2.89-3.18,3.59-.31.24-.32.7,0,.87Z"/>
        <path class="cls-1" d="m234.85,63.55h19.88c.29,0,.56-.24.6-.53l.17-1.36c.04-.29-.17-.53-.47-.53h-8.54c-.29,0-.5-.24-.47-.53l.84-6.83c.04-.29.3-.53.6-.53h6.93c.29,0,.56-.24.6-.53l.18-1.49c.04-.29-.17-.53-.47-.53h-6.93c-.29,0-.5-.24-.47-.53l.67-5.45c.02-.14.09-.27.2-.37l1.3-.86h-3.57c-.29,0-.56.24-.6.53l-2.04,16.6c-.04.29-.3.53-.6.53h-7.53c-.29,0-.56.24-.6.53l-.17,1.36c-.04.29.17.53.47.53Z"/>
        <path class="cls-1" d="m284.7,43.85c.28.43.52.88.72,1.31.12.24.43.32.69.18l.66-.35c.27-.14.41-.47.29-.73-.24-.51-.5-.97-.8-1.42-.14-.2-.42-.25-.66-.12l-.64.35c-.29.16-.42.52-.26.78Z"/>
        <path class="cls-1" d="m290.03,43.96c-.2-.43-.47-.98-.82-1.51-.14-.21-.42-.27-.67-.14l-.63.33c-.3.16-.42.52-.26.78.25.39.5.87.76,1.42.12.25.43.34.7.19l.56-.3c.35-.19.48-.51.36-.77Z"/>
        <path class="cls-1" d="m270.91,56.51c-.27.46-.59.97-.83,1.34-.12.18-.38.14-.4-.06-.05-.53-.1-1.27-.09-1.65.02-.87.11-1.73.21-2.51.36-2.94,1.09-5.96,1.81-7.79.03-.07.31-.63.42-.84.03-.06.06-.1.11-.15.19-.2,1.1-.76,1.11-.77h-2.99c-.23,0-.46.15-.55.37-.44.98-.76,1.85-.97,2.64-.55,2-.88,3.55-1.11,5.45-.67,5.43.02,8.34.5,9.9.07.23.3.35.55.31l1.25-.23c.22-.04.41-.22.48-.43.53-1.76,1.13-3.23,1.95-4.75.12-.23.08-.5-.1-.64l-.52-.4c-.25-.19-.64-.09-.81.21Z"/>
        <path class="cls-1" d="m304.4,55.8v-.21c-.06-1.58-.42-2.64-1.62-4.72l-.04-.07,2.19-4.06v.03s.57-1.07.57-1.07c.1-.19.09-.42-.03-.57l-.65-.79c-.09-.11-.22-.17-.37-.17h-5.43c-.29,0-.56.24-.6.53l-2.36,19.19c-.04.29.17.53.47.53h1.29c.29,0,.56-.24.6-.53l2.09-17.01c.04-.29.3-.53.6-.53h1.14c.38,0,.59.38.4.73l-2.08,3.89c-.1.18-.09.38.02.54,1.18,1.73,1.69,3.27,1.53,4.57-.19,1.55-.95,1.96-1.84,2.07-.38.05-.64.44-.51.77l.45,1.15c.08.21.3.33.54.28,2.42-.49,3.25-1.48,3.62-4.1l.04-.45Z"/>
        <path class="cls-1" d="m304.75,56.3l.57.81c.15.21.44.25.68.11.89-.53,1.53-.96,2.19-1.46.22-.17.66-.53.99-.8.31-.25.44-.11.48.03.04.17.05.29.05.29.03.18-.03.37-.18.51-.29.28-.77.74-1.04.99-1.81,1.63-3.77,2.94-6.69,4.05-.34.13-.5.55-.31.82l.75,1.1c.13.19.4.25.63.14,2.04-.95,3.39-1.73,4.89-2.86.2-.15.84-.68,1.39-1.12.37-.3.87-.08.84.36,0,.17-.02.33-.04.47-.2,1.66-.81,2.28-2.24,2.28-.02,0-.35,0-.77-.02-.37-.02-.69.34-.62.69l.27,1.36c.04.21.22.36.44.37.96.02,2.5-.06,3.63-1.02.78-.66,1.26-1.66,1.42-2.97.16-1.27.08-3.13-.19-4.85-.28-1.81-.74-3.08-1.15-4.04-.06-.15-.17-.38-.26-.57-.1-.22-.02-.49.18-.66.28-.23.65-.54.81-.68.19-.17.41-.39.56-.55.13-.14.19-.23.39-.23s.17.18.16.45c-.02.52-.06,1.37-.06,1.83-.04,4.6.75,8.51,2.24,11.02.14.23.46.28.72.11l1.43-.94c.28-.18.37-.54.19-.77-.65-.88-1.37-2.23-1.89-4.23-.08-.31-.2-.92-.28-1.32-.05-.23.08-.48.3-.61.35-.2.86-.5,1.08-.64.43-.27.77-.51,1.18-.8.23-.16.35-.23.62-.23.02,0,.76.02.76.02l-1.58-1.66c-.18-.19-.5-.18-.72,0-.32.27-.58.47-.82.65-.09.07-.23.16-.37.26-.35.24-.78.05-.8-.34,0-.22-.02-.43-.02-.57,0-.37.02-1.13.04-1.66.01-.31.29-.58.6-.58h2.43c.29,0,.56-.24.6-.53l.12-1c.04-.29-.17-.53-.47-.53h-2.89c-.14,0-.21-.15-.13-.27.33-.5,1.14-1.88,1.19-1.93.09-.13,2.07-1.11,2.07-1.11l-3.54-.04c-.33-.03-.58.06-.71.34-.28.6-.58,1.18-.91,1.74-.14.25-.42.69-.6.98-.11.18-.31.29-.51.29h-2.99c-.57,0-.24-.13,0-.26.24-.12.8-.42.8-.42.28-.15.41-.48.29-.73-.34-.76-.66-1.33-.97-1.84-.13-.21-.41-.28-.65-.16l-1.04.5c-.3.15-.44.51-.29.77.13.23.25.47.38.74.11.25.35.89.46,1.2.03.09-.04.18-.14.18h-2.29c-.29,0-.56.24-.6.53l-.12,1c-.04.29.17.53.47.53h2.78c.5,0,.64.63.22.95-.28.21-.53.39-.66.47-.8.5-1.65.94-2.55,1.32-.3.13-.47.46-.35.74l.44,1.05c.11.25.41.35.68.22.53-.25.99-.5,1.45-.78.24-.15.69-.46,1.03-.69.25-.18.5-.2.57,0,.04.12.07.19.07.19.08.2.01.45-.17.62-.38.34-1.03.92-1.4,1.19-.56.41-1.14.77-1.83,1.14-.1.06-.29.15-.47.24-.32.16-.44.55-.26.81Z"/>
        <path class="cls-1" d="m285.68,48.85h-2.67c-.3,0-.55-.25-.53-.56.03-.62.08-1.57.09-1.91.02-.44.06-.77.09-.97.02-.13.09-.25.19-.35l1.23-.82-3.22-.02c-.29,0-.53.23-.53.53-.01,1.12-.04,2.23-.08,3.08,0,.11-.02.32-.03.52-.02.28-.25.5-.53.5h-4.86c-.29,0-.53.24-.53.53v1.44c0,.29.24.53.53.53h4.6c.31,0,.56.27.53.58l-.07.7c-.33,2.73-1.15,6.15-4.09,9.52-.23.26-.2.64.07.79l1.34.75c.23.13.54.05.72-.18,1.17-1.54,2.93-4.16,3.86-8.48.14-.69.36-2.4.46-3.22.03-.27.26-.47.53-.47h2.9c.29,0,.53-.24.53-.53v-1.44c0-.29-.24-.53-.53-.53Z"/>
      </g>
      <g>
        <path class="cls-1" d="m179.66,80.5h-1.15c-.08,0-.15.06-.17.14l-1.24,6.22c0,.05,0,.1.04.14.03.04.08.06.13.06h1.67c2.15,0,3.54-1.56,3.54-3.97,0-1.65-1.02-2.6-2.81-2.6Zm-.03.95c1.12,0,1.74.6,1.74,1.7,0,1.8-.96,2.97-2.44,2.97h-.6l.93-4.67h.37Z"/>
        <path class="cls-1" d="m186.8,80.5h-.74c-.08,0-.15.06-.17.14l-1.24,6.22c-.01.05,0,.1.04.14.03.04.08.06.13.06h.74c.08,0,.15-.06.17-.14l1.24-6.22c.01-.05,0-.1-.04-.14-.03-.04-.08-.06-.13-.06Z"/>
        <path class="cls-1" d="m191.89,80.39c-1.18,0-2.11.83-2.11,1.9,0,.66.34,1.19,1.04,1.61l.72.43c.5.29.69.54.69.87,0,.6-.47.99-1.16.99-.6,0-1.1-.28-1.46-.8-.03-.04-.07-.07-.12-.07-.05,0-.1,0-.13.03l-.54.41c-.07.06-.09.16-.04.24.52.77,1.29,1.17,2.22,1.17,1.35,0,2.33-.87,2.33-2.08,0-.7-.31-1.2-1.02-1.61l-.72-.43c-.48-.28-.72-.49-.72-.86,0-.41.36-.84.95-.84.45,0,.86.21,1.2.62.03.04.07.06.12.06.06,0,.09-.01.13-.04l.48-.44c.07-.06.08-.16.02-.24-.46-.6-1.15-.95-1.9-.95Z"/>
        <path class="cls-1" d="m199.45,80.39c-2.09,0-3.38,2.14-3.38,4.11,0,1.65.91,2.68,2.38,2.68.68,0,1.3-.25,1.9-.76.07-.06.08-.16.03-.23l-.34-.48s-.07-.07-.12-.07c-.05,0-.1,0-.13.04-.42.36-.79.51-1.21.51-1.16,0-1.41-.96-1.41-1.77,0-1.48.9-3.06,2.24-3.06.37,0,.67.19.9.59.03.04.07.07.12.08.05,0,.1,0,.14-.03l.52-.39c.07-.05.09-.15.05-.23-.39-.65-.98-1.01-1.68-1.01Z"/>
        <path class="cls-1" d="m206.03,80.39c-1.92,0-3.2,2.08-3.2,4.02,0,1.71.89,2.78,2.32,2.78,1.92,0,3.2-2.08,3.2-4.02,0-1.71-.89-2.78-2.32-2.78Zm-.84,5.81c-1.04,0-1.26-1.01-1.26-1.85,0-1.41.85-2.97,2.06-2.97,1.04,0,1.26,1.01,1.26,1.85,0,1.41-.85,2.97-2.06,2.97Z"/>
        <path class="cls-1" d="m215.84,80.5h-.79c-.07,0-.13.04-.16.1l-1.72,3.46c-.24.48-.49,1-.73,1.51-.03-.5-.07-1-.11-1.44l-.26-3.46c0-.09-.08-.16-.17-.16h-.75s-.1.02-.13.06c-.03.04-.05.08-.04.13l.56,6.22c0,.09.08.16.17.16h.88c.06,0,.12-.04.15-.09l3.25-6.22c.03-.05.03-.12,0-.17-.03-.05-.09-.08-.15-.08Z"/>
        <path class="cls-1" d="m222.02,80.5h-3.43c-.08,0-.15.06-.17.14l-1.24,6.22c-.01.05,0,.1.04.14.03.04.08.06.13.06h3.51c.08,0,.15-.06.17-.14l.13-.62c.01-.05,0-.1-.04-.14-.03-.04-.08-.06-.13-.06h-2.57l.41-1.99h2.13c.08,0,.15-.06.17-.14l.13-.62c.01-.05,0-.1-.04-.14-.03-.04-.08-.06-.13-.06h-2.07l.33-1.67h2.56c.08,0,.15-.06.17-.14l.13-.62c.01-.05,0-.1-.04-.14-.03-.04-.08-.06-.13-.06Z"/>
        <path class="cls-1" d="m227.01,80.5h-1.7c-.08,0-.15.06-.17.14l-1.24,6.22c-.01.05,0,.1.04.14.03.04.08.06.13.06h.74c.08,0,.15-.06.17-.14l.5-2.5h.82l.98,2.53c.03.07.09.11.16.11h.79c.06,0,.11-.03.14-.08.03-.05.04-.11.02-.16l-1.02-2.52c1.08-.29,1.76-1.1,1.76-2.19,0-.74-.37-1.62-2.11-1.62Zm-.95.94h.77c1.07,0,1.22.39,1.22.78,0,.8-.61,1.27-1.66,1.27h-.72l.4-2.04Z"/>
        <path class="cls-1" d="m239.7,80.5h-3.43c-.08,0-.15.06-.17.14l-1.24,6.22c-.01.05,0,.1.04.14.03.04.08.06.13.06h3.51c.08,0,.15-.06.17-.14l.13-.62c.01-.05,0-.1-.04-.14-.03-.04-.08-.06-.13-.06h-2.57l.41-1.99h2.13c.08,0,.15-.06.17-.14l.13-.62c.01-.05,0-.1-.04-.14-.03-.04-.08-.06-.13-.06h-2.07l.33-1.67h2.56c.08,0,.15-.06.17-.14l.13-.62c.01-.05,0-.1-.04-.14-.03-.04-.08-.06-.13-.06Z"/>
        <path class="cls-1" d="m245.16,80.39c-2.09,0-3.38,2.14-3.38,4.11,0,1.65.91,2.68,2.38,2.68.68,0,1.3-.25,1.9-.76.07-.06.08-.16.03-.23l-.34-.48s-.07-.07-.12-.07-.1,0-.13.04c-.42.36-.79.51-1.21.51-1.16,0-1.41-.96-1.41-1.77,0-1.48.9-3.06,2.24-3.06.37,0,.67.19.9.59.03.04.07.07.12.08.05,0,.1,0,.14-.03l.52-.39c.07-.05.09-.15.05-.23-.39-.65-.98-1.01-1.68-1.01Z"/>
        <path class="cls-1" d="m254.42,80.5h-.74c-.08,0-.15.06-.17.14l-.5,2.48h-2.45l.49-2.41c.01-.05,0-.1-.04-.14-.03-.04-.08-.06-.13-.06h-.74c-.08,0-.15.06-.17.14l-1.24,6.22c0,.05,0,.1.04.14.03.04.08.06.13.06h.74c.08,0,.15-.06.17-.14l.56-2.81h2.45l-.55,2.74c-.01.05,0,.1.04.14.03.04.08.06.13.06h.74c.08,0,.15-.06.17-.14l1.24-6.22c0-.05,0-.1-.04-.14-.03-.04-.08-.06-.13-.06Z"/>
        <path class="cls-1" d="m258.72,80.5h-.74c-.08,0-.15.06-.17.14l-1.24,6.22c-.01.05,0,.1.04.14.03.04.08.06.13.06h.74c.08,0,.15-.06.17-.14l1.24-6.22c.01-.05,0-.1-.04-.14-.03-.04-.08-.06-.13-.06Z"/>
        <path class="cls-1" d="m265.86,80.5h-3.72c-.08,0-.15.06-.17.14l-.13.62c-.01.05,0,.1.04.14.03.04.08.06.13.06h2.48l-3.81,4.87s-.03.05-.03.07l-.09.44c-.01.05,0,.11.03.15.03.04.08.06.14.06h4.04c.08,0,.15-.06.17-.14l.13-.62c.01-.05,0-.1-.03-.15-.03-.04-.08-.06-.14-.06h-2.78l3.78-4.87s.03-.05.03-.07l.09-.44c.01-.05,0-.1-.03-.15-.03-.04-.08-.06-.14-.06Z"/>
        <path class="cls-1" d="m272.54,80.5h-3.43c-.08,0-.15.06-.17.14l-1.24,6.22c-.01.05,0,.1.04.14.03.04.08.06.13.06h3.51c.08,0,.15-.06.17-.14l.13-.62c.01-.05,0-.1-.04-.14-.03-.04-.08-.06-.13-.06h-2.57l.41-1.99h2.13c.08,0,.15-.06.17-.14l.13-.62c.01-.05,0-.1-.04-.14-.03-.04-.08-.06-.13-.06h-2.07l.33-1.67h2.56c.08,0,.15-.06.17-.14l.13-.62c.01-.05,0-.1-.04-.14-.03-.04-.08-.06-.13-.06Z"/>
        <path class="cls-1" d="m280.07,80.5h-.71c-.08,0-.15.06-.17.14l-.66,3.3c-.08.41-.14.85-.19,1.28l-.19-.62-1.42-3.98c-.02-.07-.09-.12-.16-.12h-.74c-.08,0-.15.06-.17.14l-1.24,6.22c0,.05,0,.1.04.14.03.04.08.06.13.06h.71c.08,0,.15-.06.17-.14l.66-3.34c.08-.41.15-.84.21-1.26l.2.66,1.4,3.97c.02.07.09.12.16.12h.73c.08,0,.15-.06.17-.14l1.24-6.22c.01-.05,0-.1-.04-.14-.03-.04-.08-.06-.13-.06Z"/>
        <path class="cls-1" d="m289.58,80.39c-2.09,0-3.38,2.14-3.38,4.11,0,1.65.91,2.68,2.38,2.68.68,0,1.3-.25,1.9-.76.07-.06.08-.16.03-.23l-.34-.48s-.07-.07-.12-.07c-.05,0-.1,0-.13.04-.42.36-.79.51-1.21.51-1.16,0-1.41-.96-1.41-1.77,0-1.48.9-3.06,2.24-3.06.37,0,.67.19.9.59.03.04.07.07.12.08.05,0,.1,0,.14-.03l.52-.39c.07-.05.09-.15.05-.23-.39-.65-.98-1.01-1.68-1.01Z"/>
        <path class="cls-1" d="m295.77,80.39c-1.92,0-3.2,2.08-3.2,4.02,0,1.71.89,2.78,2.32,2.78,1.92,0,3.2-2.08,3.2-4.02,0-1.71-.89-2.78-2.32-2.78Zm-.84,5.81c-1.04,0-1.26-1.01-1.26-1.85,0-1.41.85-2.97,2.06-2.97,1.04,0,1.26,1.01,1.26,1.85,0,1.41-.85,2.97-2.06,2.97Z"/>
        <path class="cls-1" d="m303.46,80.5h-.85c-.06,0-.12.03-.15.09l-3.38,6.22c-.03.05-.03.12,0,.17.03.05.09.09.15.09h.82c.07,0,.12-.04.16-.09l.87-1.68h2.01l.16,1.62c0,.09.08.16.17.16h.77s.1-.02.13-.06c.03-.04.05-.09.04-.14l-.72-6.22c-.01-.09-.08-.15-.17-.15Zm-.65,1.08c.02.26.19,2.79.19,2.79h-1.45s1.03-2.31,1.26-2.79Z"/>
        <path class="cls-1" d="m309.59,80.39c-1.18,0-2.11.83-2.11,1.9,0,.66.34,1.19,1.04,1.61l.72.43c.5.29.69.54.69.87,0,.6-.47.99-1.16.99-.6,0-1.1-.28-1.46-.8-.03-.04-.07-.07-.12-.07-.05,0-.1,0-.13.03l-.54.41c-.07.06-.09.16-.04.24.52.77,1.29,1.17,2.22,1.17,1.35,0,2.33-.87,2.33-2.08,0-.7-.31-1.2-1.02-1.61l-.72-.43c-.48-.28-.72-.49-.72-.86,0-.41.36-.84.95-.84.45,0,.86.21,1.2.62.03.04.07.06.12.06.05,0,.09-.01.13-.04l.48-.44c.07-.06.08-.16.02-.24-.46-.6-1.15-.95-1.9-.95Z"/>
        <path class="cls-1" d="m318.75,80.57s-.08-.06-.13-.06h-4.35c-.08,0-.15.06-.17.14l-.13.64c0,.05,0,.1.04.14.03.04.08.06.13.06h1.59l-1.07,5.38c0,.05,0,.1.04.14.03.04.08.06.13.06h.74c.08,0,.15-.06.17-.14l1.08-5.44h1.66c.08,0,.15-.06.17-.14l.13-.64c.01-.05,0-.1-.04-.14Z"/>
      </g>
    </g>
  </g>
</svg>