<?xml version="1.0" encoding="UTF-8"?>
<svg id="_レイヤー_2" data-name="レイヤー 2" xmlns="http://www.w3.org/2000/svg" viewBox="0 0 828.03 294.18">
  <defs>
    <style>
      .cls-1 {
        fill: #abdcf6;
      }

      .cls-2 {
        fill: #00b2eb;
      }

      .cls-2, .cls-3 {
        stroke: #36bcee;
        stroke-miterlimit: 10;
        stroke-width: .99px;
      }

      .cls-4 {
        fill: none;
        stroke: #fff;
        stroke-linecap: round;
        stroke-linejoin: round;
        stroke-width: 1.63px;
      }

      .cls-3 {
        fill: #36bcee;
      }

      .cls-5 {
        fill: #0062af;
      }

      .cls-6 {
        fill: #c2da80;
      }
    </style>
  </defs>
  <g id="_施設名とテキスト" data-name="施設名とテキスト">
    <g>
      <polygon class="cls-3" points=".89 293.44 .89 .59 825.2 147.02 .89 293.44"/>
      <polygon class="cls-2" points=".5 293.59 .5 .74 824.81 147.17 .5 293.59"/>
      <polyline class="cls-4" points="15 281.46 771.85 147.02 15 12.58"/>
      <g>
        <path class="cls-4" d="m9.64,11.04c4.14,0,7.49,4.11,7.49,9.18s-3.35,9.18-7.49,9.18"/>
        <path class="cls-4" d="m9.64,29.15c4.14,0,7.49,4.11,7.49,9.18s-3.35,9.18-7.49,9.18"/>
        <path class="cls-4" d="m9.64,47.27c4.14,0,7.49,4.11,7.49,9.18s-3.35,9.18-7.49,9.18"/>
        <path class="cls-4" d="m9.64,65.38c4.14,0,7.49,4.11,7.49,9.18s-3.35,9.18-7.49,9.18"/>
        <path class="cls-4" d="m9.64,83.49c4.14,0,7.49,4.11,7.49,9.18s-3.35,9.18-7.49,9.18"/>
        <path class="cls-4" d="m9.64,101.61c4.14,0,7.49,4.11,7.49,9.18s-3.35,9.18-7.49,9.18"/>
        <path class="cls-4" d="m9.64,119.72c4.14,0,7.49,4.11,7.49,9.18s-3.35,9.18-7.49,9.18"/>
        <path class="cls-4" d="m9.64,137.83c4.14,0,7.49,4.11,7.49,9.18s-3.35,9.18-7.49,9.18"/>
        <path class="cls-4" d="m9.64,155.95c4.14,0,7.49,4.11,7.49,9.18s-3.35,9.18-7.49,9.18"/>
        <path class="cls-4" d="m9.64,174.06c4.14,0,7.49,4.11,7.49,9.18s-3.35,9.18-7.49,9.18"/>
        <path class="cls-4" d="m9.64,192.17c4.14,0,7.49,4.11,7.49,9.18s-3.35,9.18-7.49,9.18"/>
        <path class="cls-4" d="m9.64,210.29c4.14,0,7.49,4.11,7.49,9.18s-3.35,9.18-7.49,9.18"/>
        <path class="cls-4" d="m9.64,228.4c4.14,0,7.49,4.11,7.49,9.18s-3.35,9.18-7.49,9.18"/>
        <path class="cls-4" d="m9.64,246.51c4.14,0,7.49,4.11,7.49,9.18s-3.35,9.18-7.49,9.18"/>
        <path class="cls-4" d="m9.64,264.63c4.14,0,7.49,4.11,7.49,9.18s-3.35,9.18-7.49,9.18"/>
      </g>
      <g>
        <g>
          <path class="cls-1" d="m276.52,151.13v-79.49c6.58,1.15,13.15,2.29,19.73,3.44,0,2.59,0,5.17,0,7.76-3.88-.6-7.77-1.21-11.65-1.81v21.13c2.42.25,4.85.51,7.27.76v7.84c-2.42-.21-4.85-.42-7.27-.62v32.42c3.88.03,7.77.06,11.65.1,0,2.75,0,5.49,0,8.24-6.58.08-13.15.16-19.73.23Z"/>
          <path class="cls-1" d="m329.36,135.43v3.27c0,1.63-.27,3.18-.81,4.63-.54,1.46-1.29,2.76-2.24,3.91-.95,1.15-2.07,2.07-3.34,2.77-1.28.69-2.65,1.05-4.12,1.07-1.26.02-2.53-.17-3.83-.57-1.3-.4-2.47-1.1-3.5-2.14-1.04-1.03-1.89-2.37-2.56-4.02-.67-1.65-1.01-3.76-1.01-6.32,0-16.17,0-32.35,0-48.52,0-1.83.26-3.49.78-4.98.52-1.48,1.25-2.72,2.21-3.71.95-.98,2.09-1.68,3.41-2.1,1.32-.42,2.78-.48,4.38-.2,3.12.55,5.65,2.18,7.59,4.85.95,1.31,1.7,2.78,2.24,4.43.54,1.65.81,3.38.81,5.21v2.97c-2.21-.3-4.41-.59-6.62-.89,0-.86,0-1.71,0-2.57,0-1.51-.37-2.87-1.1-4.09-.74-1.22-1.73-1.93-2.99-2.13-1.65-.26-2.74.18-3.28,1.3-.54,1.13-.81,2.62-.81,4.47,0,15.18,0,30.37,0,45.55,0,1.6.29,2.94.88,4.02.58,1.08,1.63,1.63,3.15,1.64.43,0,.9-.08,1.4-.26.5-.17.96-.46,1.39-.86.39-.4.71-.95.97-1.65.26-.7.39-1.58.39-2.64,0-.88,0-1.76,0-2.64,2.21.06,4.41.13,6.62.19Z"/>
          <path class="cls-1" d="m341.07,150.36c0-22.49,0-44.98,0-67.47,2.21.38,4.41.77,6.62,1.15v24.73c2.73.29,5.45.57,8.18.86v-24.16c2.21.38,4.41.77,6.62,1.15v63.48c-2.21.03-4.41.05-6.62.08v-34.35c-2.73-.24-5.45-.47-8.18-.71v35.16c-2.21.03-4.41.05-6.62.08Z"/>
          <path class="cls-1" d="m376.7,149.94v-60.83c2.69.47,5.39.94,8.08,1.41,0,19.78,0,39.55,0,59.33-2.69.03-5.39.06-8.08.1Z"/>
          <path class="cls-1" d="m396.86,149.7v-5.47c4.15-15.23,8.31-29.84,12.46-43.83-3.94-.61-7.88-1.22-11.81-1.83v-5.83c6.34,1.11,12.68,2.21,19.02,3.32v4.61c-4.24,13.78-8.48,28.19-12.72,43.25,4.24.03,8.48.06,12.72.09v5.47c-6.56.08-13.11.16-19.67.23Z"/>
          <path class="cls-1" d="m428.4,149.32v-51.2c6.58,1.15,13.15,2.29,19.73,3.44v4.86c-4.37-.68-8.74-1.36-13.11-2.04v15.95c2.42.23,4.85.46,7.27.7v4.97c-2.42-.19-4.85-.37-7.27-.56v18.36c4.37.04,8.74.07,13.11.11v5.17c-6.58.08-13.15.16-19.73.23Z"/>
          <path class="cls-1" d="m459.95,148.95c0-15.11,0-30.22,0-45.33,2.12.37,4.24.74,6.36,1.11,3.33,10.86,6.66,21.28,10,31.27.04,0,.09,0,.13,0,0-9.84,0-19.67,0-29.51,2.21.38,4.41.77,6.62,1.15,0,13.67,0,27.35,0,41.02-2.08.02-4.15.05-6.23.07-3.38-7.97-6.75-16.31-10.13-25-.04,1.67-.09,3.34-.13,5.01v20.11c-2.21.03-4.41.05-6.62.08Z"/>
          <path class="cls-1" d="m297.55,203.97v3.55c0,1.77-.27,3.49-.81,5.16-.54,1.67-1.29,3.21-2.24,4.61-.95,1.4-2.07,2.58-3.34,3.54-1.28.96-2.65,1.57-4.12,1.83-1.26.22-2.53.22-3.83,0-1.3-.22-2.47-.8-3.5-1.74-1.04-.95-1.89-2.25-2.56-3.93-.67-1.67-1.01-3.9-1.01-6.67,0-9.73,0-19.46,0-29.19,0-1.98.26-3.83.78-5.56.52-1.72,1.25-3.23,2.21-4.51.95-1.28,2.09-2.3,3.41-3.05,1.32-.75,2.78-1.16,4.38-1.23,3.12-.13,5.65,1.06,7.59,3.5.95,1.2,1.7,2.62,2.24,4.29.54,1.66.81,3.48.81,5.47v3.22c-2.21.18-4.41.37-6.62.55,0-.93,0-1.86,0-2.78,0-1.64-.37-3.03-1.1-4.18-.74-1.15-1.73-1.7-2.99-1.62-1.65.1-2.74.82-3.28,2.16-.54,1.34-.81,3.02-.81,5.02v26.4c0,1.73.29,3.13.88,4.21.58,1.08,1.63,1.5,3.15,1.26.43-.07.9-.23,1.4-.5.5-.27.96-.66,1.39-1.16.39-.5.71-1.15.97-1.95.26-.8.39-1.78.39-2.92,0-.96,0-1.91,0-2.87,2.21-.3,4.41-.59,6.62-.89Z"/>
          <path class="cls-1" d="m322.86,178.43c0-2.16.32-4.1.97-5.8.65-1.7,1.51-3.12,2.6-4.27,1.04-1.1,2.22-1.95,3.54-2.55,1.32-.6,2.65-.93,3.99-.98,1.34-.06,2.67.16,3.99.63,1.32.47,2.52,1.19,3.6,2.14,1.04,1,1.88,2.27,2.53,3.8.65,1.53.97,3.31.97,5.35v23.34c0,2.13-.32,4.01-.97,5.63-.65,1.62-1.49,3.02-2.53,4.2-1.08,1.23-2.28,2.23-3.6,2.99-1.32.76-2.65,1.26-3.99,1.5-1.34.24-2.67.2-3.99-.11-1.32-.31-2.5-.93-3.54-1.86-1.08-.87-1.95-2.05-2.6-3.56-.65-1.5-.97-3.4-.97-5.66v-24.79Zm6.62,23.85c0,1.83.44,3.12,1.33,3.84.89.73,1.94.99,3.15.81,1.21-.19,2.26-.78,3.15-1.76.89-.98,1.33-2.36,1.33-4.15v-23.77c0-1.79-.44-3.07-1.33-3.86-.89-.79-1.94-1.15-3.15-1.08-1.21.07-2.26.57-3.15,1.49-.89.92-1.33,2.3-1.33,4.13,0,8.12,0,16.24,0,24.36Z"/>
          <path class="cls-1" d="m368.24,208c3.23-14.32,6.46-28.24,9.68-41.76.37-1.68,1.78-2.91,3.39-2.98h0c1.62-.07,3.02,1.02,3.39,2.63,3.23,12.91,6.46,25.43,9.68,37.55-2.21.38-4.41.77-6.62,1.15-.65-2.08-1.3-4.18-1.95-6.29-3.01.46-6.01.92-9.02,1.38-.65,2.37-1.3,4.76-1.95,7.16-2.21.38-4.41.77-6.62,1.15Zm16.36-15.58c-1.08-5.3-2.16-10.65-3.25-16.05-.04,0-.09,0-.13.01-1.08,5.59-2.16,11.23-3.25,16.93,2.21-.3,4.41-.59,6.62-.89Z"/>
          <path class="cls-1" d="m439.37,171.53c-2.21.18-4.41.37-6.62.55v-1.24c0-1.25-.36-2.31-1.07-3.18-.71-.87-1.91-1.26-3.6-1.15-.91.06-1.65.25-2.21.58-.56.33-1.02.73-1.36,1.19-.35.5-.58,1.06-.71,1.68-.13.62-.19,1.26-.19,1.93,0,.78.03,1.42.1,1.93.07.51.23.96.49,1.34.26.38.64.7,1.14.94.5.25,1.18.47,2.04.68,1.69.4,3.38.79,5.06,1.17,1.47.31,2.66.73,3.57,1.24.91.52,1.62,1.15,2.14,1.89.48.79,1.23,2.49,1.23,3.85,0,1.57-.19,3.06-.58,4.46-.39,1.41-1.02,2.65-1.88,3.75-.91,1.14-2.1,2.12-3.57,2.94-1.47.83-3.27,1.43-5.39,1.8-1.6.28-3.09.3-4.48.06-1.39-.24-2.58-.71-3.57-1.41-1-.7-1.78-1.58-2.37-2.64-.58-1.06-.88-2.28-.88-3.65v-2.16c2.21-.3,4.41-.59,6.62-.89v1.78c0,1.04.36,1.92,1.07,2.65.71.72,1.92.95,3.6.69,1.12-.17,2-.45,2.63-.81.63-.37,1.11-.83,1.46-1.38.35-.56.55-1.18.62-1.89.07-.71.3-2.42-.55-3.73-.25-.39-.7-.63-1.2-.82-.5-.19-1.16-.38-1.98-.57-1.58-.35-3.16-.71-4.74-1.08-2.86-.67-4.77-1.8-5.74-3.38-.97-1.58-1.46-3.65-1.46-6.19,0-1.52.24-2.97.71-4.37.48-1.39,1.19-2.6,2.14-3.63.91-1.02,2.07-1.85,3.47-2.49,1.41-.64,3.08-.99,5.03-1.07,1.64-.07,3.15.12,4.51.56,1.36.44,2.54,1.04,3.54,1.81,1.99,1.59,2.98,3.44,2.98,5.61v2.62Z"/>
          <path class="cls-1" d="m468.97,190.43v-26.43c-2.55.16-5.11.31-7.66.47,0-1.54,0-3.07,0-4.61,7.31-.31,14.63-.62,21.94-.93v4.19c-2.55.16-5.11.31-7.66.47,0,8.56,0,17.12,0,25.69-2.21.38-4.41.77-6.62,1.15Z"/>
        </g>
        <polygon class="cls-1" points="318.84 151.09 312.69 151.17 317.88 146.49 318.84 151.09"/>
        <polygon class="cls-1" points="312.56 77.42 318.71 78.54 320.28 82.35 314.59 81 312.56 77.42"/>
        <polygon class="cls-1" points="286.91 166.77 280.23 167.06 281.8 172.3 286.91 166.77"/>
        <polygon class="cls-1" points="287.04 222.65 279.67 223.96 282.79 219.09 287.04 222.65"/>
        <polygon class="cls-1" points="333.96 164.83 328.06 165.08 329.23 169.84 335.37 166.77 333.96 164.83"/>
        <polygon class="cls-1" points="333.59 214.47 328.06 215.48 327.53 212.28 331.92 211.36 333.59 214.47"/>
        <polygon class="cls-1" points="381.31 163.26 376.2 163.48 377.48 168.86 381.7 166.9 381.31 163.26"/>
      </g>
      <g>
        <path class="cls-5" d="m269.67,151.22c0-26.94,0-53.87,0-80.81,6.69,1.17,13.37,2.33,20.06,3.5v7.89c-3.95-.61-7.89-1.23-11.84-1.84v21.48c2.46.26,4.93.52,7.39.77v7.97c-2.46-.21-4.93-.42-7.39-.63v32.95c3.95.03,7.89.07,11.84.1v8.38c-6.69.08-13.37.16-20.06.24Z"/>
        <path class="cls-5" d="m335.29,150.43v-68.59c2.24.39,4.49.78,6.73,1.17v25.13c2.77.29,5.54.58,8.31.87v-24.56c2.24.39,4.49.78,6.73,1.17v64.53c-2.24.03-4.49.05-6.73.08v-34.92c-2.77-.24-5.54-.48-8.31-.72v35.74c-2.24.03-4.49.05-6.73.08Z"/>
        <path class="cls-5" d="m371.51,150v-61.84c2.74.48,5.48.96,8.22,1.43v60.31c-2.74.03-5.48.07-8.22.1Z"/>
        <path class="cls-5" d="m392,149.76v-5.57c4.22-15.48,8.45-30.33,12.67-44.55-4-.62-8.01-1.24-12.01-1.86v-5.92c6.44,1.12,12.89,2.25,19.33,3.37v4.69c-4.31,14-8.62,28.66-12.93,43.96,4.31.03,8.62.06,12.93.09v5.56c-6.66.08-13.33.16-19.99.24Z"/>
        <path class="cls-5" d="m424.07,149.38v-52.05c6.69,1.17,13.37,2.33,20.06,3.5v4.94c-4.44-.69-8.89-1.38-13.33-2.07v16.21c2.46.24,4.93.47,7.39.71v5.06c-2.46-.19-4.93-.38-7.39-.57v18.67c4.44.04,8.89.07,13.33.11v5.25c-6.69.08-13.37.16-20.06.24Z"/>
        <path class="cls-5" d="m456.13,149v-46.08c2.16.38,4.31.75,6.47,1.13,3.39,11.04,6.77,21.63,10.16,31.79.04,0,.09,0,.13,0v-30c2.24.39,4.49.78,6.73,1.17v41.7c-2.11.03-4.22.05-6.33.08-3.43-8.11-6.86-16.58-10.29-25.41-.04,1.7-.09,3.39-.13,5.09v20.45c-2.24.03-4.49.05-6.73.08Z"/>
        <path class="cls-5" d="m291.05,204.87c0,1.2,0,2.4,0,3.6,0,1.8-.28,3.55-.82,5.24-.55,1.7-1.31,3.26-2.28,4.69-.97,1.43-2.1,2.62-3.4,3.6-1.3.97-2.69,1.6-4.19,1.86-1.28.22-2.57.23-3.89,0-1.32-.22-2.51-.81-3.56-1.77-1.06-.96-1.92-2.29-2.61-3.99-.68-1.7-1.02-3.96-1.02-6.78,0-9.89,0-19.78,0-29.67,0-2.01.26-3.9.79-5.65.53-1.75,1.28-3.28,2.24-4.59.97-1.3,2.12-2.34,3.46-3.1,1.34-.77,2.83-1.18,4.45-1.25,3.17-.13,5.74,1.07,7.72,3.56.97,1.22,1.73,2.67,2.28,4.36.55,1.69.82,3.54.82,5.56,0,1.09,0,2.18,0,3.27-2.24.19-4.49.37-6.73.56v-2.83c0-1.66-.37-3.08-1.12-4.25-.75-1.17-1.76-1.73-3.03-1.65-1.67.1-2.78.83-3.33,2.2-.55,1.36-.82,3.07-.82,5.1v26.84c0,1.76.3,3.18.89,4.28.59,1.1,1.66,1.52,3.2,1.28.44-.07.91-.24,1.42-.51.5-.27.98-.67,1.42-1.18.4-.51.73-1.17.99-1.98.26-.82.4-1.81.4-2.97v-2.91c2.24-.3,4.49-.6,6.73-.9Z"/>
        <path class="cls-5" d="m362.9,208.96c3.28-14.55,6.56-28.71,9.85-42.45.38-1.71,1.81-2.96,3.45-3.03h0c1.64-.07,3.07,1.04,3.45,2.67,3.28,13.13,6.56,25.85,9.85,38.17-2.24.39-4.49.78-6.73,1.17-.66-2.12-1.32-4.25-1.98-6.4-3.06.47-6.11.94-9.17,1.41-.66,2.41-1.32,4.84-1.98,7.28-2.24.39-4.49.78-6.73,1.17Zm16.63-15.84c-1.1-5.38-2.2-10.82-3.3-16.32-.04,0-.09,0-.13.01-1.1,5.68-2.2,11.42-3.3,17.21,2.24-.3,4.49-.6,6.73-.9Z"/>
        <path class="cls-5" d="m435.22,171.9c-2.24.19-4.49.37-6.73.56v-1.26c0-1.27-.36-2.35-1.09-3.23-.72-.88-1.95-1.28-3.66-1.17-.92.06-1.67.25-2.24.59-.57.34-1.03.74-1.39,1.21-.35.51-.59,1.08-.72,1.71-.13.63-.2,1.28-.2,1.96,0,.79.03,1.45.1,1.97.07.52.23.98.49,1.37.26.39.65.71,1.16.96.5.25,1.2.48,2.08.69,1.72.41,3.43.8,5.15,1.19,1.49.32,2.71.74,3.63,1.26.92.53,1.65,1.17,2.18,1.93.48.8,1.25,2.53,1.25,3.91,0,1.6-.2,3.11-.59,4.54-.4,1.43-1.03,2.7-1.91,3.81-.92,1.15-2.13,2.15-3.63,2.99-1.5.84-3.32,1.45-5.48,1.83-1.63.29-3.15.31-4.55.06-1.41-.24-2.62-.72-3.63-1.43-1.01-.71-1.81-1.6-2.41-2.69-.59-1.08-.89-2.32-.89-3.71v-2.2c2.24-.3,4.49-.6,6.73-.9v1.81c0,1.06.36,1.96,1.09,2.69.73.74,1.95.96,3.66.7,1.14-.18,2.03-.45,2.67-.83.64-.37,1.13-.84,1.48-1.41.35-.56.56-1.2.63-1.92.07-.72.31-2.46-.56-3.79-.26-.39-.72-.64-1.22-.83-.51-.19-1.18-.39-2.01-.58-1.61-.36-3.21-.72-4.82-1.1-2.9-.68-4.85-1.83-5.84-3.43-.99-1.6-1.49-3.71-1.49-6.29,0-1.54.24-3.02.73-4.44.48-1.42,1.21-2.64,2.18-3.69.92-1.04,2.1-1.88,3.53-2.53,1.43-.65,3.13-1,5.11-1.09,1.67-.07,3.2.13,4.59.57,1.38.45,2.58,1.06,3.6,1.83,2.02,1.62,3.03,3.5,3.03,5.7,0,.89,0,1.78,0,2.66Z"/>
        <path class="cls-5" d="m465.3,191.11v-26.87c-2.6.16-5.19.32-7.79.48,0-1.56,0-3.13,0-4.69,7.43-.32,14.87-.63,22.3-.95,0,1.42,0,2.84,0,4.26-2.6.16-5.19.32-7.79.48v26.11c-2.24.39-4.49.78-6.73,1.17Z"/>
        <path class="cls-5" d="m323.38,135.26v3.32c0,1.66-.28,3.23-.82,4.71-.55,1.48-1.31,2.81-2.28,3.98-.97,1.17-2.1,2.11-3.4,2.81-1.3.7-2.7,1.07-4.19,1.09-1.28.02-2.57-.17-3.89-.58-1.32-.4-2.51-1.12-3.56-2.17-1.06-1.05-1.92-2.41-2.61-4.08-.68-1.67-1.02-3.82-1.02-6.43,0-16.44,0-32.88,0-49.33,0-1.86.26-3.55.79-5.06.53-1.51,1.28-2.77,2.24-3.77.97-1,2.12-1.71,3.46-2.13,1.34-.42,2.83-.48,4.45-.2,3.17.56,5.74,2.22,7.72,4.93.97,1.33,1.73,2.83,2.28,4.5.55,1.67.82,3.44.82,5.3v3.02c-2.24-.3-4.49-.6-6.73-.9,0-.87,0-1.74,0-2.61,0-1.54-.37-2.92-1.12-4.16-.75-1.24-1.76-1.97-3.03-2.17-1.67-.26-2.78.18-3.33,1.32-.55,1.14-.82,2.66-.82,4.54v46.3c0,1.62.3,2.99.89,4.09.59,1.1,1.66,1.65,3.2,1.67.44,0,.91-.08,1.42-.26.5-.18.98-.47,1.42-.88.4-.41.73-.97.99-1.68.26-.71.4-1.61.4-2.68,0-.9,0-1.79,0-2.69,2.24.06,4.49.13,6.73.19Z"/>
        <path class="cls-5" d="m316.78,178.91c0-2.2.33-4.17.99-5.9.66-1.72,1.54-3.17,2.64-4.34,1.06-1.12,2.25-1.98,3.6-2.59,1.34-.61,2.69-.94,4.06-1,1.36-.06,2.72.16,4.06.64,1.34.48,2.56,1.21,3.66,2.18,1.06,1.02,1.91,2.3,2.57,3.86.66,1.56.99,3.36.99,5.43v23.73c0,2.17-.33,4.07-.99,5.72-.66,1.65-1.52,3.07-2.57,4.27-1.1,1.25-2.32,2.27-3.66,3.04-1.34.77-2.69,1.28-4.06,1.52-1.36.24-2.72.2-4.06-.12-1.34-.32-2.54-.95-3.6-1.89-1.1-.88-1.98-2.09-2.64-3.62-.66-1.53-.99-3.45-.99-5.76,0-8.4,0-16.8,0-25.2Zm6.73,24.25c0,1.86.45,3.17,1.35,3.91.9.74,1.97,1.01,3.2.82,1.23-.19,2.3-.79,3.2-1.79.9-1,1.35-2.4,1.35-4.22v-24.17c0-1.82-.45-3.12-1.35-3.93-.9-.8-1.97-1.17-3.2-1.1-1.23.08-2.3.58-3.2,1.51-.9.94-1.35,2.34-1.35,4.2v24.76Z"/>
      </g>
      <g>
        <g>
          <path class="cls-1" d="m525.07,163.67c0-2.42,0-4.83,0-7.25,1.81-.05,3-.06,4.81-.11,0-1.63,0-3.26,0-4.89-1.81.03-3,.01-4.81.04,0-1.79,0-3.57,0-5.36,2.22,0,4.96-.1,4.96-.1v-4.87s-2.74.04-4.96.01c0-1.86,0-3.71,0-5.57,1.92.05,3.23.15,5.16.2v-4.93c-1.92-.08-3.23-.2-5.16-.28,0-2.54,0-5.08,0-7.61-1.43-.09-3.47-.14-4.9-.22,0,2.57,0,5.13,0,7.7-2.27-.09-4.53-.19-6.8-.28v5.16c2.27.06,4.53.13,6.8.19,0,1.88,0,3.75,0,5.63-2.62-.03-5.25-.07-7.87-.1v5.12c2.62,0,5.25,0,7.87,0,0,5.07,0,10.13,0,15.2-.15-.1-.3-.2-.46-.3-.96-.62-2.13-1.37-2.79-2.17.4-1.63.8-3.26,1.2-4.89-1.42.03-3.37.06-4.79.09-1.27,5.22-3.15,10.49-4.43,15.81,1.42-.09,3.98-.17,5.4-.26.37-1.55.75-3.09,1.12-4.63,2.89,2.94,8.33,4.5,14.32,4.13,7.6-.47,23.03-1.36,23.03-1.36l2.14-4.72s-17.57.83-25.17,1.19c-2.05.1-3.17-.11-4.68-.55Z"/>
          <path class="cls-1" d="m586.12,139.87c-1.33-.02-2.65-.04-3.98-.06,0,6.02,0,12.05,0,18.07,1.33-.06,2.65-.11,3.98-.17,0-5.95,0-11.9,0-17.85Z"/>
          <path class="cls-1" d="m559.19,166.49c1.35-.08,6.14-.32,7.49-.4,0-2.88,0-5.76,0-8.65,2.61-.09,5.22-.18,7.83-.27v3.99l-8.37,4.49,10.5-.57,1.88-2.04s0-15.53,0-23.3c-5.3-.1-14.04-.25-19.34-.36,0,8.96,0,18.14,0,27.1Zm7.49-22.79c2.61.02,5.22.03,7.83.05,0,.95,0,1.9,0,2.85-2.61,0-5.22.01-7.83.02,0-.97,0-1.95,0-2.92Zm0,6.89c2.61-.04,5.22-.07,7.83-.11v2.81c-2.61.06-5.22.12-7.83.18,0-.96,0-1.92,0-2.88Z"/>
          <path class="cls-1" d="m590.49,160.46l-8.85,4.4,11.06-.61,1.76-1.82s0-15.03,0-22.54c-1.33-.03-2.65-.05-3.98-.08v20.65Z"/>
          <path class="cls-1" d="m589.16,128.73l-4.02-.22-.99,5.58-10.92-.4-1.32-5.87-4.02-.22,1.32,5.94s-6.13-.2-8.88-.3v4.13c12.14.3,24.27.6,36.41.9v-3.69c-3.07-.11-8.58-.34-8.58-.34l.99-5.51Z"/>
          <path class="cls-1" d="m547.99,152.88c2.15-3.73,3.83-7.56,5-11.45.07-.22.2-.67.2-.67l-7.87-.22s2.03,4.34.9,6.71c-.42-2.39-.71-7-.9-10.96,2.58.06,5.17.12,7.75.18,0-1.55,0-3.1,0-4.65l-3.59-.13h0c-1.43-.05-2.86-.11-4.29-.16v-.03c-.04-2.73-.08-5.34-.08-7.79v-.73c-1.38-.08-2.77-.17-4.15-.25v.74c0,3.67,0,6.29.03,7.91-2.46-.09-4.92-.18-7.38-.27v26.79l6.43-3.14-2.24-2.03v-16.61c1.14.03,2.27.05,3.41.08.28,6.47.91,12.52,2.03,15.98l-.82,1.23s-3.15,3.99-4.3,5.12c-.16.16-.33.32-.49.49.87,1.21,1.73,2.42,2.6,3.61.17-.16.33-.32.5-.48,1.6-1.54,3.12-3.35,4.53-5.36,1.3,2.27,2.78,3.92,4.4,4.94.09.05,4.19-5.03,4.19-5.03l-3.41-.19s-1.9-2.44-2.44-3.61Z"/>
          <polygon class="cls-1" points="553.26 130.02 549.22 129.74 547.87 123.34 551.9 123.62 553.26 130.02"/>
          <g>
            <polygon class="cls-1" points="610.17 134.36 604.29 134.13 604.29 137.58 610.17 137.76 610.17 134.36"/>
            <polygon class="cls-1" points="610.17 142.48 604.29 142.4 604.29 145.86 610.17 145.88 610.17 142.48"/>
            <path class="cls-1" d="m604.15,151.72c-.44,3.24-.23,5.27-2.36,8.69l-3.43.6,7.17-.31.12-.2c2.11-3.39,4.11-6.59,4.52-9.85l.03-.24-6.9-.05.85,1.35Z"/>
            <path class="cls-1" d="m633.78,150.05v-3.05h-2.64c.19-1.92.34-3.74.44-5.38l.04-.65-15.69-.29h-.1s-1.08,1.28-1.08,1.28l-.73,5.11h-3.11v3.16h.21c.22.01,1.84.06,2.47.08l-.92,6.61,3.06.05,10.45-.38-.08.42-3.05,3.15.56-.04s2.5-.17,4.21-.26h.08s.06-.06.06-.06c.02-.01,1.41-1.3,1.46-1.45.17-.57.32-1.22.46-1.9l3.22-.12v-3.06l-2.7.08c.12-.8.27-1.92.43-3.26l2.96-.04Zm-16.08-2.99l.45-3.16,2.97.05c-.13,1.03-.27,2.07-.4,3.1h-3.01Zm-.91,6.71l.48-3.5,3.02-.04-.46,3.46-3.05.08Z"/>
            <polygon class="cls-1" points="615.04 140.67 616.33 139.01 631.99 139.4 631.99 136.37 618.16 135.9 619.4 133.79 615.05 133.75 607.28 140.65 615.04 140.67"/>
          </g>
          <g>
            <path class="cls-1" d="m642.36,143.29h-.22s0,.54,0,.54c0,.42.01.9.02,1.41.04,1.7.08,3.81-.29,5.16-.52,1.9-1.22,3.15-2.49,4.44l-.82,1.15s3.7,0,3.71,0c.97-1.26,2.26-3.43,2.62-4.84.36-1.35.36-3.19.36-5.33l17.08.04v-2.36l-19.97-.21Z"/>
            <path class="cls-1" d="m652.16,141.99c2.72.03,5.45.06,8.75.1h.22s0-5.2,0-5.2l-3.19-.11v2.85c-.82-.02-1.41-.04-2-.06-.62-.02-1.23-.04-2.09-.06v-3.24l-3.19-.11v3.28c-1.71-.03-2.56,0-4.27-.04v-2.93l-3.19-.11v5.51h.21c3.3.05,6.02.08,8.75.11Z"/>
            <path class="cls-1" d="m647.26,147.31h-.62v2.52l5.25.02v2.11c-2.25.04-5.51.02-5.54.02h-.22s0,2.51,0,2.51l5.76-.08v3.53l3.14-.13v-3.48c2.44-.06,5.5-.03,5.53-.03h.22s0-2.36,0-2.36h-.21s-3.1-.08-5.57-.04v-2.03l5.78.02v-2.38h-.21c-.08,0-7.76-.2-13.31-.2Z"/>
          </g>
        </g>
        <polygon class="cls-1" points="530.44 157.98 533.61 157.89 536.28 156.06 532.19 155.29 530.44 157.98"/>
        <polygon class="cls-1" points="537.11 162.75 540.23 162.62 540.23 160.2 538.67 159.64 537.11 162.75"/>
        <polygon class="cls-1" points="549.66 161.71 546.62 161.83 546.88 159.64 549.03 159.64 549.66 161.71"/>
      </g>
      <g>
        <path class="cls-5" d="m521.34,163.81c0-2.44,0-4.87,0-7.31,1.82-.05,3.03-.06,4.85-.11,0-1.64,0-3.28,0-4.93-1.82.03-3.03.01-4.85.04,0-1.8,0-3.6,0-5.4,2.24,0,5-.1,5-.1v-4.91s-2.76.04-5,.01c0-1.87,0-3.74,0-5.61,1.94.05,3.26.15,5.2.2v-4.97c-1.94-.08-3.26-.2-5.2-.28,0-2.56,0-5.12,0-7.67-1.44-.09-3.5-.14-4.94-.23,0,2.59,0,5.17,0,7.76-2.29-.09-4.57-.19-6.85-.28v5.2c2.29.06,4.57.13,6.85.19,0,1.89,0,3.78,0,5.67-2.64-.04-5.29-.07-7.93-.11v5.16c2.64,0,5.29,0,7.93,0,0,5.11,0,10.21,0,15.32-.15-.1-.31-.2-.47-.3-.97-.62-2.15-1.39-2.81-2.19.4-1.65.81-3.29,1.21-4.93-1.43.03-3.4.06-4.83.09-1.28,5.26-3.18,10.57-4.46,15.93,1.43-.09,4.01-.17,5.44-.26.38-1.56.76-3.11,1.13-4.67,2.91,2.96,8.4,4.54,14.44,4.16,7.66-.47,23.21-1.37,23.21-1.37l2.16-4.76s-17.71.83-25.37,1.2c-2.06.1-3.19-.11-4.72-.56Z"/>
        <path class="cls-5" d="m582.87,139.82c-1.34-.02-2.67-.04-4.01-.06,0,6.07,0,12.14,0,18.21,1.34-.06,2.67-.11,4.01-.17,0-6,0-11.99,0-17.99Z"/>
        <path class="cls-5" d="m559.19,166.49c1.36-.08,2.73-.16,4.09-.25,0-2.9,0-5.81,0-8.71,2.63-.09,5.26-.18,7.89-.27v4.03l-5.03,4.37,7.18-.42,1.9-2.05s0-15.66,0-23.49c-5.34-.1-10.69-.2-16.03-.3,0,9.03,0,18.07,0,27.1Zm4.09-22.81c2.63.02,5.26.03,7.89.05,0,.96,0,1.92,0,2.88-2.63,0-5.26.01-7.89.02,0-.98,0-1.96,0-2.94Zm0,6.95c2.63-.04,5.26-.07,7.89-.11v2.83c-2.63.06-5.26.12-7.89.18,0-.97,0-1.93,0-2.9Z"/>
        <path class="cls-5" d="m587.28,160.57l-5.63,4.29,7.87-.47,1.78-1.84s0-15.14,0-22.72c-1.34-.03-2.67-.05-4.01-.08v20.81Z"/>
        <path class="cls-5" d="m585.94,128.59l-4.05-.22-1,5.63-11.01-.41-1.33-5.92-4.05-.22,1.33,5.99s-6.18-.2-8.95-.31v4.16c12.23.3,24.46.61,36.69.91v-3.72c-3.09-.11-8.65-.34-8.65-.34l1-5.55Z"/>
        <path class="cls-5" d="m544.44,152.93c2.17-3.76,3.86-7.62,5.04-11.54.07-.23.21-.68.21-.68l-4.36-.17s-1.53,4.33-2.67,6.72c-.42-2.41-.72-7.06-.91-11.05,2.6.06,5.21.12,7.81.19,0-1.56,0-3.13,0-4.69l-3.62-.13h0c-1.44-.05-2.88-.11-4.32-.16v-.03c-.04-2.76-.08-5.38-.08-7.85v-.74c-1.39-.08-2.79-.17-4.18-.25v.74c0,3.7,0,6.34.03,7.97-2.48-.09-4.96-.18-7.44-.27v27l6.48-3.16-2.26-2.05v-16.74c1.14.03,2.29.05,3.43.08.28,6.52.92,12.62,2.04,16.1l-.83,1.24s-3.17,4.02-4.33,5.16c-.17.16-.33.33-.5.49.87,1.22,1.75,2.44,2.62,3.64.17-.16.34-.33.5-.49,1.61-1.56,3.14-3.37,4.57-5.41,1.31,2.28,2.8,3.95,4.43,4.98.09.06,4.22-5.07,4.22-5.07l-3.44-.19s-1.92-2.46-2.46-3.63Z"/>
        <polygon class="cls-5" points="549.75 129.89 545.68 129.6 544.31 123.16 548.38 123.44 549.75 129.89"/>
        <g>
          <polygon class="cls-5" points="607.11 134.27 601.18 134.03 601.18 137.51 607.11 137.69 607.11 134.27"/>
          <polygon class="cls-5" points="607.11 142.45 601.18 142.37 601.18 145.85 607.11 145.88 607.11 142.45"/>
          <path class="cls-5" d="m603.27,150.56c-.44,3.26-2.46,6.52-4.61,9.96l-.3.49,4.07-.2.12-.2c2.13-3.42,4.14-6.64,4.55-9.93l.03-.24-3.84-.08-.03.19Z"/>
          <path class="cls-5" d="m630.9,150.08v-3.07h-2.66c.19-1.94.34-3.77.44-5.43l.04-.65-15.82-.29h-.1s-1.09,1.29-1.09,1.29l-.73,5.15h-3.13v3.18h.21c.22.01,1.85.06,2.49.08l-.92,6.66,3.09.05,10.53-.39-.08.42-3.07,3.17.56-.04s2.52-.17,4.25-.26h.08s.06-.06.06-.06c.02-.01,1.42-1.31,1.47-1.46.17-.57.33-1.23.46-1.92l3.24-.12v-3.08l-2.72.08c.12-.81.28-1.93.44-3.29l2.99-.04Zm-16.21-3.01l.45-3.18,2.99.05c-.13,1.04-.27,2.09-.41,3.13h-3.04Zm-.92,6.77l.49-3.53,3.05-.04-.46,3.49-3.07.08Zm6.72-.18l.44-3.43,3.27-.04-.23,1.85c-.08.61-.14,1.13-.2,1.54l-3.27.09Zm4.37-9.66c-.11,1.25-.21,2.27-.29,3.04h-3.22c.13-1.02.27-2.04.4-3.07l3.11.03Z"/>
          <polygon class="cls-5" points="612.02 140.62 613.32 138.96 629.1 139.34 629.1 136.29 615.16 135.82 616.41 133.69 612.03 133.65 607.28 140.65 612.02 140.62"/>
        </g>
        <g>
          <path class="cls-5" d="m639.55,143.26h-.22s0,.54,0,.54c0,.43.01.9.02,1.42.04,1.71.08,3.84-.3,5.2-.53,1.92-1.23,3.17-2.51,4.47l-.83,1.15s3.73,0,3.74,0c.98-1.27,2.27-3.46,2.64-4.88.36-1.36.36-3.22.36-5.37l17.21.04v-2.38l-20.13-.21Z"/>
          <path class="cls-5" d="m649.43,141.95c2.75.03,5.49.06,8.82.1h.22s0-5.24,0-5.24l-3.21-.11v2.87c-.82-.02-1.42-.04-2.02-.06-.62-.02-1.24-.04-2.11-.06v-3.27l-3.21-.11v3.31c-1.72-.03-2.58,0-4.3-.04v-2.95l-3.22-.11v5.55h.21c3.32.05,6.07.08,8.82.11Z"/>
          <path class="cls-5" d="m644.5,147.32h-.63v2.54l5.29.02v2.12c-2.27.04-5.55.02-5.58.02h-.22s0,2.53,0,2.53l5.8-.08v3.56l3.16-.13v-3.51c2.46-.06,5.55-.03,5.58-.03h.22s0-2.38,0-2.38h-.21s-3.13-.08-5.61-.04v-2.05l5.82.02v-2.4h-.21c-.08,0-7.83-.2-13.41-.2Z"/>
        </g>
      </g>
      <g>
        <path class="cls-1" d="m65.58,163.67c2.1-.44,3.46-2.43,3.04-4.45-.42-2.02-2.46-3.3-4.56-2.86-2.1.44-3.46,2.43-3.04,4.45s2.46,3.3,4.56,2.86Z"/>
        <path class="cls-1" d="m202.85,148.58c2.79-.06,5.03-2.29,5.02-4.98-.02-2.69-2.29-4.82-5.08-4.76-2.79.06-5.03,2.29-5.01,4.98.02,2.69,2.29,4.82,5.08,4.76Z"/>
        <path class="cls-1" d="m220.86,208.72c-2.79.06-5.03,2.29-5.02,4.98.02,2.69,2.29,4.82,5.08,4.76,2.79-.06,5.03-2.29,5.02-4.98-.02-2.69-2.29-4.82-5.08-4.76Z"/>
        <path class="cls-1" d="m216.41,152.5c1.98-.04,3.58-1.63,3.56-3.54-.01-1.91-1.63-3.43-3.61-3.38-1.98.04-3.58,1.63-3.56,3.54.01,1.91,1.63,3.43,3.61,3.38Z"/>
        <path class="cls-1" d="m43.04,173.61c2.45-.05,4.42-2.01,4.41-4.38-.02-2.36-2.02-4.24-4.47-4.18-2.45.05-4.42,2.01-4.41,4.38.02,2.36,2.02,4.24,4.47,4.18Z"/>
        <path class="cls-1" d="m243.1,155.22c-1.02-1.24-2.28-1.74-3.84-2.07-2.83-.6-5.87-.22-8.44,1.12-2.42,1.26-4.35,3.54-5.44,6.05-.96,2.2-1.83,3.99-3.83,5.4-2.67,1.88-5.68,1.35-8.71,1.9-7.75,1.42-13.69,5.78-16.83,12.96-2.96,6.78-5.08,14.17-9.71,20.08-4.86,6.18-12.66,9.84-20.26,11.38-5.57,1.13-13.41.87-16.72-4.15-1.33-2.02-1.97-4.4-2.29-6.79-1.18-8.77,1.36-19.04,9.61-23.89,5.75-3.38,14.3-3.56,16.51,3.6.41,1.33.78,3.27.43,4.7-2.33-3.13-6.44-4.81-10.64-3.93-5.7,1.19-9.39,6.59-8.24,12.07.99,4.74,5.53,8.22,10.58,7.99,9.45-.44,14.84-9.75,14.88-18.42.02-4.61-1.87-8.19-5.33-10.51-3.75-2.52-8.01-3-11.72-2.71.92-4.68,3.82-12.7,6.21-16.31,1.59-2.4,3.87-4.58,6.77-5.2,2.37-.5,6.51-.08,7.31,2.69.13.46.15.94.13,1.42-1.18-.42-2.49-.54-3.82-.27-2.29.48-4.6,2.27-5.34,4.53-1.63,4.95,3.25,9.5,8.06,8.49,4.1-.86,6.81-5.8,7.72-9.41,1.49-5.92-1.31-11.56-7.48-13.19-9.3-2.46-18.88,4.86-21.49,13.23-1.12,3.59-1.63,7.36-3.21,10.79-4.54,9.85-23.41,18.97-32.06,9.04-4.6-5.28-6.23-13.53-3.64-20.11,1.13-2.87,3.19-5.43,6.2-6.63,1.61-.64,3.36-.82,5.07-.7.46.03,1.26.28,2.13.58-6.15,1.28-10.14,7.12-8.91,13.03,1.21,5.81,7.2,9.68,13.37,8.39,4.17-.87,7.29-3.84,8.52-7.5.97-2.01,1.41-4.22,1.15-6.46-.99-8.34-7.88-14.69-16.5-15.4-11.71-.96-20.94,7.48-23.5,17.92-1.74,7.09-1.56,14.42-.84,21.59.71,7.11,3.15,14.39.99,21.48-2.62,8.59-9.2,15.74-18.56,16.32-7.89.49-19.31-3.68-22.91-11.3-1.37-2.9-1.72-7.5.32-10.28.36-.5.72-.97,1.03-1.32,2.21-2.62,5.33-2.92,5.33-2.92-.53,1.85-.16,4.69.26,6.69,1.41,6.77,8.26,11.07,15.3,9.6,7.94-1.66,11.14-9.54,9.49-16.59-3.94-16.83-27.94-11.39-36.37-1.66-4.12,4.76-7.04,13.2-2.91,18.63-13.51-2.52-17.84-17.45-17.84-17.45,1.09,2.83,4.17,4.53,7.35,3.86,1.52-.32,2.92-1.17,3.88-2.39,1.63-2.09,2.18-5.82.37-7.94-3.74-4.38-11.59-2.81-15,1.18-4.07,4.75-3.09,11.99-.76,17.29,1.26,2.86,3.06,5.45,5.05,7.84,9.38,11.26,24.93,20.11,38.85,24.32,17.68,5.34,37.01-2.92,47.08-18.11-.24.37,5.87,5.63,6.38,6.07,6.44,5.67,15.58,6.13,23.71,5.27,10.37-1.09,21.54-4.05,29.98-10.44,5.88-4.45,10.39-9.91,12.79-16.9,2.36-6.85,2.98-14.28,5.97-20.88.87-1.91,1.95-3.77,3.49-5.19,3.2-2.95,8.97-3.53,12.43-.71,2.52,2.05,3.43,6.04,1.59,8.72-1.85-3.08-5.67-4.85-9.22-4.28-4.9.79-8.86,5.98-7.02,10.87,6.63,13.42,33.46,1.83,24.58-13.44-1.89-3.26-6.87-5.84-6.24-10.01.64-4.2,2.45-8.6,6.32-10.2,2.13-.88,6.24-1.02,6.76,1.97.06.34.03.68-.02,1.01-1.94-.93-4.47-.44-5.98,1.1-.8.82-1.28,1.96-1.23,3.1.03.52.16,1.04.37,1.53.89,2.14,2.78,3.42,5.08,3.2,1.66-.16,3.56-.93,4.44-2.4,1.2-2.01,1.51-4.61.95-6.88-.36-1.46-.99-2.9-1.95-4.07Z"/>
      </g>
      <g>
        <path class="cls-6" d="m60.87,80.29c1.29.48,2.61.82,4.02.91,9.23.55,18.56-.25,27.68-1.82.28.6.15,1.34-.19,1.9s-.87.98-1.41,1.33c-1.28.83-2.73,1.4-4.22,1.64-2.73.45-5.45.33-8.18.66-1.15.14-8.65.23-9.13.95-2.05,3.1-4.8,7.37-7.66,11.83,2.23.18,4.43.82,6.63.83,2.85.01,5.85-.66,8.57-1.48-.05,1.77-1.26,3.33-2.75,4.21-2.4,1.41-4.76,1.14-7.36,1-.77-.04-7.44-.89-7.65-.49-2.15,4.05-12.35,23.77-14.09,26.04-.23.42-.67.17-1.23-.49-1.51-1.77-2.47-4.11-1.34-6.83,2.94-5.22,6-10.36,9.03-15.52,2.18-3.72,4.38-7.44,6.58-11.14.98-1.65,5.73-7.48,4.27-9.29-.37-.46-.9-.74-1.41-1.01-1.04-.56-2.37-.41-3.15-1.41-.55-.7-.73-1.65-.64-2.54.02-.19.06-.39.2-.51.23-.19.56-.06.82.07.86.43,1.72.83,2.6,1.16Z"/>
        <path class="cls-6" d="m71.09,123.66c-4.17-.81-4.28-4.71-2.99-7.81,1.29-3.14,4.28-7.66,8.1-12.13.47-.54,1.06-.47,1.53,0,1.29,1.69,1,4-1.12,6.84-2.17,2.91-3.35,4.84-4.58,7.15-1.23,2.35-1.06,4.21.29,4.46,2.29.39,5.52-3,8.69-7.51,3.7-5.3,5.4-9.01,7.28-11.39.59-.78,1-.93,1.47-.48.88.8,1.35,2.97-.06,5.71-1.29,2.47-4.23,6.58-5.58,9.24-1.53,2.98-1.29,5.12.82,4.88,2.47-.27,5.46-4,7.75-7.94.29-.51.82-.65,1.06-.23.24.37.29,1.73-.53,3.3-1.7,3.14-5.34,6.27-8.8,6.49-3.82.23-5.34-1.93-4.87-4.86-2.05,2.4-5.17,4.91-8.45,4.3Z"/>
        <path class="cls-6" d="m107.66,98.34c2.23-1.31,3.64-1,4.81.76,1.12,1.62.94,3.82-1.23,6.35-2,2.3-4.46,4.54-8.16,6.46.24,4.11,1.88,6.6,4.11,6.16,2.41-.48,5.63-5.43,7.4-9.18.35-.73.88-.96,1.17-.45.29.51.18,1.77-.71,3.34-1.41,2.6-4.11,6.79-8.75,8.06-4.11,1.12-7.57-1.04-7.45-7.94,0-.92.12-1.09,1.23-1.65,7.28-3.82,11.15-9.63,10.27-10.64-.65-.72-3.23.65-6.34,3.55-4.4,4.04-7.04,9.11-11.56,19.22-.18.43-.65.61-1.06.26-.88-.74-1.17-2.33-.06-5.59,1.64-4.74,11.39-23.44,16.61-31.28.53-.76,1.11-.99,1.47-.49.88,1.25.76,3.34-1.7,7.78-1.41,2.5-3.7,6.7-5.28,9.58,1.88-2.05,3.7-3.42,5.22-4.32Z"/>
        <path class="cls-6" d="m116.34,116.79c-4.17,1.15-4.28-2.61-2.99-6.38,1.29-3.78,4.29-9.76,8.1-15.79.47-.73,1.06-.9,1.53-.61,1.29,1.2,1,3.6-1.12,7.28-2.17,3.79-3.35,6.24-4.58,9.11-1.23,2.92-1.06,4.69.29,4.33,2.29-.64,5.52-5.38,8.69-11.01,3.7-6.6,5.4-10.78,7.28-13.7.59-.94,1-1.2,1.47-.88.88.57,1.35,2.63-.06,5.72-1.29,2.8-4.23,7.76-5.58,10.88-1.53,3.49-1.29,5.54.82,4.62,2.46-1.05,5.46-5.59,7.75-10.05.29-.57.82-.83,1.06-.47.23.32.29,1.67-.53,3.41-1.7,3.52-5.34,7.55-8.8,8.89-3.82,1.47-5.34-.05-4.87-3.18-2.05,3.16-5.17,6.91-8.45,7.83Z"/>
        <path class="cls-6" d="m137.12,101.64c1.47-4.29,5.34-11.82,7.51-15.3.53-.81.94-1.13,1.41-.85.88.48,1.35,2.49-.06,5.57-1.23,2.71-3.7,7.13-4.93,10.15-1.41,3.5-1.29,5.44.59,4.61,2.64-1.14,5.87-5.73,7.63-9.9.29-.57.7-.67.94-.35.47.64.29,1.77-.41,3.31-1.76,3.81-5.46,7.36-8.75,8.65-4.46,1.75-5.58-1.07-3.93-5.89Zm14.6-19.9c-.76.99-2.41,1.46-3.29.48-.94-1.02-.65-2.66.29-3.88.94-1.22,2.64-1.25,3.4-.16.76,1.04.35,2.56-.41,3.56Z"/>
        <path class="cls-6" d="m185.72,93.13c1.47,3.24-2.29,7.46-4.75,9.41-4.17,3.26-9.1,4.39-12.27,3.8-2.64-.5-4.93-2.94-5.05-7.07-.23-10.77,10.21-23.14,16.79-26.3,3.17-1.61,6.05-2.13,7.92-.85,1.29.86,2.64,2.27,3.11,3.52.53,1.45.35,2.88-.53,4.5-.88,1.62-1.7,3.66-2.35,5.19-.18.42-.59.76-1.29.42-1.35-.64-2.29-2.09-1.41-4.74.94-2.81,3.05-5.89,1.7-6.99-1.64-1.5-10.57,3.91-15.85,12.96-5.17,8.78-4.58,16.19-1.7,17.43,3.76,1.62,9.98-3.12,14.44-11.23.29-.6.94-.68,1.23-.05Z"/>
        <path class="cls-6" d="m188.95,96.54c1.47-3.85,5.34-10,7.51-12.56.53-.6.94-.74,1.41-.26.88.86,1.35,3.07-.06,5.54-1.23,2.17-3.7,5.61-4.93,8.2-1.41,3-1.29,4.97.59,4.82,2.64-.16,5.87-3.36,7.63-6.69.29-.43.7-.34.94.09.47.87.29,1.91-.41,3.11-1.76,2.96-5.46,4.87-8.75,4.97-4.46.15-5.58-2.9-3.93-7.23Zm13.09-14.68c-.76.63-2.41.33-3.29-1.03-.94-1.42-.65-2.94.29-3.75.94-.82,2.64-.05,3.4,1.41.76,1.41.35,2.73-.41,3.36Z"/>
        <path class="cls-6" d="m204.15,82.51c-.59-.79-.24-1.11.65-.92,1.64.3,3.29.51,4.87.72,1.82-2.38,3.46-4.3,4.46-5.11.53-.5,1.12-.26,1.41.45.65,1.65.65,3.31-.76,5.5,2.29.7,3.17,1.98,3.64,2.82.41.77.18,1.03-.7.7-1.29-.64-3.11-1.1-4.58-1.32-2.29,2.72-5.64,6.92-7.87,10.87-1.94,3.44-1.29,6.65,1.17,7.17,2.64.55,5.99-2.22,8.16-5.32.35-.5,1-.39,1.23.41.29.92,0,1.73-.59,2.7-.76,1.22-4.64,4.42-9.33,3.5-3.87-.74-6.99-4.65-4.17-10.28,1.23-2.42,3.7-6.4,6.22-9.9-2-.4-3.35-1.35-3.82-1.97Z"/>
        <path class="cls-6" d="m224.57,114.34c-3.29,5.13-7.46,11.53-12.33,11.82-1.12.05-2.23-.23-3.35-1.89-1.17-1.78-2.35-3.77-1.17-6.55,1.76-4.23,6.75-6.25,12.56-5.74.59-.92,1.17-1.93,1.82-2.86-1.82.79-4.05,1.19-6.4.24-4.23-1.66-4.34-5.29-2.99-8.31,1.29-2.88,4.17-7.09,7.98-10.02.47-.36,1.06-.04,1.47.66,1.41,2.3,1.06,4.24-1.12,6.26-2.11,2.03-3.4,3.64-4.52,5.63-1.17,2.09-1.06,3.9.29,4.48,2.29.97,5.22-1.06,8.22-3.92,2.52-2.45,5.05-5.49,7.1-6.69.53-.3.94-.12,1.47.66.82,1.5,1.29,4.03-.24,5.53-1.76,1.68-5.34,5.51-7.81,9.17,4.23.29,8.7.15,12.55-1.8,4.09-2.07,7.56-5.19,11.33-7.79.36-.25.87-.48,1.18-.17.15.15.19.37.21.58.18,2.2-1.28,3.42-2.73,4.64-1.66,1.4-3.32,2.74-5.18,3.84-3.67,2.17-7.9,3.56-12.16,3.14-2.08-.2-4.13-.62-6.19-.93Zm-14.5,8.46c.76,1.11,5.58-3.17,9.22-9.11-7.63.87-10.27,7.71-9.22,9.11Z"/>
      </g>
    </g>
  </g>
</svg>