<?xml version="1.0" encoding="UTF-8"?>
<svg id="_レイヤー_2" data-name="レイヤー 2" xmlns="http://www.w3.org/2000/svg" viewBox="0 0 167.78 167.78">
  <defs>
    <style>
      .cls-1 {
        stroke-width: 2px;
      }

      .cls-1, .cls-2 {
        fill: none;
        stroke: #0062af;
        stroke-miterlimit: 10;
      }

      .cls-3 {
        fill: #0062af;
      }

      .cls-2 {
        stroke-width: 4.03px;
      }

      .cls-4 {
        fill: #0062b1;
      }
    </style>
  </defs>
  <g id="_施設名とテキスト" data-name="施設名とテキスト">
    <g>
      <g>
        <path class="cls-3" d="m64.09,86.7c-.04.07-.01.13.03.18.06.08.13.18.07.28-.07.11-.19.08-.33.09-.27,0-.4.22-.99,1.08l-1.92,2.82c-.35.52-.66,1.05-1.01,1.57-.27.4-.46.37-.86.09-.43-.29-.48-.47-.23-.84.35-.52.74-1.02,1.08-1.53l2-2.93c.05-.08.09-.19-.02-.26-.04-.03-.1-.03-.14-.02-.26.04-1.15.19-1.33.07-.2-.14-.31-.86-.19-1.04.1-.15.36-.16.53-.17,1.64-.17,3.71-.69,5.15-1.5.08-.04.22-.12.31-.06.08.05.5.79.57.94.06.08.15.26.09.35-.05.08-.18.06-.26.02-.15-.06-.2-.08-.49.06-.65.3-1.3.54-1.98.76-.02,0-.05.02-.07.05Zm9,2.85c.05-.07.15-.19.19-.24l.05-.08c.17-.25.15-.42-.11-.6l-8.02-5.46c-.27-.18-.45-.15-.62.11l-.3.44c-.09.13-.21.36-.31.51-.17.25-.37.14-.74-.11-.4-.27-.54-.39-.36-.65.11-.16.24-.3.35-.46l.42-.61c.16-.24.31-.49.42-.65.33-.48.7-.34,1.31.08.32.22.7.52,1.17.83l2.44,1.66c.24.16.41.14.6-.11.18-.27.34-.55.48-.82.03-.04.05-.1.08-.14.1-.15.24-.09.36-.01.19.13.79.64.98.8.08.08.19.18.11.29-.06.09-.15.07-.31.08-.23,0-.34.16-.62.57-.14.26-.09.42.15.59l2.41,1.64c.41.28.8.51,1.12.73.45.31.76.58.76.83.02.15-.06.31-.17.49-.12.17-.27.34-.42.55l-.09.13c-.15.23-.27.48-.34.59-.09.13-.2.2-.36.15-.27-.09-.42-.09-.59.15-.25.34-.33.49-.63.29-.51-.35-.99-.72-1.5-1.06l-.37-.25c-.28-.19-.43-.2-.74-.03-.24.13-.49.27-.76.4-.04.03-.07.05-.11.1-.09.13-.01.25.1.34l1.38.94c.27.18.54.35.81.53.4.27.49.51.21.92-.21.31-.43.6-.63.9l-2.41,3.54c-.22.32-.43.66-.65.98-.21.31-.34.24-.76-.05-.37-.25-.55-.37-.34-.68.04-.07.1-.12.15-.19.1-.18.08-.32-.09-.43l-3.16-2.15c-.17-.12-.32-.1-.44.07l-.11.16c-.21.31-.38.19-.75-.07-.41-.28-.54-.38-.33-.69.23-.33.47-.63.69-.95l2.39-3.5c.2-.29.39-.59.59-.9.27-.4.52-.45.92-.17.23.15.45.31.66.47.29.18.44.22.75.08.28-.12.53-.26.78-.4.04-.03.08-.06.11-.1.1-.15,0-.27-.1-.36l-.53-.36c-.49-.34-1.02-.65-1.52-1-.29-.2-.19-.35.03-.68.25-.36.34-.51.64-.31.51.35.98.73,1.48,1.07l2.76,1.88c.29.2.59.39.88.58.26.14.4.08.58-.13Zm-8.86,3.87c-.13.24-.09.42.11.6l2.98,2.03c.24.16.43.12.62-.1l.48-.71c.13-.25.09-.42-.12-.61l-3-2.04c-.25-.13-.42-.09-.6.11l-.48.71Zm4.69.29c.26.14.44.1.62-.1l.41-.6c.13-.25.09-.42-.12-.61l-3-2.04c-.25-.13-.42-.09-.6.11l-.41.6c-.13.24-.09.42.11.6l2.98,2.03Z"/>
        <path class="cls-3" d="m79.69,99.81c-.23.33-4.29,2.01-4.92,2.22-.11.04-.29.11-.36.22-.04.05-.08.14-.14.24s-.17.16-.27.09c-.12-.08-.26-.65-.3-.81-.04-.17-.18-.53-.09-.67.06-.09.26-.13.36-.16,1.66-.47,3.64-1.36,5.15-2.18.09-.05.21-.11.3-.05.16.11.45.85.28,1.11Zm8.74-4.42c.12.08.53.65.63.82.12.18.29.4.2.53-.06.09-.17.06-.26.02-.12-.05-.21-.06-.34-.02-.47.29-.93.56-1.41.81-.04.03-.07.05-.11.1-.09.13-.02.26.1.34l1.83,1.24c.31.21.61.39.9.59.47.32.52.59.2,1.05-.26.39-.54.76-.8,1.15l-4.15,6.09c-.3.44-.6.9-.89,1.34-.25.37-.4.27-.81,0-.41-.28-.57-.39-.33-.75.05-.08.12-.15.18-.23.12-.21.08-.37-.12-.51l-3.88-2.64c-.21-.15-.37-.12-.53.09-.04.09-.09.16-.14.24-.25.36-.41.25-.82-.03-.37-.25-.56-.38-.32-.74.3-.44.63-.87.94-1.33l4.15-6.09c.25-.37.47-.75.73-1.12.48-.71.77-.53,1.42-.03.13.09.27.2.44.32l.09.06c.28.19.42.21.74.06.7-.36,1.38-.82,2.03-1.27.08-.06.2-.18.32-.09Zm-8.97,1.75c-.11-.07-.13-.18-.16-.31-.19-.64-.55-1.56-.82-2.18-.07-.16-.15-.32-.07-.44.14-.21.88-.46,1.1-.3.17.12.6,1.19.67,1.45.14.51.53,1.28.38,1.51-.11.16-.84.44-1.1.27Zm2.57,4.35c-.26-.14-.44-.1-.63.12l-1.43,2.1c-.13.24-.1.44.12.63l3.81,2.59c.25.13.46.1.61-.13l1.43-2.1c.16-.24.1-.44-.11-.62l-3.81-2.59Zm.2-6.73c-.09-.06-.16-.28-.19-.4-.23-.69-.48-1.36-.77-2.02-.06-.12-.15-.3-.06-.43.14-.2.85-.42,1.06-.27.13.09.42.81.58,1.21.11.27.58,1.47.45,1.65s-.83.42-1.07.26Zm4.3,8.31c.25.13.45.11.61-.13l1.38-2.02c.16-.24.1-.44-.11-.62l-3.81-2.59c-.26-.14-.44-.1-.63.12l-1.38,2.02c-.14.26-.1.44.12.63l3.81,2.59Z"/>
        <path class="cls-3" d="m52.36,98.37c.49.34,1.14.73,1.16.75.33.23.42,1.26.33,1.4s-.25.14-.74.65c-2.1,2.23-4.39,3.35-7.49,3.36-1.12.02-2.26-.12-3.37-.37-.15-.04-.38-.08-.51-.17-.25-.17-.2-1.08-.06-1.29.1-.15.24-.09.38-.05,1.68.56,3.95.7,5.68.28,1.57-.39,2.99-1.28,4.06-2.5.05-.04.16-.18.21-.25.23-.33-.13-.52-.48-.75l-4.78-3.26c-.54-.37-1.12-.7-1.67-1.08-.35-.23-.25-.37.07-.85.28-.41.39-.57.72-.35.56.38,1.08.79,1.64,1.17l4.83,3.29Zm4.84,1.72c-.49.72-1.47.89-2.17.41-.72-.49-.9-1.45-.41-2.17.49-.72,1.45-.9,2.17-.41.71.48.89,1.46.41,2.17Zm-2.01-1.37c-.27.4-.17.94.23,1.21.4.27.94.17,1.21-.23.27-.4.17-.94-.23-1.21-.4-.27-.94-.17-1.21.23Z"/>
        <path class="cls-3" d="m67.88,111.69c.2.14.4.27.54.35.08.03.16.07.23.12.29.2.42,1.1.31,1.26-.06.09-.23.17-.49.37-.65.53-1.22.93-1.98,1.3-1.48.74-3.29,1.19-4.92,1.3-.6.04-2.73.09-3.16-.2-.23-.15-.33-1.03-.18-1.25.09-.13.48-.04.62-.02,2.32.31,5.01-.06,7.09-1.16.21-.11.9-.5,1.02-.67.17-.25-.04-.43-.25-.58l-5.38-3.67c-.55-.37-1.12-.73-1.67-1.1-.33-.23-.22-.39.03-.76.37-.55.45-.61.8-.37.53.36,1.06.76,1.61,1.13l5.78,3.94Zm.34-3.94c.51.34,1.19.75,1.5.97.31.21.28.34-.08.86-.26.39-.38.52-.71.3-.49-.34-.97-.7-1.46-1.03l-3.33-2.27c-.49-.33-1-.64-1.5-.98-.33-.23-.25-.38.02-.77.34-.51.47-.6.76-.4.36.25.96.71,1.46,1.06l3.33,2.27Z"/>
        <path class="cls-3" d="m85.81,124.61c-.1.15-1.02.36-1.29.41-3.49.72-7.11.71-10.62.1-.47-.09-.51-.08-.8.08-.06.04-.16.03-.21,0-.13-.09-.09-.38-.05-.84.01-.17.06-.8.13-.91.09-.13.33-.03.52.04,3.46,1.11,8.63.85,12.08-.21.1-.03.23-.06.31,0,.24.16.05,1.16-.07,1.34Zm-5.49-6.8c.08.23.37,1.09.28,1.22-.17.25-1.01.48-1.25.32-.11-.07-.24-.51-.31-.74-.24-.79-.49-1.52-.82-2.26-.06-.12-.12-.26-.04-.38.1-.15.94-.53,1.21-.35.2.14.81,1.84.93,2.18Z"/>
      </g>
      <g>
        <path class="cls-3" d="m79.51,54.46c-.09.13-.12.29.03.39.07.04.4.07.47.08.29.04.66.1.72.14.27.18.06.68-.08.9-.18.27-.32.25-1.16.1-.16-.03-.35-.06-.56-.09-.33-.03-.45,0-.64.28l-1.39,2.04c-.43.63-.83,1.27-1.25,1.9-.26.39-.39.38-.86.06s-.54-.44-.27-.84c.43-.63.88-1.21,1.31-1.84l1.08-1.58c.03-.08.16-.26-.05-.41-.04-.03-.07-.05-.12-.06-.24-.05-.44-.1-.61-.14-.83-.19-.85-.21-1.06-.04-.07.07-.16.12-.26.06-.13-.09-.08-.29-.04-.46.04-.17.24-.95.31-1.06.11-.16.31-.05.46,0,.64.24,1.3.38,1.95.55.33.05.47,0,.65-.27l1.37-2.01c.18-.27.15-.45-.12-.63l-.39-.26c-.24-.16-.39-.15-.59.04-.74.71-.84.91-1.21.66-.16-.11-.57-.48-.42-.7.04-.05.25-.26.32-.29.95-.77,1.94-1.85,2.64-2.88.08-.12.18-.13.3-.05.08.05.4.33.48.41.2.17.41.34.32.47-.05.07-.13.08-.19.08-.21,0-.24.01-.46.29-.1.12-.23.31-.46.56l-.05.08c-.12.17,0,.33.12.43l.31.21c.23.15.39.11.54-.1l.8-1.17c.24-.35.45-.71.62-1.02.03-.04.04-.09.07-.13.1-.15.22-.1.34-.02.13.09.96.73,1.04.82.06.06.1.14.03.24-.05.08-.14.06-.3.07-.2,0-.36.21-.67.67l-.83,1.21c-.15.23-.16.4.08.6.08.03.88.54.92.57.28.19.18.34-.07.71-.25.37-.37.51-.63.33-.19-.13-.62-.46-.86-.63-.26-.16-.43-.12-.6.14l-1.07,1.57Zm6.15,5.65c.35.26.75.47,1.12.73.29.2.15.38-.08.71-.23.33-.33.52-.62.32-.37-.25-.71-.54-1.09-.78-.25-.17-.43-.14-.61.13l-1.13,1.66c-1,1.46-1.29,2.24-3.5.73-.17-.12-.45-.29-.43-.54.03-.21.19-.59.32-.78.11-.16.25-.2.41-.09.07.05.15.12.22.17.12.1.26.22.39.31.84.57,1,.31,1.51-.44l1.18-1.73c.18-.27.13-.45-.12-.63l-2.04-1.39c-.4-.27-.82-.52-1.23-.8-.29-.2-.15-.38.06-.7.23-.33.35-.52.63-.33.41.28.79.58,1.19.85l2.04,1.39c.25.17.41.14.61-.09.17-.25.32-.5.45-.77l.08-.12c.09-.13.21-.11.32-.04.21.14.67.53.88.71.1.09.28.23.18.37-.06.09-.16.06-.32.06-.24.01-.34.16-.54.49-.17.25-.13.42.12.59Zm-5.97,1.18c-.13-.09-.13-.3-.12-.77,0-.33.02-.8-.01-1.47,0-.12-.02-.25.05-.36.15-.23.79-.22,1.01-.07.21.15.19,1.04.19,1.32,0,.25.02,1.11-.09,1.28-.18.27-.79.22-1.02.07Zm7.95-7.69c-.18.27-.13.44.11.6l.76.52c.4.27.8.51,1.2.78.29.2.17.37-.04.69-.22.32-.35.48-.63.29-.4-.27-.77-.56-1.17-.83l-.76-.52c-.25-.17-.43-.14-.61.13l-.55.81c-.18.27-.15.45.11.62l1.28.87c.44.3.88.56,1.31.85.29.2.18.36-.05.71-.22.32-.34.49-.63.29-.43-.29-.83-.61-1.27-.91l-3.98-2.71c-.43-.29-.87-.55-1.3-.84-.29-.2-.18-.37.04-.69.24-.35.34-.51.64-.31.43.29.83.61,1.26.9l.91.62c.27.18.45.15.63-.12l.55-.81c.18-.27.13-.46-.12-.63l-.39-.26c-.39-.26-.79-.5-1.19-.77-.29-.2-.17-.37.04-.69.21-.31.34-.49.63-.29.39.26.77.56,1.15.82l.39.26c.27.18.45.15.62-.11.25-.34.47-.69.65-1.07.01-.05.04-.09.07-.13.1-.15.24-.11.35-.03.19.13.74.58.94.74.08.08.23.2.14.33-.06.09-.15.08-.31.08-.22,0-.34.16-.57.49l-.22.32Z"/>
        <path class="cls-3" d="m94.17,70.24c-.05-.04-.08-.08-.15-.12-.08-.05-.2-.06-.29-.04-1.56.15-2.81,0-4.33-.34-.17-.04-.42-.09-.57-.19-.29-.2-.21-.98-.12-1.11.11-.16.35-.05.66.04,1.28.38,3.01.61,4.34.38.1,0,.24-.03.32.02.15.1.46,1.21.38,1.33-.06.09-.17.08-.24.03Zm4.38-8.6c.27.18.45.15.63-.12l.26-.39c.18-.27.35-.54.5-.81.03-.04.05-.1.08-.14.1-.15.21-.11.33-.03.16.11.71.56.89.7.1.09.27.23.18.36-.06.09-.15.08-.32.07-.22,0-.34.16-.56.48l-.33.48c-.17.25-.14.43.11.6l.76.52c.25.17.43.14.6-.11l.26-.39c.18-.27.35-.54.5-.81.02-.03.04-.09.07-.13.1-.15.21-.13.34-.04.19.13.5.38.72.57.26.22.44.36.34.5-.05.08-.14.1-.3.09-.28,0-.37.14-.88.9-.18.27-.15.45.12.63l.37.25c.36.24.73.48,1.09.72.49.34.63.59.27,1.12-.23.33-.46.64-.68.98l-2.61,3.84c-.17.25-.14.43.13.61.28.19.66.43.94.62.28.19.21.32-.05.71-.27.4-.37.51-.65.32-.53-.36-1.05-.75-1.58-1.12l-7.95-5.42c-.53-.36-1.08-.7-1.62-1.06-.28-.19-.19-.35.06-.72.25-.36.36-.5.64-.31.31.21.6.43.91.64.27.18.44.16.62-.11l2.61-3.84c.22-.32.41-.66.62-.96.38-.56.65-.55,1.17-.2.37.25.72.51,1.08.76l.33.23Zm-4.78,4.72c-.13.24-.09.45.12.63l.76.52c.25.13.45.09.63-.12l.84-1.24c.13-.24.09-.45-.12-.63l-.76-.52c-.24-.13-.45-.09-.63.12l-.84,1.24Zm2.87-1.79c.25.13.45.09.63-.12l.79-1.16c.13-.24.09-.45-.12-.63l-.76-.52c-.24-.13-.45-.09-.63.12l-.79,1.16c-.13.24-.09.45.12.63l.76.52Zm1.93,3.24c.14-.26.1-.44-.11-.62l-.75-.51c-.26-.14-.44-.1-.63.12l-.84,1.24c-.14.26-.1.44.1.62l.76.52c.25.13.42.09.61-.13l.84-1.24Zm.39,8.71c-.35-.24-1.28-2.16-1.5-2.64-.15-.33-.87-2.15-.71-2.39.1-.15.8-.29,1.03-.14.13.09.16.25.18.4.3,1.3,1.24,2.93,2,4.05.07.1.17.29.09.41-.12.17-.79.51-1.09.31Zm1.56-11.56c.14-.26.1-.44-.11-.62l-.75-.51c-.26-.14-.44-.1-.63.12l-.79,1.16c-.14.26-.1.44.1.62l.76.52c.25.13.42.09.61-.13l.79-1.16Zm.56,4.56c.13-.24.09-.45-.12-.63l-.79-.54c-.25-.13-.45-.09-.63.12l-.84,1.24c-.13.24-.09.45.12.63l.79.54c.25.13.45.09.63-.12l.84-1.24Zm1.94-2.85c.13-.24.09-.45-.12-.63l-.79-.54c-.25-.13-.45-.09-.63.12l-.79,1.16c-.13.24-.09.45.12.63l.79.54c.25.13.45.09.63-.12l.79-1.16Z"/>
        <path class="cls-3" d="m107.65,74.89c-.12-.08-.22-.58-.13-.7.07-.1.27-.13.37-.15,1.46-.32,3.52-1.39,4.7-2.31.06-.05.17-.13.26-.07.08.05.4.53.47.65.04.05.08.15.04.21-.05.07-.14.05-.21.04-.17-.04-.27.04-.42.13-.62.4-1.24.77-1.89,1.11-.02.01-.04.01-.05.03-.04.05-.01.1.03.13.06.06.19.14.12.25-.05.07-.1.06-.21.05-.13-.01-.21.08-.39.35l-2.26,3.31c-.26.38-.51.78-.77,1.17-.18.26-.3.23-.58.05-.29-.2-.35-.31-.17-.57.26-.38.54-.75.8-1.13l1.86-2.73s.04-.1,0-.13c-.04-.02-.07-.02-.1-.01-.25.09-1.29.47-1.5.33Zm7.97,1.43c-.12.18-.09.3.08.42l.11.07c.3.21.62.39.92.6.2.14.14.24-.04.5-.18.27-.25.36-.45.22-.3-.21-.59-.43-.89-.63l-.11-.07c-.17-.12-.3-.1-.42.08l-2.15,3.15c-.16.24-.3.5-.47.75-.23.34-.56.55-.99.51-.4-.05-.99-.39-1.33-.62-.24-.16-.38-.27-.35-.44.03-.14.14-.38.23-.51.09-.13.18-.17.32-.07.11.07.28.23.47.36.74.5.89.23,1.38-.48l2.15-3.15c.12-.18.1-.3-.08-.42l-1.57-1.07c-.3-.21-.62-.39-.92-.6-.2-.14-.13-.25.04-.5.18-.27.26-.36.45-.23.3.21.59.43.89.63l1.57,1.07c.18.12.3.1.42-.08l.65-.95c.16-.23.29-.46.42-.69.02-.03.03-.07.06-.1.07-.11.16-.08.24-.02.1.07.59.47.69.55.06.05.12.13.06.21-.05.07-.14.06-.23.05-.15-.01-.26.13-.49.47l-.67.98Zm-4.89,2.26c-.13-.09-.1-.21-.07-.35.12-.53.26-1.26.29-1.8,0-.07.01-.17.06-.23.09-.13.56-.05.67.03.15.1.13.27,0,1.19-.03.2-.17,1.08-.25,1.19-.1.15-.55.07-.69-.03Z"/>
        <path class="cls-3" d="m124.27,80.59c-.1.35-.16.56.01.67.14.1.77.16.97.18.07,0,.21.01.27.06.13.09,0,.66-.07.77-.07.1-.2.07-.36.05-.29-.04-.61-.09-.89-.16-.09-.02-.2-.05-.28.07-.03.04-.07.28-.1.45,0,.07-.02.13-.03.16-.02.12-.02.24.09.32.19.13,1.24.21,1.51.21.06,0,.18,0,.23.04.12.08.08.68,0,.8-.08.12-.32.08-.76.01-.31-.04-.61-.09-.9-.16-.11-.02-.24-.03-.31.07-.05.07-.08.32-.09.5-.08.29-.12,1.47-.09,1.8,0,.12.04.38-.03.49-.12.18-.76.18-.93.07-.06-.04-.08-.09-.08-.16-.14-.69-.69-1.39-1.27-1.79-.44-.3-1.1-.46-1.45.05-.48.7.34,1.52.88,1.89.22.15.46.26.69.39.04.02.08.04.11.06.17.12.1.28-.05.49-.29.43-.38.38-.85.06-.44-.3-.88-.62-1.22-1.03-.57-.67-.83-1.53-.3-2.31.64-.94,1.72-.87,2.58-.29.39.27.65.55.92.94.03.03.05.07.09.1.03.02.08.03.11-.01s.1-.96.12-1.17c.03-.19.06-.36-.1-.47-.05-.04-.1-.04-.15-.06-.53-.15-2.3-.86-2.71-1.15-.13-.09-.12-.16-.09-.28.04-.13.14-.4.22-.51.11-.16.23-.05.46.08.63.38,1.5.79,2.21,1.01.11.03.26.08.34-.04.04-.06.06-.27.07-.35.08-.43.08-.54-.03-.62-.04-.03-.09-.05-.14-.07-.31-.11-1.09-.44-1.35-.62-.11-.07-.11-.17-.08-.27.03-.12.12-.4.18-.5.1-.15.28-.02.42.07.31.2.53.29.85.43.12.06.28.1.37-.03.07-.1.13-.68.15-.81,0-.09,0-.24.05-.3.1-.15.65.08.77.16.2.14.12.29.02.72Z"/>
      </g>
      <circle class="cls-2" cx="83.89" cy="83.89" r="81.87"/>
      <circle class="cls-1" cx="83.89" cy="83.89" r="75.16"/>
      <circle class="cls-1" cx="83.89" cy="83.89" r="53.69"/>
      <g>
        <path class="cls-4" d="m25.35,71.1l-7.92-2.03,1.1-4.27,1.06.27-.8,3.11,2.33.6.8-3.11,1.06.27-.8,3.11,2.41.62.8-3.11,1.06.27-1.1,4.27Z"/>
        <path class="cls-4" d="m28.53,55.92c.99,1.32,1.16,2.83.52,4.33-.89,2.08-3.5,3-5.5,2.15-2.27-.97-3.17-3.47-2.31-5.49.61-1.42,1.83-2.48,3.57-2.64l-.56,1.32c-.9.29-1.58.78-1.96,1.66-.67,1.58.14,3.37,1.63,4,1.58.67,3.48.08,4.14-1.47.33-.78.33-1.62-.1-2.52l.58-1.35Z"/>
        <path class="cls-4" d="m34.35,50.25l-3-1.92-1.82,2.84,3,1.92-.64,1.01-6.89-4.41.64-1,2.97,1.9,1.82-2.84-2.97-1.9.64-1.01,6.89,4.41-.64,1.01Z"/>
        <path class="cls-4" d="m37.23,46.37l-6.33-5.19.76-.92,6.33,5.19-.76.92Z"/>
        <path class="cls-4" d="m39.84,43.25l-.77-.77-1.73-6.75-2.38,2.38-.77-.77,3.32-3.32.77.77,1.74,6.73,2.6-2.6.77.77-3.56,3.56Z"/>
        <path class="cls-4" d="m45.47,37.91l-5.01-6.46,3.48-2.7.67.86-2.54,1.97,1.48,1.9,2.54-1.97.67.86-2.54,1.97,1.52,1.96,2.54-1.97.67.86-3.48,2.7Z"/>
        <path class="cls-4" d="m56.3,30.7l-6.63-3.53h-.02s3.1,5.52,3.1,5.52l-1.04.58-4.01-7.13,1.14-.64,6.52,3.47h.02s-3.05-5.44-3.05-5.44l1.04-.59,4.01,7.13-1.08.61Z"/>
        <path class="cls-4" d="m72.32,22.96c-.45,1.59-1.54,2.64-3.12,3.05-2.19.56-4.51-.94-5.05-3.05-.61-2.39.82-4.63,2.95-5.17,1.5-.39,3.08-.06,4.26,1.22l-1.39.36c-.78-.54-1.58-.78-2.51-.54-1.66.43-2.58,2.16-2.18,3.73.43,1.66,2.06,2.8,3.68,2.38.82-.21,1.48-.72,1.94-1.62l1.42-.37Z"/>
        <path class="cls-4" d="m79.59,24.33c-2.26.16-4.32-1.64-4.48-3.85-.18-2.5,1.61-4.46,3.9-4.63,2.43-.18,4.42,1.6,4.58,3.87.18,2.47-1.6,4.43-4,4.6Zm2.82-4.44c-.12-1.69-1.51-3.07-3.23-2.95-2.21.16-2.97,2.12-2.89,3.33.12,1.64,1.42,3.09,3.28,2.96,1.93-.14,2.94-1.85,2.83-3.34Z"/>
        <path class="cls-4" d="m92.32,24.55l-.66-2.49-2.93-.29-1.15,2.31-1.25-.13,3.92-7.83,1.07.11,2.27,8.46-1.27-.13Zm-1.68-6.84h-.02s-1.36,3.01-1.36,3.01l2.1.21-.72-3.22Z"/>
        <path class="cls-4" d="m100.82,20.14c.18-.72-.18-1.26-.83-1.42-.56-.14-1.19.24-1.33.82-.14.56.16.97.87,1.41,1.58.97,2.05,1.77,1.71,3.15-.36,1.44-1.62,2.15-3.03,1.8-1.42-.35-2.17-1.61-1.83-3.1l1.16.29c-.2.86.16,1.56.93,1.76s1.42-.24,1.61-1.02c.14-.58-.02-1.01-.8-1.51-1.8-1.15-2.07-1.9-1.79-3.03.3-1.21,1.53-1.92,2.76-1.62,1.31.32,2.05,1.38,1.73,2.77l-1.16-.29Z"/>
        <path class="cls-4" d="m104.38,27.61l2.49-6.63-1.47-.55.39-1.02,4.06,1.53-.39,1.02-1.47-.55-2.49,6.63-1.12-.42Z"/>
        <path class="cls-4" d="m115,32.72l3.74-6.02-1.33-.83.58-.93,3.68,2.29-.58.93-1.33-.83-3.75,6.02-1.01-.63Z"/>
        <path class="cls-4" d="m122.65,38.22l.28-4.64h-.02s-2.38,2.94-2.38,2.94l-.93-.75,5.14-6.36,2.04,1.65c1.53,1.24,1.56,2.59.5,3.9-.98,1.21-2.42,1.1-3.34.4l-.14,3.81-1.16-.94Zm1.05-4.24c1.08.88,2.05.96,2.72.14.59-.73.37-1.66-.45-2.33l-.98-.79-1.97,2.43.68.55Z"/>
        <path class="cls-4" d="m129.74,45.28l1.17-2.29-1.98-2.17-2.39.96-.85-.93,8.13-3.22.72.79-3.95,7.81-.86-.94Zm3.31-6.21v-.02s-3.03,1.33-3.03,1.33l1.42,1.56,1.61-2.88Z"/>
        <path class="cls-4" d="m133.73,50.67l5.02-7.25.71,1.07-3.82,5.36,6.43-1.39.69,1.05-8.64,1.75-.4-.6Z"/>
        <path class="cls-4" d="m137.19,56.49l7.4-3.47,1.87,3.99-.99.46-1.36-2.91-2.18,1.02,1.36,2.91-.99.46-1.36-2.91-2.25,1.05,1.36,2.91-.99.46-1.87-3.99Z"/>
        <path class="cls-4" d="m140.3,63.72l7.77-2.55.37,1.14-6.73,2.21.88,2.7-1.04.34-1.26-3.83Z"/>
        <path class="cls-4" d="m143.21,75.35l8.13-.85.25,2.36c.18,1.75-.57,2.95-2.16,3.12-1.59.17-2.58-.83-2.76-2.59l-.12-1.19-3.21.34-.12-1.19Zm4.55,1.91c.11,1.04.67,1.62,1.55,1.53.89-.09,1.31-.79,1.2-1.83l-.12-1.16-2.75.29.12,1.18Z"/>
        <path class="cls-4" d="m143.62,88.87l2.44-.8.12-2.94-2.37-1.01.05-1.26,8.04,3.45-.05,1.07-8.3,2.76.05-1.27Zm6.72-2.07v-.02s-3.08-1.18-3.08-1.18l-.09,2.11,3.17-.91Z"/>
        <path class="cls-4" d="m148.51,97.11c.73.14,1.25-.25,1.37-.91.1-.56-.31-1.17-.9-1.28-.56-.1-.96.21-1.36.95-.88,1.63-1.65,2.15-3.04,1.89-1.46-.27-2.24-1.5-1.97-2.92.27-1.43,1.48-2.26,2.99-2l-.22,1.17c-.87-.15-1.55.25-1.7,1.03-.15.78.32,1.4,1.12,1.55.59.11,1-.08,1.46-.89,1.04-1.86,1.78-2.17,2.92-1.96,1.23.23,2,1.42,1.77,2.66-.25,1.33-1.26,2.12-2.67,1.89l.22-1.17Z"/>
        <path class="cls-4" d="m146.35,105.07c.71.23,1.27-.09,1.48-.73.18-.55-.16-1.2-.73-1.38-.55-.18-.98.09-1.47.77-1.08,1.51-1.91,1.93-3.26,1.5-1.41-.45-2.03-1.77-1.59-3.15.45-1.39,1.76-2.06,3.23-1.61l-.37,1.14c-.85-.26-1.57.05-1.82.81s.14,1.43.91,1.68c.57.18,1.01.04,1.56-.69,1.27-1.72,2.04-1.93,3.14-1.58,1.19.38,1.81,1.66,1.42,2.86-.41,1.28-1.52,1.95-2.89,1.53l.37-1.14Z"/>
        <path class="cls-4" d="m139.09,107.23l7.39,3.49-1.01,2.15c-.75,1.59-2.02,2.22-3.46,1.54-1.45-.68-1.77-2.05-1.02-3.64l.51-1.08-2.92-1.38.51-1.08Zm2.89,3.99c-.45.95-.27,1.73.53,2.11.81.38,1.53,0,1.97-.94l.5-1.06-2.5-1.18-.5,1.07Z"/>
        <path class="cls-4" d="m133.21,117.57c1.31-1.85,4-2.3,5.81-1.03,2.05,1.45,2.43,4.07,1.1,5.95-1.4,1.99-4.03,2.4-5.89,1.09-2.02-1.43-2.41-4.04-1.02-6.01Zm1.65,4.99c1.38.97,3.33.78,4.32-.63,1.27-1.81.24-3.64-.75-4.34-1.35-.95-3.29-.86-4.36.67-1.12,1.58-.43,3.44.79,4.3Z"/>
        <path class="cls-4" d="m126.13,126.36l4.6.68.02-.02-2.73-2.62.83-.86,5.9,5.66-1.81,1.89c-1.36,1.42-2.71,1.33-3.93.17-1.12-1.08-.89-2.5-.12-3.36l-3.78-.46,1.03-1.08Zm4.13,1.41c-.96,1-1.13,1.96-.37,2.7.68.65,1.62.51,2.35-.25l.87-.91-2.26-2.16-.6.63Z"/>
        <path class="cls-4" d="m122.03,130.07l4.46,5.51,1.22-.99.69.85-3.37,2.73-.69-.85,1.22-.99-4.46-5.51.93-.75Z"/>
      </g>
      <g>
        <path class="cls-4" d="m16.59,99.71l7.9-2.09,1.06,3.99-1.06.28-.75-2.84-2.37.63.75,2.84-1.06.28-.75-2.84-3.42.9-.31-1.15Z"/>
        <path class="cls-4" d="m29.1,110.63l.5,1.09-5.09,2.32c-1.56.71-2.99.04-3.63-1.36-.64-1.4-.19-2.92,1.36-3.63l5.09-2.31.49,1.09-5.01,2.28c-.92.42-1.34,1.24-.94,2.13s1.31,1.11,2.22.69l5.01-2.28Z"/>
        <path class="cls-4" d="m25.83,121.49l6.7-4.68.68.98-6.7,4.68-.68-.98Zm2.47,3.54l1.6-4.91,5.1.22.84,1.2-5.15-.29-1.55,4.98-.84-1.21Z"/>
        <path class="cls-4" d="m42.13,128.3l.85.84-3.93,3.98c-1.2,1.22-2.78,1.11-3.88.03-1.09-1.08-1.22-2.67-.03-3.88l3.93-3.98.85.84-3.87,3.92c-.71.72-.81,1.64-.12,2.32.69.68,1.62.57,2.32-.15l3.87-3.92Z"/>
        <path class="cls-4" d="m42.7,139.4l4.82-6.61.96.7-4.82,6.61-.96-.7Z"/>
        <path class="cls-4" d="m65.01,148.42c-1.26,1.06-2.75,1.32-4.29.77-2.13-.77-3.2-3.31-2.46-5.36.83-2.32,3.28-3.36,5.35-2.62,1.46.52,2.58,1.68,2.84,3.4l-1.35-.49c-.34-.88-.87-1.53-1.77-1.86-1.61-.58-3.35.33-3.9,1.86-.58,1.61.12,3.47,1.7,4.04.8.29,1.63.23,2.51-.25l1.38.5Z"/>
        <path class="cls-4" d="m70.78,151.77l1.48-8.05,1.17.22-1.48,8.05-1.18-.22Z"/>
        <path class="cls-4" d="m79.69,152.89l.36-7.08-1.57-.08.06-1.09,4.33.22-.06,1.09-1.57-.08-.36,7.08-1.19-.06Z"/>
        <path class="cls-4" d="m90.65,152.68l-.31-2.93-3.08-4.93,1.33-.14,2.2,3.62,1.37-4,1.32-.14-1.95,5.47.31,2.93-1.19.13Z"/>
      </g>
      <path class="cls-1" d="m44.4,56.11c2.83,1.93,5.35-1.77,8.18.16,2.83,1.93.31,5.63,3.14,7.56,2.83,1.93,5.35-1.77,8.18.16,2.83,1.93.31,5.62,3.14,7.55s5.35-1.77,8.18.16c2.83,1.93.31,5.63,3.14,7.55s5.35-1.77,8.18.16.31,5.63,3.14,7.56c2.83,1.93,5.35-1.77,8.18.16s.31,5.63,3.14,7.56,5.35-1.77,8.18.16.31,5.63,3.14,7.56c2.83,1.93,5.35-1.77,8.19.16,2.84,1.93.32,5.63,3.15,7.56"/>
    </g>
  </g>
</svg>