<?xml version="1.0" encoding="UTF-8"?>
<svg id="_レイヤー_2" data-name="レイヤー 2" xmlns="http://www.w3.org/2000/svg" viewBox="0 0 398.48 130.58">
  <defs>
    <style>
      .cls-1 {
        fill: #0b783b;
      }
    </style>
  </defs>
  <g id="_施設名とテキスト" data-name="施設名とテキスト">
    <g>
      <path class="cls-1" d="m11.18,124.67c0,.84.63,1,1.33,1.12,2.05.39,6.88.42,9.77.42,1.18,0,5.28-.12,6.27-.21.24-.03.57-.06.81-.06.69,0,.75.72.75,1.27,0,2.9-.6,3.08-3.53,3.08h-4.46c-3.62,0-6.64-.06-8.51-.24-1.57-.15-2.9-.42-4.31-1.15-.94-.48-1.57-.97-2.32-1.69-.12-.12-.24-.21-.39-.21-.36,0-.42.66-.48,1.15-.3,1.99-.39,2.35-.84,2.35-.69,0-2.81-.54-2.81-1.36,0-.09.06-.24.09-.33.6-1.99.81-4.98.87-7.18.03-1.15.03-1.96.03-2.53,0-1.03.03-1.27.39-1.27.3,0,1.75.18,2.17.24.69.09,1.15.15,1.15.45,0,.15-.15.27-.24.33-.3.21-.3.3-.3,1.72,0,.3.03,1.18.45,1.18.15,0,.21-.18.21-.3v-2.2c0-2.53-.03-2.68-1.21-2.68-.78,0-1.54.09-2.32.09-.66,0-.72-.27-.72-1.18v-1.57c0-.84.06-1.15.72-1.15.84,0,1.66.09,2.5.09.6,0,1-.24,1-.91v-.97c0-.42-.3-.75-.72-.75-.66,0-1.33.09-2.02.09s-.72-.27-.72-1.06v-1.66c0-.81.06-1.12.72-1.12.57,0,1.24.09,1.78.09.69,0,.97-.48.97-1.12,0-.33-.06-1.03-.09-1.33-.03-.21-.03-.45-.03-.51,0-.42.3-.45.63-.45.9,0,2.38.09,3.32.15.27.03.72.06.72.39,0,.18-.15.33-.33.48-.33.3-.33.91-.33,1.33,0,.57.24,1.03.91,1.03.33,0,.84-.06,1.3-.06.69,0,.75.27.75,1.15v1.66c0,.75-.06,1.03-.72,1.03-.48,0-.94-.06-1.42-.06-.51,0-.81.33-.81.81v1c0,.54.45.75.94.75.6,0,1.21-.06,1.84-.06s.72.33.72,1.03v1.57c0,1.03-.06,1.3-.72,1.3-.57,0-1.15-.06-1.69-.06-.36,0-.39.21-.42.36-.03.06-.06.09-.24.24-.24.21-.36.48-.36,1.06,0,.33.06.66.48.66h.24c.69,0,1.39-.09,1.78-.09.06,0,.24.03.3.03.18,0,.18-.15.21-.33.06-.39.36-.48.75-.54.36-.06.42-.39.42-.69v-6.31c0-.84-.06-1.66-.06-2.5,0-1,.45-1.3,1.39-1.3.81,0,1.66.06,2.47.06h1c.63,0,.81-.51.81-1.06,0-.97-.09-1.96-.09-2.26,0-.54.33-.66.81-.66.36,0,2.14.12,2.72.15s.6.03.94.18c.09.06.21.09.33.09.15,0,.27-.06.39-.12.3-.15,1.09-.54,1.42-.54.24,0,.66.54,1.12,1.54.12.24.54,1.15.54,1.36,0,.33-.54.6-1.09.88-.12.06-.24.18-.24.27,0,.12.21.15.3.15.36,0,.69-.03,1.06-.03.57,0,.63.24.63,1.06v1.78c0,.88-.06,1.06-.66,1.06-.94,0-1.9-.06-2.84-.06h-.84c-.54,0-.63.36-.63.81,0,.27.06,1.99.3,1.99.18,0,.45-.75.6-1.21.18-.51.24-.69.57-.69.27,0,1.27.51,1.84.81,1.12.57,1.57.81,1.57,1.15,0,.24-.24.3-.45.36-.33.09-.48.6-.6.9-.54,1.3-1.21,2.53-1.93,3.74-.15.27-.3.51-.3.81,0,.36.27,1.03.54,1.03.33,0,.39-1.15.42-1.57.03-.36.09-.6.51-.6.6,0,1.39.27,1.84.54.42.27.54.45.54.88,0,1.3-.48,2.84-1.06,3.86s-1.45,1.57-2.59,1.57c-.97,0-1.72-.36-2.35-1.03-.21-.24-.54-.63-.88-.63-.39,0-.9.48-1.21.78-.39.39-1.45,1.3-1.96,1.3-.72,0-2.59-1.81-2.59-2.38,0-.27.21-.39.42-.51,1.03-.63,2.23-1.69,3.08-2.56.51-.51.84-.94.84-1.48,0-.27-.09-.72-.15-1-.36-1.84-.6-4.31-.69-5.58-.06-.69-.09-1.3-.69-1.3h-.54c-.42,0-.72.33-.72.72v4.62c0,.33.03.54.33.54.09,0,.36-.06.51-.12.15-.06.3-.12.51-.12.63,0,.66,1.03.66,1.72,0,1.72-.24,1.9-.88,2.14-.97.39-3.17,1.06-4.19,1.27-.21.03-.24.12-.36.36-.09.18-.21.24-.36.24-.24,0-.36-.33-.51-.97-.09-.42-.24-1-.36-1s-.15.36-.15.72v.66c0,.54-.03.9-.66.9-.54,0-1.09-.09-1.63-.09-.63,0-.9.21-.97.84v1.21Zm14.66-17.44c.15,0,.3-.06.3-.24,0-.27-.94-2.32-1.18-2.32-.18,0-.18.33-.18.6v.75c0,.66.12,1.12.88,1.21h.18Z"/>
      <path class="cls-1" d="m54.59,103.07c.27,0,3.86,1.21,4.34,1.39.21.06.42.18.42.42,0,.36-.24.42-.48.45-.63.09-.75.21-1.03.6-.24.33-1.12,1.48-1.12,1.66,0,.39.45.39.72.39h1.18c1.27,0,2.53-.09,3.83-.09.66,0,.72.27.72,1.06v1.6c0,.78-.06,1.06-.72,1.06-1.27,0-2.56-.06-3.83-.06h-17.65c-1.27,0-2.53.06-3.83.06-.66,0-.72-.3-.72-1.18v-1.36c0-.88.06-1.18.75-1.18,1.27,0,2.53.09,3.8.09h1.12c.3,0,.75,0,.75-.39,0-.15-.24-.45-.33-.63-.3-.42-.51-.72-.84-1.12-.18-.21-.63-.72-.63-1,0-.69,2.87-1.69,3.5-1.69.33,0,.48.15.66.39.33.42.78,1.06,1.06,1.51.18.27,1.09,1.75,1.09,1.96,0,.24-.36.45-.51.54-.09.03-.21.09-.21.21,0,.21.27.21.42.21h3.56c.66,0,1.15-.12,1.51-.69.75-1.24,1.42-2.5,2.02-3.77.12-.24.18-.45.45-.45Zm-11.73,21.6c-.48,0-.84.39-.84.84v1.63c0,1.15.06,2.02.06,2.71,0,.63-.33.69-1.27.69h-1.54c-.9,0-1.27-.06-1.27-.66,0-.81.06-1.84.06-2.75v-10.35c0-.88-.06-1.75-.06-2.62,0-1.15.66-1.33,1.66-1.33.88,0,1.72.06,2.59.06h2.77c.81,0,1.63-.06,2.44-.06,1.03,0,1.84.06,1.84,1.33,0,.69-.06,1.63-.06,2.62v8.78c0,.54.03,1.09.03,1.63,0,.94-.15,1.84-.91,2.44-.81.6-2.32.81-3.32.81-.75,0-1.45-.06-1.75-.69-.27-.63-.39-1.6-.39-2.26,0-.97.15-1.06.9-1.06h.81c.48,0,.75-.09.75-.63,0-.42-.03-1.15-.94-1.15h-1.6Zm2.05-7.06c.27,0,.48-.21.48-.48v-.15c0-.27-.21-.48-.48-.48h-2.41c-.27,0-.48.21-.48.48v.15c0,.27.18.45.48.48h2.41Zm-2.41,2.93c-.27,0-.48.24-.48.48v.21c0,.27.21.48.48.48h2.41c.27,0,.48-.21.48-.48v-.21c0-.24-.21-.45-.48-.48h-2.41Zm12.91.75c0,1.18.09,2.41.09,3.17,0,.57-.33.63-1,.63h-1.75c-.97,0-1.24-.06-1.24-.6,0-1.06.06-2.11.06-3.2v-5.49c0-1.27-.09-1.63-.09-1.9,0-.3.3-.3.51-.3.54,0,2.78.12,3.38.15.3.03.72.03.72.36,0,.15-.24.36-.39.45-.24.15-.3.18-.3,1.18v5.55Zm6.09,3.44c0,.3.06,1.18.06,1.78,0,.97,0,2.08-.72,2.84-1.15,1.18-3.44,1.24-4.98,1.24-.48,0-.97,0-1.3-.42-.45-.63-.63-1.72-.63-2.5,0-.54,0-1.48.69-1.48.15,0,.45.03.6.06.18.03,1.06.06,1.36.06.87,0,.9-.24.9-1.21v-9.83c0-.78,0-1.66-.09-2.2-.03-.15-.03-.18-.03-.24,0-.36.39-.36.75-.36.12,0,3.2.15,3.35.15.27.03.72.09.72.42,0,.24-.21.36-.39.48-.27.18-.3.45-.3,2.02v9.2Z"/>
      <path class="cls-1" d="m92.14,105.76c.94,0,1.87-.09,2.78-.09.54,0,.6.3.6,1.09v1.75c0,.84-.06,1.12-.6,1.12-.93,0-1.84-.06-2.78-.06h-9.74c-1.39,0-1.57,1.15-1.57,1.24,0,.48.39.51,1.42.51h7.75c.69,0,1.39-.03,2.08-.03,1.45,0,1.96.24,1.96,1.78,0,1.06-.15,2.44-.15,3.38,0,.3.24.6.54.6h.51c.78,0,.84.24.84,1.18v1.06c0,1.36-.06,1.54-.81,1.54-.24,0-.45-.03-.6-.03-.72,0-.75.69-.75,1.51,0,.3.3.6.63.6h.45c.72,0,.79.21.79,1.09v1.63c0,.81-.06,1.12-.72,1.12-.27,0-.63-.03-.81-.03-.39,0-.57.33-.63.69-.09.69-.33,1.57-.91,2.05-1.21,1.06-2.8,1.09-4.55,1.09h-.63c-.57,0-1.27-.03-1.51-.33-.36-.42-.48-1.51-.48-2.05,0-.42.12-.75.6-.75.42,0,1.09.12,1.75.12.72,0,1.3-.06,1.3-.48,0-.36-.42-.39-.66-.39h-5.82c-.51,0-.72.27-.78.75-.15,1.12-.21,1.15-1.33,1.15-.6,0-1.45-.12-2.05-.21-.69-.12-1.09-.3-1.09-.75.03-.15.18-1.03.39-2.44.36-2.35.54-3.5.54-3.68,0-.39-.24-.63-.54-.63h-.27c-.66,0-.57.03-1.24,1.57-.91,2.05-2.08,4.37-3.29,6.24-.21.33-.24.45-.24.84,0,.45-.03.81-.33.81-.21,0-1.03-.63-1.63-1.09-1.54-1.12-1.96-1.51-1.96-1.84,0-.24.27-.57.39-.75,1.57-1.93,3.89-6.43,4.8-8.78.09-.24.15-.42.45-.42.39,0,1.21.51,1.57.72.15.09.3.18.48.18.21,0,.3-.15.3-.33v-.12c0-.69.3-.81.81-.81h.6c.81,0,.75-1.06.81-1.66,0-.18.09-1.12.09-1.24,0-.48-.27-.57-.69-.72-.57-.21-2.78-1.24-2.78-1.93,0-.18.27-.54.39-.69,1.51-2.32,2.56-4.53,3.38-7.18.09-.33.12-.51.39-.51.33,0,2.44.51,2.93.6.18.06.36.09.48.12.79.21,1.12.3,1.12.57,0,.24-.33.33-.48.39-.24.09-.45.24-.45.51,0,.45.54.45.84.45h8.11Zm-18.49,5.76c.63.48,1.27.97,1.84,1.51.15.18.3.3.3.57,0,.63-1.66,2.84-2.32,2.84-.33,0-.97-.54-1.39-.94-.06-.06-.15-.12-.21-.18-.81-.69-1.93-1.54-2.84-2.08-.18-.12-.36-.27-.36-.51,0-.6,1.6-2.87,2.32-2.87.48,0,2.2,1.3,2.65,1.66Zm-1.66-8.27c.42,0,2.71,1.69,3.2,2.05l.36.27c.6.42,1.3.94,1.3,1.3,0,.54-1.6,2.87-2.32,2.87-.3,0-.66-.3-.9-.48-1.18-.97-2.35-1.93-3.68-2.69-.15-.12-.3-.21-.3-.42,0-.54,1.63-2.9,2.35-2.9Zm10.95,17.47c-.51,0-.54.21-.69,1.69v.09c0,.18.15.45.54.45h.3c.42,0,.57-.12.63-.54.03-.21.09-.97.09-1.12,0-.36-.12-.57-.51-.57h-.36Zm.78-3.62c.36,0,.51-.15.54-.48l.09-1v-.15c0-.39-.3-.45-.69-.45-.57,0-.78.12-.78,1.57,0,.33.24.51.57.51h.27Zm4.65,3.62c-.39,0-.51.15-.57.51-.03.21-.09.97-.09,1.06,0,.39.06.66.48.66h.63c.42,0,.6-.12.6-1.75,0-.24-.18-.48-.63-.48h-.42Zm-.12-4.25c0,.39.12.63.51.63h.33c.6,0,.6-.36.6-1.24,0-.72-.18-.84-.88-.84-.24,0-.42.18-.48.54-.03.18-.09.78-.09.9Z"/>
      <path class="cls-1" d="m109.16,114.96c-.51,0-.84.36-.84.84v1.81c0,3.35-.39,7.39-1.57,10.41-.72,1.87-1.06,2.11-1.54,2.11-1.15,0-3.62-1.45-3.62-2.17,0-.15.09-.3.21-.48,1.57-2.59,2.14-6.94,2.14-10.05v-2.38c0-.97-.09-1.75-.09-2.35,0-1.15.75-1.36,1.75-1.36,1.06,0,2.11.06,3.17.06h15.11c1.24,0,2.5-.06,3.74-.06.72,0,.81.24.81,1.12v1.48c0,.87-.09,1.09-.84,1.09-1.24,0-2.47-.06-3.71-.06h-14.72Zm11.77-8.21c.57,0,.9-.36.9-.91,0-.27,0-.6-.03-.94-.06-.48-.09-.75-.09-.94,0-.36.3-.42.6-.42.21,0,3.32.15,3.65.18.3.03.66.12.66.48,0,.15-.06.21-.24.36-.3.24-.33.87-.33,1.36v1.66c0,.6.09,1.27.09,1.66,0,.97-.94,1-1.63,1h-18.37c-.69,0-1.63-.03-1.63-1,0-.3.06-1.06.06-1.66v-1.66c0-.57-.09-1.66-.09-1.96,0-.36.27-.42.57-.42.24,0,3.32.15,3.68.18.33.03.66.12.66.48,0,.15-.06.21-.27.36-.24.18-.3.63-.3,1.27s.39.91.96.91h2.35c.79,0,.96-.51.96-.78s-.03-.88-.06-1.42-.06-1.06-.06-1.18c0-.33.42-.33.63-.33.36,0,2.62.09,3.47.15.75.06,1.06.09,1.06.45,0,.18-.12.27-.33.45-.27.24-.3.78-.3,1.33v.51c0,.42.33.81,1.06.81h2.35Zm-7.99,18.52c-1.12,0-2.2.06-3.29.06-.72,0-.78-.36-.78-1.21v-1.12c0-1,.12-1.27.81-1.27,1.09,0,2.17.06,3.26.06h2.53c.48,0,.84-.36.84-.84v-.24c0-.69-.33-1.03-1.03-1.03h-.33c-1.09,0-2.14.06-3.23.06-.75,0-.81-.27-.81-1.09v-1.3c0-.88.06-1.18.84-1.18,1.06,0,2.11.06,3.2.06h7.63c1.06,0,2.14-.06,3.2-.06.78,0,.84.3.84,1.18v1.27c0,.84-.09,1.12-.84,1.12-1.06,0-2.14-.06-3.2-.06h-.9c-.6,0-.97.33-.97.94v.33c0,.48.39.84.84.84h3.14c1.09,0,2.17-.06,3.26-.06.75,0,.81.33.81,1.15v1.45c0,.84-.15,1-1.09,1-.6,0-1.54-.06-2.99-.06h-2.99c-.51,0-1,.18-1,.81,0,1.18.09,2.35.09,3.53,0,.75-.33.84-1.33.84h-1.93c-1.03,0-1.33-.06-1.33-.88,0-1.15.09-2.29.09-3.44,0-.51-.36-.87-1.03-.87h-2.35Z"/>
      <path class="cls-1" d="m148.58,125.55c0,1,.03,1.99.03,3.02,0,1.45-.09,1.57-1.95,1.57h-1.29c-1.15,0-1.49-.15-1.49-.94,0-1.21.06-2.38.06-3.59v-17.41c0-1.24-.06-2.81-.06-3.74,0-.39.06-.57.46-.57.34,0,3.72.39,4.41.6.17.06.32.18.32.36,0,.15-.09.27-.17.36-.14.21-.32.45-.32,1.09v5.85c0,.15.03.42.34.42.17,0,.34-.12.49-.12.23,0,.6.21,1.06.48.92.6,2.09,1.57,2.46,1.87.72.6,2.01,1.75,2.64,2.44.12.15.2.3.2.48,0,.6-2.09,3.05-2.75,3.05-.26,0-.54-.3-.72-.48-.49-.48-2.84-2.72-3.3-2.72-.4,0-.43.42-.43.72v7.24Z"/>
      <path class="cls-1" d="m181.48,112c.75,0,1.52,0,1.89-.06.2-.03.46-.06.66-.06.46,0,1.4.94,1.8,1.33.34.36.86.88.86,1.36,0,.27-.37,1.21-.46,1.51-1.55,4.59-4.1,8.05-7.68,11.04-.83.72-3.78,2.96-4.76,2.96-.86,0-2.87-2.65-2.87-3.23,0-.27.37-.45.57-.54,2.98-1.3,6.08-4.07,8.02-6.76.34-.48,1.26-1.84,1.26-2.41,0-.6-.57-.66-.92-.66h-9.77c-1.29,0-2.55.03-3.81.03-.86,0-.97-.27-.97-1.45v-1.72c0-1.21.17-1.39.92-1.39,1.32,0,2.64.06,3.95.06h11.29Zm-2.44-6.58c.89,0,1.81,0,2.72-.03.37,0,.75-.06,1.12-.06.72,0,.83.42.83,1.51v1.42c0,1.24-.03,1.63-.92,1.63-1.26,0-2.52-.03-3.75-.03h-6.68c-1.23,0-2.49.03-3.75.03-.86,0-.92-.39-.92-1.54v-1.66c0-1,.17-1.36.83-1.36.86,0,2.44.09,3.84.09h6.68Z"/>
      <path class="cls-1" d="m209.88,112.66c2.89,3.11,5.3,5.49,8.65,8.05.23.15.49.36.49.69,0,.87-2.09,3.68-3.09,3.68-.54,0-1.63-1.03-2.09-1.45-2.26-2.08-5.42-5.49-7.48-7.87-.26-.33-.63-.78-1.06-.78-.32,0-.72.27-.95.45-.8.69-3.78,3.74-4.61,4.62-.37.42-.72.81-1.09.81-.52,0-1.6-1.36-1.98-1.81-.29-.36-1.38-1.75-1.38-2.14,0-.3.66-.63.89-.75,2.18-1.27,4.27-3.38,6.19-5.1.75-.66,1.98-1.3,2.98-1.3,1.8,0,3.12,1.39,4.53,2.9Zm6.16.12c0,.54-1.35,1.75-1.66,1.75-.14,0-.32-.21-.4-.33-.63-.81-1.43-1.69-2.15-2.35-.14-.12-.31-.3-.31-.48,0-.42,1.46-1.57,1.75-1.57s2.78,2.53,2.78,2.99Zm.17-5.61c.26,0,2.81,2.44,2.81,2.93,0,.54-1.29,1.75-1.63,1.75-.11,0-.37-.27-.66-.57-.6-.69-1.23-1.39-1.92-2.02-.14-.12-.34-.3-.34-.45,0-.45,1.4-1.63,1.75-1.63Z"/>
      <path class="cls-1" d="m235.36,107.57c.54.06,1,.12,1,.36,0,.12-.11.24-.17.3-.26.3-.32.51-.32,1.15,0,.36.03.72.03,1.09,0,2.5-.09,5.28-.54,7.72-.54,3.08-2.18,6.18-4.27,8.39-.32.33-.8.88-1.17.88-.6,0-2.21-1.06-2.78-1.45-.29-.18-.77-.48-.77-.87,0-.27.23-.48.43-.66,4.21-3.8,4.7-7.84,4.7-13.33,0-1.39-.12-3.47-.12-3.59,0-.27.14-.3.37-.3.6,0,2.87.24,3.61.33Zm7.08,10.89c0,1.24.06,1.66.57,1.66,1.03,0,5.53-4.46,6.45-5.43.14-.15.34-.39.6-.39.4,0,.89.94,1.26,1.63.23.42.75,1.39.75,1.87,0,.54-.83,1.3-1.35,1.78-.09.09-.2.18-.26.24-1.35,1.24-2.69,2.44-4.1,3.62-1.17,1-2.41,1.93-3.55,2.99-.29.27-.72.69-1.06.69-.43,0-2.15-.9-2.58-1.18-.49-.27-1.23-.72-1.23-1.42,0-.6.09-1.96.09-3.65v-9.47c0-.6.03-1.6.03-2.53,0-.69-.03-1.36-.06-1.75-.03-.09-.03-.15-.03-.24,0-.21.14-.24.32-.24.06,0,1.23.12,1.46.15.46.06,2.46.3,2.87.36.23.06.4.09.4.33,0,.18-.14.3-.26.42-.29.3-.29.75-.29,1.15-.03.91-.03,1.81-.03,2.72v6.7Z"/>
      <path class="cls-1" d="m268.8,110.46c.29.15,2.04,1.15,2.21,1.3.11.09.23.18.23.36,0,.15-.06.21-.26.33-.4.21-.52.42-.72.81-1.63,3.17-3.32,6-5.5,8.78-.43.54-2.04,2.59-2.61,2.59-.49,0-3.55-1.93-3.55-2.68,0-.21.14-.39.26-.51,3.09-3.23,5.73-6.97,7.45-11.22.14-.33.26-.63.49-.63.34,0,1.63.66,2.01.88Zm9.03.06c.37.3,1.72,2.14,2.06,2.65.89,1.27,4.5,7.03,4.5,8.33,0,.66-1.35,1.39-1.83,1.66s-1.58.81-2.09.81c-.37,0-.54-.36-.66-.69-1.2-3.02-3.47-7.3-5.42-9.83-.17-.21-.34-.42-.34-.69,0-.45,1.09-1.24,1.46-1.51.4-.3,1.23-.94,1.69-.94.23,0,.43.09.63.21Zm7.42-1.39c0,1.72-1.35,3.14-3.01,3.14s-2.98-1.42-2.98-3.14,1.35-3.17,2.98-3.17,3.01,1.42,3.01,3.17Zm-4.53,0c0,.87.69,1.6,1.52,1.6s1.52-.72,1.52-1.6-.66-1.6-1.52-1.6-1.52.72-1.52,1.6Z"/>
      <path class="cls-1" d="m307.46,107.29c.57,0,1.4,0,1.98-.09.2-.03.52-.06.72-.06.89,0,2.46,2.26,2.46,2.69,0,.15-.23.57-.43.94-.54,1.03-2.24,4.16-3.98,6.52-.14.18-.23.33-.23.57,0,.3.14.48.4.63,1.75,1.27,3.61,2.81,5.22,4.28.29.27,1.29,1.21,1.49,1.48.11.09.17.21.17.36,0,.84-2.41,3.5-3.21,3.5-.43,0-.8-.48-1.12-.88-.03-.09-.09-.15-.14-.21-1.46-1.84-3.24-3.41-5.04-4.86-.29-.21-.69-.51-.95-.51-.29,0-.52.15-.72.36-1.38,1.33-2.92,2.56-4.5,3.62-.63.42-3.41,2.14-3.98,2.14-.52,0-1.58-1.66-1.89-2.14-.23-.36-.72-1.24-.72-1.63,0-.45.4-.63.75-.75,4.44-1.66,9.2-5.73,11.78-9.89.14-.21.4-.63.4-.91,0-.51-.49-.57-.97-.57h-4.36c-1.29,0-2.61.06-3.93.06-.72,0-.77-.36-.77-1.45v-2.02c0-1.06.06-1.27.75-1.27,1.32,0,2.64.09,3.96.09h6.88Z"/>
      <path class="cls-1" d="m330.96,118.12c.32.18.54.42.54.6,0,.15-.17.24-.29.3-.43.24-.52.42-.8.78-.72.91-4.44,5.4-5.33,5.4-.57,0-2.87-2.2-2.87-2.96,0-.3.49-.66.72-.84,1.55-1.21,3.01-2.81,3.95-4.56.12-.21.26-.51.54-.51.4,0,2.46,1.18,3.52,1.78Zm.95-7.66c.75,0,.8-.66.8-1.15v-.27c-.03-1.21,0-1.99-.14-3.2,0-.12-.03-.27-.03-.42,0-.36.29-.42.69-.42.43,0,3.41.36,3.93.45.17.03.49.09.49.33,0,.21-.17.36-.29.48-.29.3-.34.57-.34,1v.39c0,.45-.03.91-.03,1.39v.27c0,.48.09,1.15.77,1.15h3.7c1.32,0,2.98-.09,4.07-.09.69,0,.8.36.8,1.48v1.54c0,1.12-.11,1.51-.92,1.51-1.32,0-2.64-.03-3.95-.03h-3.58c-.49,0-.89.39-.89.9v6.18c0,.6.03,1.24.03,1.87,0,1.57-.14,3.08-1.15,3.89-.95.75-3.27,1.42-4.47,1.42-.52,0-.66-.18-1.09-1.03-.26-.54-.97-2.23-.97-2.78,0-.45.63-.48.95-.51,2.24-.12,2.44-.42,2.44-2.65v-6.4c0-.51-.4-.9-.89-.9h-3.81c-1.26,0-2.49.06-3.75.06-.77,0-.89-.54-.89-1.57v-1.48c0-1.27.14-1.51.8-1.51.37,0,2.58.09,3.84.09h3.9Zm12.61,8.21c.54.54,2.64,2.65,2.64,3.35,0,.78-2.21,3.02-2.84,3.02-.31,0-.75-.57-1.35-1.39-.86-1.15-2.35-2.81-3.64-3.89-.2-.18-.46-.39-.46-.66,0-.51.75-1.36,1.09-1.72.63-.72.97-1.12,1.43-1.12.83,0,2.52,1.78,3.12,2.41Zm3.64-12.37c0,1.75-1.32,3.17-2.98,3.17s-2.98-1.42-2.98-3.17,1.32-3.14,2.98-3.14,2.98,1.42,2.98,3.14Zm-4.5,0c0,.91.69,1.6,1.52,1.6s1.52-.72,1.52-1.6-.69-1.6-1.52-1.6-1.52.72-1.52,1.6Z"/>
      <path class="cls-1" d="m372.73,114.11c1.6,0,3.34-.12,3.58-.12.71,0,.81.33.81,1.21v1.45c0,1.66-.03,2.17-.9,2.17-1.06,0-2.31-.09-3.5-.09h-12.49c-1.19,0-2.47.09-3.47.09-.92,0-.92-.57-.92-2.17v-1.39c0-.9.08-1.27.79-1.27.38,0,1.9.12,3.61.12h12.49Z"/>
      <path class="cls-1" d="m390.35,125.55c0,1,.03,1.99.03,3.02,0,1.45-.09,1.57-1.95,1.57h-1.29c-1.15,0-1.49-.15-1.49-.94,0-1.21.06-2.38.06-3.59v-17.41c0-1.24-.06-2.81-.06-3.74,0-.39.06-.57.46-.57.34,0,3.73.39,4.41.6.17.06.32.18.32.36,0,.15-.09.27-.17.36-.14.21-.32.45-.32,1.09v5.85c0,.15.03.42.34.42.17,0,.34-.12.49-.12.23,0,.6.21,1.06.48.92.6,2.09,1.57,2.46,1.87.72.6,2.01,1.75,2.64,2.44.11.15.2.3.2.48,0,.6-2.09,3.05-2.75,3.05-.26,0-.54-.3-.72-.48-.49-.48-2.84-2.72-3.29-2.72-.4,0-.43.42-.43.72v7.24Z"/>
    </g>
    <g>
      <path class="cls-1" d="m19.21,37.68v3.97h-7.48v36.3h-4.31v-36.3H0v-3.97h19.21Z"/>
      <path class="cls-1" d="m36.07,37.68c4.37,0,10.64.63,10.64,9.55v3.16c0,4.43-1.84,7.42-5.52,8.57l6.44,18.98h-4.49l-5.93-18.12h-4.89v18.12h-4.31v-40.27h8.05Zm-3.74,18.41h4.26c3.16,0,5.81-1.84,5.81-5.41v-3.8c0-5-3.85-5.46-6.04-5.46h-4.03v14.67Z"/>
      <path class="cls-1" d="m72.48,77.95l-2.01-8.97h-9.09l-1.96,8.97h-4.2l8.74-40.27h3.91l8.8,40.27h-4.2Zm-6.67-31.64l-3.85,18.98h7.88l-4.03-18.98Z"/>
      <path class="cls-1" d="m95.72,77.95h-3.85l-8.57-40.27h4.83l5.64,29.86h.17l5.75-29.86h4.54l-8.51,40.27Z"/>
      <path class="cls-1" d="m112.75,37.68h16.17v3.97h-11.85v14.04h10.47v3.74h-10.47v14.55h12.02v3.97h-16.34v-40.27Z"/>
      <path class="cls-1" d="m142.49,37.68v36.3h12.71v3.97h-17.03v-40.27h4.31Z"/>
      <path class="cls-1" d="m180.58,37.68h8.74c7.25,0,9.95,4.72,9.95,10.24v3.57c0,5.18-3.34,9.84-9.09,9.84h-5.29v16.62h-4.31v-40.27Zm4.31,19.96h4.08c3.97,0,5.98-2.65,5.98-5.46v-4.77c0-3.68-1.9-5.98-5.92-5.98h-4.14v16.22Z"/>
      <path class="cls-1" d="m223.95,77.95l-2.01-8.97h-9.09l-1.96,8.97h-4.2l8.74-40.27h3.91l8.8,40.27h-4.2Zm-6.67-31.64l-3.85,18.98h7.88l-4.03-18.98Z"/>
      <path class="cls-1" d="m251.27,47.35c0-1.04-.12-2.93-1.21-4.37-.69-.81-1.78-1.67-3.85-1.67-1.04,0-2.42.23-3.51,1.32-1.38,1.44-1.5,3.34-1.5,4.89,0,1.21.06,3.28,1.04,4.83.81,1.15,2.19,1.84,3.16,2.19l3.68,1.32c1.67.58,3.8,1.55,5.12,3.39,1.44,1.96,1.61,4.14,1.61,6.67v1.44c0,3.97-1.09,6.9-2.65,8.63-1.44,1.5-3.97,2.53-7.19,2.53-3.97,0-6.5-1.44-7.77-3.16-1.73-2.3-1.73-6.16-1.73-6.67v-1.44h4.31v1.15c0,1.09.17,2.99,1.15,4.26,1.27,1.5,2.99,1.67,3.97,1.67,2.65,0,3.8-1.04,4.43-1.78,1.09-1.38,1.15-3.28,1.15-4.66v-1.55c0-1.55-.17-3.57-1.15-4.77-.98-1.32-2.59-1.96-3.28-2.19l-4.37-1.55c-1.96-.69-3.91-1.78-5-4.31-.75-1.78-.8-3.74-.8-5.7v-1.21c0-3.22,1.21-5.64,2.88-7.19,1.78-1.73,4.08-2.3,6.62-2.3,5.52,0,9.2,3.57,9.2,10.01v1.38h-4.31v-1.15Z"/>
      <path class="cls-1" d="m279.81,47.35c0-1.04-.12-2.93-1.21-4.37-.69-.81-1.78-1.67-3.85-1.67-1.04,0-2.42.23-3.51,1.32-1.38,1.44-1.5,3.34-1.5,4.89,0,1.21.06,3.28,1.04,4.83.81,1.15,2.19,1.84,3.16,2.19l3.68,1.32c1.67.58,3.8,1.55,5.12,3.39,1.44,1.96,1.61,4.14,1.61,6.67v1.44c0,3.97-1.09,6.9-2.65,8.63-1.44,1.5-3.97,2.53-7.19,2.53-3.97,0-6.5-1.44-7.77-3.16-1.73-2.3-1.73-6.16-1.73-6.67v-1.44h4.31v1.15c0,1.09.17,2.99,1.15,4.26,1.27,1.5,2.99,1.67,3.97,1.67,2.65,0,3.8-1.04,4.43-1.78,1.09-1.38,1.15-3.28,1.15-4.66v-1.55c0-1.55-.17-3.57-1.15-4.77-.98-1.32-2.59-1.96-3.28-2.19l-4.37-1.55c-1.96-.69-3.91-1.78-5-4.31-.75-1.78-.8-3.74-.8-5.7v-1.21c0-3.22,1.21-5.64,2.88-7.19,1.78-1.73,4.08-2.3,6.62-2.3,5.52,0,9.2,3.57,9.2,10.01v1.38h-4.31v-1.15Z"/>
      <path class="cls-1" d="m294.59,37.68h8.74c7.25,0,9.95,4.72,9.95,10.24v3.57c0,5.18-3.34,9.84-9.09,9.84h-5.29v16.62h-4.31v-40.27Zm4.31,19.96h4.08c3.97,0,5.98-2.65,5.98-5.46v-4.77c0-3.68-1.9-5.98-5.92-5.98h-4.14v16.22Z"/>
      <path class="cls-1" d="m322.32,47.87c0-2.99.23-5.87,2.88-8.34,1.61-1.55,3.91-2.42,6.79-2.42s5.18.86,6.79,2.42c2.65,2.47,2.88,5.35,2.88,8.34v19.9c0,2.99-.23,5.87-2.88,8.34-1.61,1.55-3.91,2.42-6.79,2.42s-5.18-.86-6.79-2.42c-2.65-2.47-2.88-5.35-2.88-8.34v-19.9Zm15.01-.92c0-1.44-.12-2.88-1.5-4.2-.81-.81-2.13-1.44-3.85-1.44s-3.05.63-3.85,1.44c-1.38,1.32-1.5,2.76-1.5,4.2v21.74c0,1.44.12,2.88,1.5,4.26.8.75,2.13,1.38,3.85,1.38s3.05-.63,3.85-1.38c1.38-1.38,1.5-2.82,1.5-4.26v-21.74Z"/>
      <path class="cls-1" d="m360.69,37.68c4.37,0,10.64.63,10.64,9.55v3.16c0,4.43-1.84,7.42-5.52,8.57l6.44,18.98h-4.49l-5.92-18.12h-4.89v18.12h-4.31v-40.27h8.05Zm-3.74,18.41h4.26c3.16,0,5.81-1.84,5.81-5.41v-3.8c0-5-3.85-5.46-6.04-5.46h-4.03v14.67Z"/>
      <path class="cls-1" d="m398.48,37.68v3.97h-7.48v36.3h-4.31v-36.3h-7.42v-3.97h19.21Z"/>
    </g>
    <g>
      <path class="cls-1" d="m124.57.2h5.66v1.39h-4.15v4.91h3.66v1.31h-3.66v5.09h4.21v1.39h-5.72V.2Z"/>
      <path class="cls-1" d="m141.08,3.24c0-.5-.2-1.77-1.65-1.77-1.59,0-1.73,1.37-1.73,2.13v7.59c0,.5.22,1.83,1.63,1.83.78,0,1.75-.34,1.75-1.97v-.44h1.53v.52c0,2.01-.93,3.36-3.34,3.36-2.82,0-3.08-2.29-3.08-3.1V3.06c0-1.59,1.11-3.06,3.16-3.06,1.75,0,3.2.85,3.2,3.08v.91h-1.47v-.74Z"/>
      <path class="cls-1" d="m150.17.2v6.3h3.4V.2h1.51v14.09h-1.51v-6.48h-3.4v6.48h-1.51V.2h1.51Z"/>
      <path class="cls-1" d="m163.43.2v14.09h-1.51V.2h1.51Z"/>
      <path class="cls-1" d="m175.95.2v1.33l-4.51,11.37h4.41v1.39h-5.92v-1.55l4.41-11.15h-4.11V.2h5.71Z"/>
      <path class="cls-1" d="m182.35.2h5.66v1.39h-4.15v4.91h3.66v1.31h-3.66v5.09h4.21v1.39h-5.72V.2Z"/>
      <path class="cls-1" d="m195.57.2l3.99,10.49V.2h1.51v14.09h-1.51l-3.99-10.28v10.28h-1.51V.2h1.51Z"/>
      <path class="cls-1" d="m221.33,3.24c0-.5-.2-1.77-1.65-1.77-1.59,0-1.73,1.37-1.73,2.13v7.59c0,.5.22,1.83,1.63,1.83.79,0,1.75-.34,1.75-1.97v-.44h1.53v.52c0,2.01-.93,3.36-3.34,3.36-2.82,0-3.08-2.29-3.08-3.1V3.06c0-1.59,1.11-3.06,3.16-3.06,1.75,0,3.2.85,3.2,3.08v.91h-1.47v-.74Z"/>
      <path class="cls-1" d="m228.82,3.76c0-1.05.08-2.05,1.01-2.92.56-.54,1.37-.85,2.38-.85s1.81.3,2.38.85c.93.87,1.01,1.87,1.01,2.92v6.96c0,1.05-.08,2.05-1.01,2.92-.56.54-1.37.85-2.38.85s-1.81-.3-2.38-.85c-.93-.87-1.01-1.87-1.01-2.92V3.76Zm5.25-.32c0-.5-.04-1.01-.52-1.47-.28-.28-.75-.5-1.35-.5s-1.07.22-1.35.5c-.48.46-.52.97-.52,1.47v7.61c0,.5.04,1.01.52,1.49.28.26.74.48,1.35.48s1.07-.22,1.35-.48c.48-.48.52-.99.52-1.49V3.44Z"/>
      <path class="cls-1" d="m247.61,14.29l-.7-3.14h-3.18l-.68,3.14h-1.47l3.06-14.09h1.37l3.08,14.09h-1.47Zm-2.33-11.07l-1.35,6.64h2.76l-1.41-6.64Z"/>
      <path class="cls-1" d="m259.99,3.58c0-.36-.04-1.03-.42-1.53-.24-.28-.62-.58-1.35-.58-.36,0-.84.08-1.23.46-.48.5-.52,1.17-.52,1.71,0,.42.02,1.15.36,1.69.28.4.77.64,1.11.76l1.29.46c.58.2,1.33.54,1.79,1.19.5.68.56,1.45.56,2.33v.5c0,1.39-.38,2.42-.93,3.02-.5.52-1.39.89-2.52.89-1.39,0-2.27-.5-2.72-1.11-.6-.81-.6-2.15-.6-2.33v-.5h1.51v.4c0,.38.06,1.05.4,1.49.44.52,1.05.58,1.39.58.93,0,1.33-.36,1.55-.62.38-.48.4-1.15.4-1.63v-.54c0-.54-.06-1.25-.4-1.67-.34-.46-.91-.68-1.15-.77l-1.53-.54c-.68-.24-1.37-.62-1.75-1.51-.26-.62-.28-1.31-.28-1.99v-.42c0-1.13.42-1.97,1.01-2.52.62-.6,1.43-.8,2.31-.8,1.93,0,3.22,1.25,3.22,3.5v.48h-1.51v-.4Z"/>
      <path class="cls-1" d="m273.84.2v1.39h-2.62v12.7h-1.51V1.59h-2.6V.2h6.72Z"/>
    </g>
  </g>
</svg>