<?xml version="1.0" encoding="UTF-8"?>
<svg id="_レイヤー_2" data-name="レイヤー 2" xmlns="http://www.w3.org/2000/svg" viewBox="0 0 170.85 307.52">
  <defs>
    <style>
      .cls-1 {
        fill: #acddf7;
      }

      .cls-2 {
        fill: #efed72;
      }

      .cls-3 {
        fill: #c3db80;
      }

      .cls-4 {
        fill: #0b783b;
      }

      .cls-5 {
        fill: #00b3ec;
      }

      .cls-6 {
        fill: none;
        stroke: #fff;
        stroke-linecap: round;
        stroke-linejoin: round;
        stroke-width: .58px;
      }

      .cls-7 {
        fill: #0062b0;
      }
    </style>
  </defs>
  <g id="_施設名とテキスト" data-name="施設名とテキスト">
    <g>
      <rect class="cls-2" x="-68.34" y="68.34" width="307.52" height="170.84" transform="translate(-68.34 239.19) rotate(-90)"/>
      <g>
        <polygon class="cls-5" points="109.66 301.6 11.58 265.44 162.4 7.46 109.66 301.6"/>
        <polyline class="cls-6" points="107.38 295.24 155.81 25.18 17.34 262.04"/>
        <g>
          <path class="cls-6" d="m16.16,263.65c.51-1.39,2.3-2,4-1.37,1.7.63,2.66,2.26,2.15,3.64"/>
          <path class="cls-6" d="m22.23,265.89c.51-1.39,2.3-2,4-1.37s2.66,2.26,2.15,3.64"/>
          <path class="cls-6" d="m28.29,268.12c.51-1.39,2.3-2,4-1.37s2.66,2.26,2.15,3.64"/>
          <path class="cls-6" d="m34.36,270.36c.51-1.39,2.3-2,4-1.37,1.7.63,2.66,2.26,2.15,3.64"/>
          <path class="cls-6" d="m40.42,272.6c.51-1.39,2.3-2,4-1.37s2.66,2.26,2.15,3.64"/>
          <path class="cls-6" d="m46.49,274.83c.51-1.39,2.3-2,4-1.37,1.7.63,2.66,2.26,2.15,3.64"/>
          <path class="cls-6" d="m52.56,277.07c.51-1.39,2.3-2,4-1.37,1.7.63,2.66,2.26,2.15,3.64"/>
          <path class="cls-6" d="m58.62,279.31c.51-1.39,2.3-2,4-1.37,1.7.63,2.66,2.26,2.15,3.64"/>
          <path class="cls-6" d="m64.69,281.54c.51-1.39,2.3-2,4-1.37,1.7.63,2.66,2.26,2.15,3.64"/>
          <path class="cls-6" d="m70.76,283.78c.51-1.39,2.3-2,4-1.37s2.66,2.26,2.15,3.64"/>
          <path class="cls-6" d="m76.82,286.02c.51-1.39,2.3-2,4-1.37s2.66,2.26,2.15,3.64"/>
          <path class="cls-6" d="m82.89,288.25c.51-1.39,2.3-2,4-1.37s2.66,2.26,2.15,3.64"/>
          <path class="cls-6" d="m88.95,290.49c.51-1.39,2.3-2,4-1.37s2.66,2.26,2.15,3.64"/>
          <path class="cls-6" d="m95.02,292.73c.51-1.39,2.3-2,4-1.37s2.66,2.26,2.15,3.64"/>
          <path class="cls-6" d="m101.09,294.96c.51-1.39,2.3-2,4-1.37,1.7.63,2.66,2.26,2.15,3.64"/>
        </g>
        <g>
          <g>
            <path class="cls-1" d="m96.03,191.57c-8.87-3.27-17.75-6.54-26.62-9.82,1.2-2.06,2.39-4.12,3.59-6.18.87.32,1.73.64,2.6.96-.68,1.23-1.36,2.45-2.04,3.68,2.36.87,4.72,1.74,7.08,2.61.38-.78.77-1.56,1.15-2.34.88.32,1.75.65,2.63.97-.37.79-.74,1.57-1.11,2.36,3.62,1.33,7.24,2.67,10.86,4,.49-1.3.98-2.59,1.47-3.89.92.34,1.84.68,2.76,1.02-.79,2.21-1.57,4.42-2.36,6.64Z"/>
            <path class="cls-1" d="m97.3,171.94l1.09.4c.55.2,1.03.48,1.45.84.42.36.77.77,1.03,1.23.27.46.44.95.51,1.46.07.51.03,1.02-.15,1.51-.15.42-.37.83-.66,1.21-.29.39-.67.69-1.15.91-.47.22-1.03.34-1.66.36-.63.02-1.38-.13-2.24-.44-5.42-2-10.83-3.99-16.25-5.99-.61-.23-1.14-.52-1.57-.88-.43-.36-.76-.76-.97-1.2-.21-.44-.31-.91-.28-1.4.02-.49.18-.99.48-1.49.57-.98,1.43-1.62,2.56-1.94.55-.16,1.14-.23,1.76-.2.62.02,1.23.15,1.85.37.33.12.66.24.99.37-.37.7-.74,1.41-1.11,2.11-.29-.11-.57-.21-.86-.32-.51-.19-1.01-.23-1.51-.14-.5.1-.86.34-1.08.74-.29.52-.28.94.03,1.26.31.32.78.59,1.4.82,5.08,1.87,10.17,3.75,15.25,5.62.53.2,1.02.26,1.46.2.43-.06.75-.35.94-.85.05-.14.08-.31.09-.5,0-.19-.04-.38-.12-.57-.09-.18-.23-.36-.43-.53-.2-.17-.48-.33-.84-.46-.3-.11-.59-.22-.89-.33.29-.73.59-1.46.88-2.19Z"/>
            <path class="cls-1" d="m103.74,169.86c-7.53-2.78-15.06-5.55-22.6-8.33.4-.69.8-1.38,1.2-2.07,2.76,1.02,5.52,2.04,8.28,3.05.43-.88.86-1.76,1.3-2.63-2.7-.99-5.39-1.99-8.09-2.98.4-.69.8-1.38,1.2-2.07,7.09,2.61,14.17,5.23,21.26,7.84-.26.74-.53,1.48-.79,2.23-3.83-1.41-7.67-2.83-11.5-4.24-.42.88-.83,1.77-1.25,2.65,3.92,1.45,7.85,2.89,11.77,4.34-.26.74-.53,1.48-.79,2.23Z"/>
            <path class="cls-1" d="m108,157.87c-6.79-2.5-13.58-5.01-20.37-7.51.49-.84.98-1.69,1.47-2.53,6.62,2.44,13.25,4.88,19.87,7.33-.32.91-.64,1.81-.97,2.72Z"/>
            <path class="cls-1" d="m110.41,151.09c-.61-.23-1.22-.45-1.83-.68-4.59-3.27-8.97-6.47-13.14-9.59-.69,1.24-1.38,2.49-2.07,3.73-.65-.24-1.3-.48-1.95-.72,1.15-1.99,2.31-3.97,3.46-5.96.51.19,1.03.38,1.54.57,4.09,3.12,8.39,6.32,12.91,9.6.53-1.42,1.07-2.83,1.6-4.25l1.83.67c-.78,2.21-1.57,4.41-2.35,6.62Z"/>
            <path class="cls-1" d="m114.18,140.48c-5.72-2.11-11.43-4.21-17.15-6.32,1.2-2.06,2.39-4.12,3.59-6.18.54.2,1.09.4,1.63.6-.77,1.38-1.53,2.76-2.3,4.14,1.78.66,3.56,1.31,5.34,1.97.38-.78.75-1.57,1.13-2.35l1.67.61c-.36.79-.72,1.58-1.08,2.37,2.05.76,4.1,1.51,6.15,2.27.55-1.46,1.1-2.92,1.66-4.38.58.21,1.15.43,1.73.64-.79,2.21-1.57,4.42-2.36,6.64Z"/>
            <path class="cls-1" d="m117.95,129.87c-5.06-1.87-10.12-3.73-15.18-5.6.39-.66.77-1.33,1.16-1.99,4.05.22,7.95.4,11.71.51,0-.01.01-.03.02-.04-3.29-1.21-6.59-2.43-9.88-3.64.4-.69.8-1.38,1.2-2.07,4.58,1.69,9.16,3.38,13.74,5.07-.25.7-.5,1.4-.74,2.1-3.09.15-6.3.25-9.62.3.55.22,1.11.44,1.66.66,2.25.83,4.49,1.66,6.74,2.48-.26.74-.53,1.48-.79,2.23Z"/>
            <path class="cls-1" d="m116.32,191.05l1.19.44c.59.22,1.14.52,1.63.91.49.39.92.83,1.27,1.32.35.49.61,1.01.77,1.56.16.55.2,1.08.1,1.61-.08.45-.24.88-.47,1.28-.23.41-.57.73-1.02.96-.44.23-.99.36-1.63.37-.64.02-1.43-.14-2.36-.49-3.26-1.2-6.52-2.4-9.78-3.6-.66-.24-1.25-.56-1.77-.95-.51-.39-.93-.82-1.24-1.3-.31-.48-.51-.98-.6-1.52-.09-.53-.05-1.07.13-1.62.34-1.06,1.05-1.76,2.11-2.11.52-.17,1.09-.24,1.71-.22.62.02,1.27.16,1.93.4.36.13.72.27,1.08.4-.21.76-.42,1.52-.63,2.29-.31-.11-.62-.23-.93-.34-.55-.2-1.06-.25-1.54-.15-.48.1-.78.37-.91.8-.17.56-.06,1.02.32,1.36.38.35.91.64,1.58.89,2.95,1.09,5.89,2.17,8.84,3.26.58.21,1.08.29,1.52.23.43-.06.7-.36.81-.9.03-.15.03-.33,0-.53-.03-.2-.1-.4-.22-.61-.12-.19-.3-.38-.53-.57-.24-.19-.55-.35-.93-.49-.32-.12-.64-.24-.96-.35.17-.78.35-1.55.52-2.33Z"/>
            <path class="cls-1" d="m110.89,179.42c-.72-.27-1.33-.62-1.82-1.04-.49-.43-.86-.89-1.11-1.4-.24-.48-.38-.98-.42-1.5-.04-.52.02-1,.16-1.46.15-.46.38-.88.7-1.26.32-.38.71-.7,1.16-.94.46-.22.99-.35,1.58-.38.59-.03,1.23.08,1.91.33,2.61.96,5.21,1.92,7.82,2.88.71.26,1.3.6,1.76,1.02.46.42.83.87,1.09,1.37.28.51.47,1.04.56,1.58.09.54.1,1.04,0,1.52-.09.48-.26.92-.53,1.32-.27.4-.62.72-1.06.96-.42.26-.93.4-1.51.43-.58.03-1.26-.09-2.02-.37-2.77-1.02-5.53-2.04-8.3-3.06Zm8.81.73c.61.23,1.1.24,1.45.03.35-.21.57-.53.66-.95.09-.43.02-.85-.2-1.27-.22-.42-.63-.74-1.23-.96-2.65-.98-5.31-1.96-7.96-2.94-.6-.22-1.08-.23-1.46-.03-.37.2-.63.51-.75.92-.12.41-.09.83.11,1.24.2.41.61.73,1.22.96,2.72,1,5.44,2,8.16,3.01Z"/>
            <path class="cls-1" d="m126.4,167.88c-4.4-2.85-8.66-5.65-12.79-8.4-.52-.33-.75-.95-.58-1.5h0c.18-.55.72-.89,1.3-.81,4.72.51,9.31.98,13.77,1.39-.14.79-.29,1.57-.43,2.36-.78-.04-1.56-.08-2.35-.12-.22,1.06-.43,2.13-.65,3.19.71.51,1.43,1.02,2.16,1.54-.14.79-.29,1.57-.43,2.36Zm-3.2-7.4c-1.91-.29-3.83-.59-5.78-.9,0,.01,0,.03-.01.04,1.74,1.05,3.49,2.11,5.27,3.18.17-.78.35-1.55.52-2.33Z"/>
            <path class="cls-1" d="m122.97,139.55c-.21.76-.42,1.52-.63,2.29l-.41-.15c-.42-.15-.82-.17-1.2-.03-.38.13-.66.49-.83,1.06-.09.31-.12.58-.08.81.04.23.12.43.23.6.13.18.28.33.48.45.19.12.4.22.62.3.26.1.48.16.66.21.18.04.35.04.51,0,.16-.04.31-.13.46-.26.14-.14.3-.34.48-.6.34-.52.68-1.03,1.02-1.55.29-.45.57-.8.86-1.04.29-.24.59-.4.9-.48.32-.06.99-.11,1.44.06.53.19,1,.44,1.42.75.42.3.76.67,1.02,1.09.27.44.45.96.54,1.56.09.59.08,1.27-.06,2.03-.1.57-.28,1.07-.53,1.51-.25.43-.56.78-.91,1.02-.36.25-.75.4-1.18.47-.43.06-.87.01-1.33-.16l-.72-.27c.17-.78.35-1.55.52-2.33l.6.22c.35.13.69.12,1.02-.03.33-.15.55-.52.67-1.12.08-.4.1-.73.05-.98-.05-.26-.14-.48-.28-.66-.14-.18-.33-.33-.56-.44-.23-.11-.77-.4-1.32-.28-.16.04-.3.16-.42.3-.13.14-.27.34-.44.59-.31.49-.63.97-.95,1.45-.58.87-1.19,1.38-1.84,1.51-.65.13-1.4.04-2.25-.27-.51-.19-.97-.45-1.37-.78-.41-.33-.72-.72-.95-1.17-.23-.43-.37-.92-.41-1.47-.04-.55.05-1.15.26-1.82.18-.56.43-1.04.75-1.44.32-.4.66-.72,1.04-.96.78-.47,1.52-.57,2.25-.31l.88.32Z"/>
            <path class="cls-1" d="m132.95,131.97c-2.95-1.09-5.9-2.18-8.85-3.26-.26.87-.53,1.75-.79,2.62-.51-.19-1.03-.38-1.54-.57.8-2.49,1.6-4.98,2.4-7.46.47.17.94.35,1.4.52-.26.87-.53,1.75-.79,2.62,2.87,1.06,5.73,2.11,8.6,3.17-.14.79-.29,1.57-.43,2.36Z"/>
          </g>
          <polygon class="cls-1" points="101.24 177.39 100.51 179.46 99.58 177.15 101.24 177.39"/>
          <polygon class="cls-1" points="75.79 170.4 76.93 168.48 78.4 168.42 77.24 170.16 75.79 170.4"/>
          <polygon class="cls-1" points="102.55 190.02 101.82 192.3 103.77 192.42 102.55 190.02"/>
          <polygon class="cls-1" points="121.28 196.88 120.81 199.51 119.56 197.86 121.28 196.88"/>
          <polygon class="cls-1" points="107.71 174.03 107.07 176.03 108.8 176.23 108.53 173.79 107.71 174.03"/>
          <polygon class="cls-1" points="124.29 180.28 123.95 182.26 122.81 182.04 123.04 180.46 124.29 180.28"/>
          <polygon class="cls-1" points="113.03 157.97 112.47 159.71 114.43 159.95 114.3 158.29 113.03 157.97"/>
        </g>
        <g>
          <path class="cls-7" d="m95.21,193.88c-9.02-3.33-18.04-6.65-27.06-9.98,1.22-2.1,2.43-4.19,3.65-6.29.88.32,1.76.65,2.64.97-.69,1.25-1.39,2.49-2.08,3.74,2.4.88,4.8,1.77,7.19,2.65.39-.79.78-1.59,1.17-2.38.89.33,1.78.66,2.67.98-.37.8-.75,1.6-1.12,2.4,3.68,1.36,7.36,2.71,11.04,4.07.5-1.32,1-2.64,1.5-3.95.94.34,1.87.69,2.81,1.03-.8,2.25-1.6,4.5-2.4,6.75Z"/>
          <path class="cls-7" d="m103.05,171.8c-7.66-2.82-15.31-5.65-22.97-8.47.41-.7.82-1.41,1.22-2.11,2.81,1.03,5.61,2.07,8.42,3.1.44-.89.88-1.78,1.32-2.68-2.74-1.01-5.48-2.02-8.22-3.03.41-.7.82-1.41,1.22-2.11,7.2,2.66,14.41,5.31,21.61,7.97-.27.75-.54,1.51-.8,2.26-3.9-1.44-7.8-2.87-11.69-4.31-.42.9-.85,1.8-1.27,2.7,3.99,1.47,7.98,2.94,11.97,4.41-.27.75-.54,1.51-.8,2.26Z"/>
          <path class="cls-7" d="m107.38,159.62c-6.9-2.55-13.81-5.09-20.71-7.64.5-.86,1-1.72,1.49-2.58,6.73,2.48,13.46,4.96,20.2,7.45-.33.92-.65,1.84-.98,2.76Z"/>
          <path class="cls-7" d="m109.83,152.73c-.62-.23-1.24-.46-1.86-.69-4.66-3.33-9.12-6.57-13.36-9.74-.7,1.26-1.4,2.53-2.11,3.79-.66-.24-1.32-.49-1.98-.73,1.17-2.02,2.34-4.04,3.52-6.06.52.19,1.05.39,1.57.58,4.16,3.17,8.53,6.43,13.13,9.76.54-1.44,1.09-2.88,1.63-4.32.62.23,1.24.46,1.86.69-.8,2.24-1.59,4.48-2.39,6.72Z"/>
          <path class="cls-7" d="m113.66,141.94c-5.81-2.14-11.62-4.28-17.43-6.43,1.22-2.1,2.43-4.19,3.65-6.29.55.2,1.1.41,1.66.61-.78,1.4-1.56,2.81-2.34,4.21,1.81.67,3.62,1.33,5.43,2,.38-.8.77-1.59,1.15-2.39.56.21,1.13.42,1.69.62-.37.8-.73,1.6-1.1,2.4,2.08.77,4.17,1.54,6.25,2.3.56-1.48,1.12-2.97,1.68-4.45l1.76.65c-.8,2.25-1.6,4.5-2.4,6.75Z"/>
          <path class="cls-7" d="m117.49,131.16c-5.14-1.9-10.29-3.79-15.43-5.69.39-.68.78-1.35,1.18-2.03,4.11.23,8.08.4,11.9.52,0-.01.01-.03.02-.04-3.35-1.23-6.7-2.47-10.05-3.7.41-.7.82-1.41,1.22-2.11,4.66,1.72,9.31,3.43,13.97,5.15-.25.71-.5,1.42-.76,2.13-3.14.15-6.4.25-9.78.31.56.22,1.13.45,1.69.67,2.28.84,4.57,1.68,6.85,2.52-.27.75-.54,1.51-.8,2.26Z"/>
          <path class="cls-7" d="m115.82,193.34c.4.15.8.3,1.21.44.6.22,1.15.53,1.65.92.5.39.93.84,1.29,1.34.36.5.62,1.03.79,1.58.17.55.2,1.1.1,1.63-.08.46-.24.89-.48,1.3-.24.41-.58.74-1.03.97-.45.23-1,.36-1.66.38-.65.02-1.45-.15-2.4-.49-3.31-1.22-6.62-2.44-9.94-3.66-.67-.25-1.27-.57-1.79-.96-.52-.39-.94-.83-1.26-1.32-.32-.48-.52-1-.61-1.54-.09-.54-.05-1.09.13-1.65.35-1.08,1.07-1.79,2.14-2.15.53-.17,1.11-.25,1.74-.22.63.02,1.29.16,1.96.41.37.13.73.27,1.1.4-.21.77-.43,1.55-.64,2.32l-.95-.35c-.56-.21-1.08-.25-1.56-.15-.49.11-.8.38-.93.81-.17.57-.06,1.03.32,1.39.39.35.93.65,1.61.91,3,1.1,5.99,2.21,8.99,3.31.59.22,1.1.29,1.54.23.44-.06.71-.37.82-.91.03-.16.03-.33,0-.54-.03-.2-.1-.41-.22-.62-.12-.2-.3-.39-.54-.58-.24-.19-.56-.36-.95-.5l-.98-.36c.18-.79.35-1.58.53-2.37Z"/>
          <path class="cls-7" d="m126.06,169.78c-4.47-2.9-8.8-5.74-13-8.54-.53-.34-.77-.97-.59-1.53h0c.18-.56.73-.9,1.32-.83,4.8.52,9.47.99,14,1.42-.15.8-.29,1.6-.44,2.4-.79-.04-1.59-.08-2.39-.13-.22,1.08-.44,2.16-.66,3.25.73.52,1.46,1.04,2.19,1.56-.15.8-.29,1.6-.44,2.4Zm-3.25-7.52c-1.94-.3-3.9-.6-5.87-.91,0,.02,0,.03-.01.05,1.77,1.07,3.55,2.15,5.36,3.23.18-.79.35-1.58.53-2.37Z"/>
          <path class="cls-7" d="m122.58,140.99c-.21.77-.43,1.55-.64,2.32l-.42-.16c-.43-.16-.83-.17-1.22-.03-.39.13-.67.49-.84,1.08-.09.32-.12.59-.08.82.04.23.12.44.24.61.13.18.29.33.48.45.19.12.41.22.63.31.26.1.49.17.67.21.18.04.36.04.52,0,.16-.04.32-.13.46-.27.15-.14.31-.34.49-.61.35-.52.69-1.05,1.03-1.58.29-.46.58-.81.87-1.06.29-.24.59-.41.91-.49.33-.06,1-.11,1.46.06.54.2,1.02.45,1.45.76.43.31.78.68,1.04,1.11.27.45.46.98.55,1.58.1.6.08,1.29-.06,2.06-.11.58-.28,1.09-.54,1.53-.26.44-.56.79-.93,1.04-.36.25-.76.41-1.2.47-.44.07-.89.01-1.35-.16l-.74-.27c.18-.79.35-1.58.53-2.37l.61.22c.35.13.7.12,1.04-.03.34-.15.56-.53.69-1.14.08-.4.1-.74.05-1-.05-.26-.14-.48-.29-.67-.15-.19-.33-.34-.57-.45-.23-.11-.78-.41-1.34-.28-.16.04-.3.16-.43.31-.13.15-.27.35-.44.6-.32.49-.64.99-.96,1.48-.59.89-1.21,1.4-1.87,1.53-.66.13-1.43.04-2.29-.28-.52-.19-.98-.45-1.4-.79-.41-.34-.74-.73-.97-1.18-.23-.44-.37-.94-.41-1.49-.04-.56.05-1.17.27-1.85.18-.57.44-1.06.76-1.46.32-.41.67-.73,1.06-.98.79-.48,1.55-.58,2.28-.31.3.11.59.22.89.33Z"/>
          <path class="cls-7" d="m132.73,133.28c-3-1.11-6-2.21-9-3.32-.27.89-.53,1.78-.8,2.67-.52-.19-1.05-.39-1.57-.58.81-2.53,1.62-5.06,2.44-7.59.48.18.95.35,1.43.53-.27.89-.53,1.78-.8,2.67,2.91,1.07,5.83,2.15,8.74,3.22-.15.8-.29,1.6-.44,2.4Z"/>
          <path class="cls-7" d="m96.5,173.92c.37.14.74.27,1.11.41.56.2,1.05.49,1.48.86.43.37.78.79,1.05,1.25.27.47.45.96.52,1.49.08.52.03,1.03-.15,1.54-.15.43-.38.84-.67,1.23-.3.39-.69.7-1.17.92-.48.22-1.04.35-1.69.37-.64.02-1.41-.13-2.28-.45-5.51-2.03-11.01-4.06-16.52-6.09-.62-.23-1.16-.53-1.6-.89-.44-.36-.77-.77-.98-1.22-.22-.45-.31-.92-.29-1.42.02-.5.19-1.01.48-1.52.58-.99,1.45-1.65,2.6-1.98.56-.16,1.16-.23,1.79-.21.63.02,1.25.15,1.88.38.34.12.67.25,1.01.37-.38.71-.76,1.43-1.13,2.14-.29-.11-.58-.21-.87-.32-.51-.19-1.02-.24-1.53-.14-.51.1-.88.35-1.1.75-.29.53-.28.95.03,1.28.31.33.79.6,1.42.84,5.17,1.91,10.34,3.81,15.51,5.72.54.2,1.04.27,1.48.21.44-.06.76-.35.95-.87.06-.15.09-.32.09-.51,0-.19-.04-.39-.12-.58-.09-.18-.23-.36-.44-.54-.21-.18-.49-.33-.85-.46-.3-.11-.6-.22-.9-.33.3-.74.6-1.49.9-2.23Z"/>
          <path class="cls-7" d="m110.3,181.52c-.74-.27-1.36-.63-1.85-1.06-.5-.43-.87-.91-1.13-1.42-.24-.49-.38-1-.42-1.52-.04-.52.02-1.02.17-1.48.15-.46.39-.89.72-1.28.33-.39.72-.71,1.18-.96.47-.23,1.01-.36,1.61-.39.6-.03,1.25.08,1.94.34,2.65.98,5.3,1.95,7.95,2.93.73.27,1.32.61,1.79,1.04.47.42.84.89,1.11,1.39.28.52.47,1.06.57,1.6.09.54.1,1.06,0,1.55-.09.49-.27.93-.54,1.34-.27.41-.63.73-1.08.97-.43.26-.94.41-1.54.44-.59.03-1.28-.1-2.05-.38-2.81-1.04-5.63-2.07-8.44-3.11Zm8.95.74c.62.23,1.12.24,1.48.03.36-.21.58-.53.67-.97.09-.44.02-.87-.2-1.29-.22-.42-.64-.75-1.25-.97-2.7-.99-5.4-1.99-8.09-2.98-.61-.22-1.1-.23-1.48-.03-.38.2-.64.51-.76.94-.13.42-.09.84.11,1.26.2.42.62.74,1.24.97,2.76,1.02,5.53,2.04,8.29,3.06Z"/>
        </g>
        <g>
          <g>
            <path class="cls-1" d="m130.92,109.88c-.81-.3-1.62-.6-2.43-.89.21-.61.35-1.01.56-1.63-.55-.2-1.09-.4-1.64-.6-.22.61-.37,1.01-.58,1.62-.6-.22-1.2-.44-1.8-.66.27-.74.58-1.67.58-1.67l-1.63-.6s-.32.92-.61,1.66c-.62-.23-1.24-.46-1.86-.69.26-.64.45-1.06.7-1.7-.55-.2-1.1-.41-1.65-.61-.26.63-.47,1.06-.73,1.69-.85-.31-1.7-.63-2.55-.94-.21.47-.47,1.15-.68,1.61.86.32,1.72.63,2.58.95-.31.75-.62,1.5-.93,2.24l1.73.64c.3-.75.6-1.5.9-2.25.63.23,1.26.46,1.89.7-.34.87-.67,1.75-1.01,2.62l1.71.63c.32-.88.65-1.76.97-2.64,1.7.63,3.39,1.25,5.09,1.88-.05.04-.1.08-.16.12-.33.25-.72.54-1.07.66-.5-.34-.99-.67-1.49-1.01-.17.48-.4,1.14-.56,1.61,1.59,1.07,3.12,2.35,4.75,3.43.15-.48.43-1.36.58-1.84-.47-.32-.94-.63-1.41-.95,1.34-.6,2.54-2.23,3.15-4.29.78-2.6,2.39-7.88,2.39-7.88l-1.32-1.3s-1.89,5.99-2.71,8.58c-.22.7-.43,1.05-.76,1.5Z"/>
            <path class="cls-1" d="m130.49,86.5c-.17.44-.34.88-.51,1.32,2.02.74,4.03,1.49,6.05,2.23.15-.45.29-.9.44-1.35-1.99-.73-3.98-1.47-5.98-2.2Z"/>
            <path class="cls-1" d="m136.08,98.8c.14-.46.65-2.1.79-2.56-.97-.36-1.93-.71-2.9-1.07.29-.89.58-1.77.88-2.66.45.16,1.34.49,1.34.49l.47,3.36,1.11-3.59-.45-.88s-5.2-1.92-7.8-2.88c-.69,1.76-1.82,4.67-2.51,6.43,3,1.11,6.07,2.24,9.08,3.35Zm-6.71-5.32c.33-.87.66-1.74.98-2.62.32.12.64.23.96.35-.32.87-.64,1.75-.96,2.62-.33-.12-.65-.24-.98-.36Zm2.31.85c.31-.88.62-1.76.93-2.64l.94.35c-.3.88-.6,1.76-.91,2.64-.32-.12-.64-.24-.96-.36Z"/>
            <path class="cls-1" d="m137.92,87.57l.38,3.51,1.16-3.78-.39-.82s-5.03-1.86-7.55-2.78c-.17.44-.34.88-.52,1.32,2.3.85,6.91,2.55,6.91,2.55Z"/>
            <path class="cls-1" d="m127.13,84.1l-.57,1.32,1.75,1.02-1.48,3.61-2.13-.28-.57,1.32,2.15.29s-.82,2.03-1.2,2.93c.46.17.92.34,1.38.51,1.6-4.03,3.2-8.05,4.8-12.08-.41-.15-.82-.3-1.24-.46-.42,1.01-1.17,2.83-1.17,2.83l-1.72-1.01Z"/>
            <path class="cls-1" d="m130.14,100.87c-.98-1.18-2.06-2.22-3.22-3.09-.07-.05-.2-.15-.2-.15l-1.05,2.61s1.7-.14,2.36.53c-.85-.15-2.43-.63-3.78-1.05.34-.86.68-1.72,1.02-2.57-.52-.19-1.04-.38-1.56-.57l-.49,1.19h0c-.19.47-.39.94-.58,1.42h0c-.92-.33-1.8-.64-2.62-.94l-.24-.09c-.2.45-.4.91-.6,1.36l.25.09c1.23.45,2.11.78,2.65.97-.33.81-.67,1.63-1,2.44,2.46.91,8.97,3.31,8.97,3.31l-.26-2.54-.96.5c-1.51-.56-4.05-1.49-5.56-2.05.15-.38.3-.75.45-1.13,2.2.71,4.31,1.24,5.6,1.29l.31.43s.95,1.55,1.18,2.07c.03.07.07.15.1.22.51-.14,1.02-.28,1.53-.42-.03-.08-.07-.15-.1-.23-.32-.73-.74-1.46-1.24-2.18.92-.16,1.66-.45,2.2-.86.03-.02-1.17-2.02-1.17-2.02l-.49,1.12s-1.05.34-1.51.37Z"/>
            <polygon class="cls-1" points="123.13 96.29 122.54 97.6 120.23 97.27 120.82 95.95 123.13 96.29"/>
            <g>
              <polygon class="cls-1" points="131.61 77.76 130.81 79.7 131.96 80.13 132.75 78.18 131.61 77.76"/>
              <polygon class="cls-1" points="134.33 78.77 133.58 80.72 134.73 81.15 135.47 79.19 134.33 78.77"/>
              <path class="cls-1" d="m136.68,81.92c1.03.55,1.74.73,2.62,1.86l-.22,1.22.78-2.44-.05-.07c-.87-1.13-1.7-2.19-2.74-2.73l-.08-.04-.87,2.31.56-.12Z"/>
              <path class="cls-1" d="m139.78,71.79l-1.02-.38-.32.88c-.62-.3-1.21-.58-1.75-.81l-.21-.09-2.04,5.22v.03s.28.52.28.52l1.62.87-.38,1.04,1.05.39.03-.07c.03-.07.25-.61.33-.82l2.1,1.12.39-1.02,1.16-3.55.13.08.68,1.41.06-.19s.25-.86.43-1.44v-.03s0-.03,0-.03c0,0-.26-.63-.31-.67-.17-.13-.37-.26-.58-.39l.36-1.09-1.02-.38-.31.91c-.25-.14-.61-.33-1.04-.55l.35-1Zm-2.99,5.02l-1-.54.38-.99c.33.17.66.35.99.52l-.37,1.01Zm2.14,1.14l-1.11-.59.36-1.02,1.1.58-.35,1.03Z"/>
              <polygon class="cls-1" points="134.32 76.91 133.93 76.27 135.99 71.08 134.98 70.7 133.11 75.28 132.56 74.6 132.01 76.05 133.36 79.51 134.32 76.91"/>
            </g>
            <g>
              <path class="cls-1" d="m138.57,68.08l-.03.07.18.07c.14.05.3.11.47.17.57.2,1.28.44,1.69.74.57.41.9.8,1.18,1.38l.28.42s.46-1.24.46-1.24c-.3-.48-.87-1.18-1.3-1.48-.41-.29-1.02-.51-1.74-.78l2.12-5.71-.79-.29-2.54,6.66Z"/>
              <path class="cls-1" d="m139.35,64.64c.35-.91.69-1.82,1.11-2.92l.03-.07-1.74-.64-.43,1.05.96.35c-.11.27-.19.47-.27.66-.08.2-.17.41-.28.69l-1.09-.4-.43,1.05,1.1.41c-.22.57-.32.86-.54,1.42l-.98-.36-.43,1.06,1.85.68.03-.07c.42-1.1.77-2.01,1.11-2.92Z"/>
              <path class="cls-1" d="m140.53,66.94l-.05.14-.03.07.84.31.66-1.76.71.26c-.26.76-.67,1.85-.68,1.86l-.03.07.84.31.68-1.94,1.18.44.34-1.07-1.17-.43c.28-.83.67-1.85.67-1.86l.03-.07-.79-.29-.03.07s-.41,1.03-.7,1.86l-.68-.25.72-1.93-.8-.29-.03.07s-1.02,2.58-1.71,4.43Z"/>
            </g>
          </g>
          <polygon class="cls-1" points="129.68 107.38 130.04 106.31 129.75 105.19 128.99 106.46 129.68 107.38"/>
          <polygon class="cls-1" points="132.1 105.74 132.44 104.68 131.63 104.38 131.25 104.83 132.1 105.74"/>
          <polygon class="cls-1" points="133.3 101.4 132.96 102.44 132.26 102.08 132.53 101.36 133.3 101.4"/>
        </g>
        <g>
          <path class="cls-7" d="m130.5,111.15c-.82-.3-1.63-.6-2.45-.9.21-.62.35-1.02.56-1.64-.55-.2-1.1-.41-1.65-.61-.22.61-.37,1.02-.59,1.63-.6-.22-1.21-.44-1.81-.67.28-.75.58-1.69.58-1.69l-1.64-.61s-.33.93-.61,1.68c-.63-.23-1.25-.46-1.88-.69.26-.64.45-1.07.71-1.72-.56-.2-1.11-.41-1.67-.61-.27.64-.47,1.07-.74,1.71-.86-.32-1.71-.63-2.57-.95-.21.47-.48,1.16-.69,1.63.87.32,1.73.64,2.6.96-.31.75-.63,1.51-.94,2.26l1.74.64c.3-.76.61-1.51.91-2.27.63.23,1.27.47,1.9.7-.34.88-.68,1.76-1.01,2.64l1.73.64c.33-.89.65-1.77.98-2.66,1.71.63,3.42,1.26,5.13,1.89-.05.04-.1.08-.16.12-.33.25-.73.55-1.08.67-.5-.34-1-.68-1.5-1.01-.17.48-.4,1.15-.57,1.63,1.6,1.08,3.15,2.37,4.78,3.46.15-.49.44-1.37.59-1.85-.48-.32-.95-.64-1.42-.96,1.35-.61,2.56-2.25,3.18-4.32.79-2.62,2.41-7.94,2.41-7.94l-1.33-1.31s-1.91,6.03-2.73,8.64c-.22.7-.43,1.06-.77,1.51Z"/>
          <path class="cls-7" d="m130.07,87.58c-.17.45-.34.89-.51,1.34,2.03.75,4.07,1.5,6.1,2.25.15-.45.29-.91.44-1.36-2.01-.74-4.02-1.48-6.02-2.22Z"/>
          <path class="cls-7" d="m136.08,98.8c.14-.47.28-.93.42-1.4-.97-.36-1.95-.72-2.92-1.08.29-.89.59-1.78.88-2.68l1.35.5.84,2.22.74-2.46-.45-.89s-5.24-1.93-7.87-2.9c-.69,1.78-1.39,3.55-2.08,5.33,3.03,1.12,6.05,2.23,9.08,3.35Zm-7.13-4.19c.33-.88.66-1.76.99-2.64.32.12.64.24.96.36-.32.88-.65,1.76-.97,2.65-.33-.12-.66-.24-.99-.36Zm2.33.86c.31-.89.62-1.77.94-2.66l.95.35c-.3.89-.61,1.78-.91,2.66-.32-.12-.65-.24-.97-.36Z"/>
          <path class="cls-7" d="m137.56,88.67l.74,2.42.82-2.69-.4-.82s-5.07-1.87-7.61-2.8c-.17.44-.35.89-.52,1.33,2.32.86,6.97,2.57,6.97,2.57Z"/>
          <path class="cls-7" d="m126.68,85.17l-.57,1.33,1.76,1.03-1.5,3.64-2.15-.28-.57,1.33,2.17.29s-.83,2.04-1.21,2.96c.46.17.93.34,1.39.51,1.61-4.06,3.22-8.12,4.84-12.18-.42-.15-.83-.31-1.25-.46-.42,1.02-1.18,2.85-1.18,2.85l-1.74-1.02Z"/>
          <path class="cls-7" d="m129.71,102.07c-.99-1.19-2.08-2.23-3.24-3.11-.07-.05-.2-.15-.2-.15l-.6,1.44s1.26,1.05,1.92,1.72c-.86-.16-2.45-.63-3.81-1.06.34-.86.68-1.73,1.03-2.59-.52-.19-1.05-.39-1.57-.58l-.49,1.2h0c-.2.48-.39.95-.59,1.43h0c-.93-.33-1.81-.64-2.64-.95l-.25-.09c-.2.46-.4.91-.6,1.37l.25.09c1.24.46,2.12.78,2.67.98-.34.82-.67,1.64-1.01,2.46,2.48.92,9.04,3.33,9.04,3.33l-.26-2.56-.96.5c-1.52-.56-4.09-1.51-5.61-2.07.15-.38.3-.76.45-1.14,2.22.71,4.34,1.25,5.65,1.3l.31.43s.95,1.56,1.19,2.09c.03.08.07.15.1.23.52-.14,1.03-.28,1.54-.43-.03-.08-.07-.15-.1-.23-.32-.73-.74-1.47-1.25-2.2.93-.16,1.67-.45,2.21-.87.03-.02-1.18-2.04-1.18-2.04l-.49,1.13s-1.06.34-1.52.38Z"/>
          <polygon class="cls-7" points="122.65 97.45 122.05 98.77 119.73 98.43 120.32 97.11 122.65 97.45"/>
          <g>
            <polygon class="cls-7" points="131.2 78.78 130.39 80.73 131.56 81.16 132.35 79.2 131.2 78.78"/>
            <polygon class="cls-7" points="133.94 79.79 133.18 81.76 134.35 82.19 135.09 80.21 133.94 79.79"/>
            <path class="cls-7" d="m136.18,82.07c1.04.55,1.88,1.63,2.77,2.77l.13.16.44-1.39-.05-.07c-.88-1.13-1.71-2.21-2.76-2.75l-.08-.04-.5,1.28.06.03Z"/>
            <path class="cls-7" d="m139.43,72.76l-1.03-.38-.33.89c-.63-.31-1.22-.58-1.77-.82l-.21-.09-2.05,5.26v.03s.29.52.29.52l1.63.88-.38,1.05,1.06.39.03-.07c.03-.07.25-.61.33-.82l2.12,1.13.4-1.03,1.17-3.57.13.08.68,1.42.06-.19s.25-.86.44-1.45v-.03s0-.03,0-.03c0,0-.26-.64-.31-.67-.17-.13-.37-.26-.59-.39l.36-1.1-1.03-.38-.31.92c-.26-.14-.61-.33-1.05-.55l.36-1.01Zm-3.01,5.06l-1.01-.54.38-1c.33.17.66.35,1,.52l-.37,1.02Zm2.15,1.14l-1.12-.6.36-1.03,1.11.59-.35,1.04Zm.77-2.27l-1.1-.57.39-1.1.59.31c.2.1.36.19.49.26l-.37,1.11Zm-2.69-2.66c.41.19.73.35.98.47l-.39,1.08c-.33-.17-.66-.34-.98-.52l.39-1.04Z"/>
            <polygon class="cls-7" points="133.94 77.92 133.54 77.27 135.62 72.04 134.59 71.66 132.71 76.27 132.16 75.59 131.6 77.05 133.36 79.51 133.94 77.92"/>
          </g>
          <g>
            <path class="cls-7" d="m138.22,69.02l-.03.07.18.07c.14.05.3.11.48.17.58.2,1.3.45,1.71.74.58.41.91.8,1.19,1.39l.28.42s.46-1.25.46-1.25c-.3-.49-.88-1.19-1.31-1.49-.41-.29-1.03-.52-1.75-.78l2.14-5.76-.8-.29-2.56,6.72Z"/>
            <path class="cls-7" d="m139,65.55c.35-.92.7-1.83,1.12-2.94l.03-.07-1.75-.65-.43,1.06.96.35c-.11.27-.19.47-.27.67-.08.21-.17.41-.28.7l-1.09-.4-.44,1.06,1.11.41c-.22.57-.32.86-.55,1.44l-.99-.36-.43,1.06,1.86.69.03-.07c.43-1.11.78-2.02,1.12-2.94Z"/>
            <path class="cls-7" d="m140.19,67.87l-.05.14-.03.07.85.31.66-1.77.71.26c-.27.77-.68,1.86-.68,1.87l-.03.07.85.31.69-1.95,1.19.44.35-1.07-1.18-.43c.28-.83.68-1.86.68-1.87l.03-.07-.8-.29-.03.07s-.41,1.04-.7,1.88l-.69-.25.73-1.95-.8-.3-.03.07s-1.03,2.6-1.72,4.47Z"/>
          </g>
        </g>
        <g>
          <path class="cls-1" d="m74.18,263.76c.11-.76-.39-1.46-1.11-1.57-.73-.11-1.41.42-1.52,1.17-.11.76.39,1.46,1.11,1.57.73.11,1.41-.42,1.52-1.17Z"/>
          <path class="cls-1" d="m86.08,215.93c.32-.94-.15-1.97-1.05-2.29-.9-.33-1.9.17-2.22,1.11-.32.94.15,1.97,1.05,2.29.9.33,1.9-.17,2.22-1.11Z"/>
          <path class="cls-1" d="m108.44,217.32c-.32.94.15,1.97,1.05,2.29.9.33,1.9-.17,2.22-1.11.32-.94-.15-1.97-1.05-2.29-.9-.33-1.9.17-2.22,1.11Z"/>
          <path class="cls-1" d="m89.06,211.87c.23-.67-.1-1.4-.75-1.63-.64-.23-1.35.12-1.58.79-.23.67.1,1.4.75,1.63.64.23,1.35-.12,1.58-.79Z"/>
          <path class="cls-1" d="m74.73,272.54c.28-.83-.13-1.73-.92-2.02-.79-.29-1.67.15-1.95.98-.29.83.13,1.73.92,2.02.79.29,1.67-.15,1.95-.98Z"/>
          <path class="cls-1" d="m93.27,203.27c-.54.19-.87.55-1.17,1.03-.55.87-.8,1.94-.67,2.96.12.97.65,1.89,1.35,2.57.62.59,1.11,1.11,1.34,1.95.3,1.13-.25,2.07-.44,3.15-.48,2.77.24,5.3,2.26,7.24,1.91,1.83,4.12,3.45,5.52,5.73,1.47,2.39,1.73,5.46,1.31,8.19-.31,2-1.36,4.6-3.45,5.09-.84.2-1.72.12-2.56-.07-3.08-.69-6.21-2.81-6.81-6.17-.42-2.34.57-5.23,3.25-5.09.5.03,1.19.14,1.63.44-1.34.39-2.41,1.56-2.63,3.08-.31,2.05,1.05,3.96,3.02,4.25,1.71.25,3.44-.84,3.98-2.56,1.02-3.22-1.43-6.17-4.33-7.26-1.54-.58-2.97-.39-4.18.49-1.31.94-1.99,2.31-2.36,3.59-1.45-.89-3.78-2.85-4.69-4.09-.61-.83-1.06-1.86-.9-2.91.12-.86.78-2.19,1.8-2.12.17.01.33.07.49.13-.29.34-.49.77-.56,1.25-.12.83.19,1.82.86,2.35,1.46,1.16,3.58.08,3.84-1.65.22-1.48-1.1-3-2.2-3.75-1.8-1.23-4.03-.99-5.34.87-1.97,2.81-.7,6.92,1.78,8.83,1.06.82,2.26,1.45,3.22,2.41,2.74,2.74,3.46,10.18-.93,11.85-2.34.89-5.3.42-7.18-1.27-.82-.73-1.43-1.74-1.45-2.89-.01-.62.14-1.22.39-1.79.07-.15.25-.39.46-.64-.33,2.22,1.13,4.27,3.27,4.59,2.09.31,4.13-1.21,4.46-3.44.22-1.5-.39-2.92-1.46-3.78-.55-.57-1.24-.99-2.02-1.18-2.91-.7-5.89.83-7.2,3.62-1.77,3.8-.08,7.93,3.1,10.08,2.16,1.46,4.64,2.3,7.13,2.95,2.47.64,5.21.72,7.32,2.32,2.55,1.94,4.14,5.03,3.17,8.23-.81,2.7-3.62,6.01-6.61,6.28-1.14.1-2.73-.35-3.4-1.38-.12-.18-.23-.36-.32-.51-.6-1.06-.32-2.15-.32-2.15.55.41,1.55.63,2.27.74,2.44.36,4.73-1.4,5.1-3.94.43-2.86-1.82-4.91-4.39-5.23-6.12-.76-7.27,7.95-5.05,11.98,1.08,1.97,3.55,3.99,5.88,3.27-2.51,4.21-8.05,3.82-8.05,3.82,1.08-.02,2.03-.84,2.2-1.99.08-.55-.03-1.12-.32-1.59-.5-.81-1.68-1.45-2.61-1.1-1.93.71-2.37,3.53-1.46,5.17,1.09,1.95,3.63,2.52,5.7,2.39,1.11-.07,2.2-.35,3.25-.72,4.93-1.75,9.81-5.87,12.94-10.01,3.97-5.26,3.59-12.76-.25-18,.09.13,2.61-1.27,2.82-1.39,2.69-1.46,3.98-4.46,4.69-7.29.91-3.61,1.3-7.71.21-11.33-.76-2.52-2.04-4.7-4.08-6.37-2-1.64-4.41-2.76-6.26-4.58-.53-.53-1.02-1.12-1.31-1.81-.59-1.44-.07-3.44,1.3-4.25,1-.59,2.45-.4,3.11.54-1.26.24-2.32,1.3-2.57,2.56-.34,1.74.91,3.71,2.77,3.69,5.31-.56,4.74-10.98-1.46-9.89-1.32.23-2.81,1.58-4.12.85-1.33-.73-2.58-1.88-2.63-3.37-.03-.82.43-2.22,1.49-2.02.12.02.23.07.34.13-.55.53-.7,1.44-.37,2.14.17.37.5.67.89.79.18.06.37.07.56.07.83-.03,1.49-.51,1.7-1.31.15-.58.13-1.31-.26-1.78-.53-.65-1.36-1.07-2.19-1.17-.53-.06-1.09-.03-1.6.15Z"/>
        </g>
        <g>
          <path class="cls-3" d="m45.68,255.04c.32-.37.6-.77.8-1.23,1.32-3.02,2.21-6.25,2.81-9.49.24-.02.47.11.61.3s.22.41.27.64c.12.53.13,1.09.03,1.62-.19.97-.56,1.87-.79,2.82-.09.4-.99,2.93-.81,3.17.78,1.07,1.87,2.52,3.01,4.02.34-.72.82-1.38,1.1-2.12.36-.95.5-2.04.56-3.05.59.24.96.83,1.07,1.44.17.98-.21,1.73-.58,2.59-.11.25-1.22,2.38-1.11,2.5,1.09,1.22,6.43,7.07,6.98,7.93.11.13-.03.25-.31.35-.78.29-1.68.32-2.45-.39-1.38-1.63-2.73-3.29-4.08-4.94-.98-1.19-1.95-2.38-2.92-3.58-.43-.53-1.8-2.84-2.58-2.58-.2.07-.36.21-.51.35-.31.28-.43.74-.86.88-.3.1-.64.04-.93-.1-.06-.03-.12-.07-.15-.13-.04-.1.05-.2.13-.27.25-.24.49-.47.71-.73Z"/>
          <path class="cls-3" d="m61.46,256.98c-.79,1.3-2.1.85-2.98.04-.89-.82-2.04-2.38-3.06-4.21-.12-.22-.03-.41.19-.51.73-.22,1.46.16,2.15,1.22.71,1.09,1.21,1.72,1.83,2.42.64.7,1.28.87,1.53.45.41-.72-.32-2.22-1.44-3.84-1.32-1.89-2.35-2.92-2.92-3.84-.19-.29-.19-.45.02-.55.38-.2,1.16-.08,1.9.72.67.74,1.68,2.23,2.41,3.01.81.88,1.56,1.07,1.74.33.21-.86-.67-2.32-1.7-3.58-.13-.16-.11-.35.05-.38.15-.03.62.12,1.04.58.84.96,1.44,2.56,1.09,3.75-.39,1.31-1.31,1.55-2.23,1.03.55.98,1.01,2.34.4,3.36Z"/>
          <path class="cls-3" d="m57.5,241.6c-.16-.91.11-1.34.85-1.52.68-.17,1.4.16,1.97,1.2.52.95.97,2.06,1.16,3.53,1.41.43,2.44.19,2.57-.62.14-.87-1.12-2.56-2.16-3.61-.2-.21-.21-.41,0-.45.21-.04.62.16,1.03.65.7.79,1.77,2.21,1.62,3.92-.13,1.51-1.28,2.41-3.58,1.52-.31-.11-.35-.17-.4-.62-.38-2.91-1.85-4.92-2.29-4.75-.32.13-.18,1.16.41,2.56.81,1.97,2.18,3.48,5.01,6.25.12.11.12.29-.04.39-.36.2-.92.11-1.88-.67-1.38-1.14-6.44-6.71-8.42-9.43-.19-.27-.19-.5.02-.55.53-.14,1.21.16,2.4,1.53.66.78,1.79,2.07,2.56,2.95-.45-.88-.69-1.66-.8-2.28Z"/>
          <path class="cls-3" d="m64.75,240.97c-.13,1.54-1.4,1.11-2.5.22-1.11-.9-2.74-2.64-4.29-4.66-.19-.25-.17-.46-.02-.59.56-.28,1.33.11,2.3,1.27,1,1.2,1.68,1.89,2.49,2.66.83.77,1.44.93,1.48.44.07-.85-1.12-2.51-2.62-4.27-1.75-2.05-2.94-3.14-3.69-4.13-.24-.31-.28-.48-.11-.6.3-.22,1.05-.13,1.91.73.78.78,2.08,2.37,2.95,3.21.98.94,1.69,1.12,1.65.29-.05-.96-1.2-2.52-2.41-3.84-.16-.17-.18-.38-.03-.41.13-.04.59.11,1.08.6.97,1,1.87,2.72,1.89,4.05.02,1.46-.68,1.78-1.67,1.24.81,1.08,1.68,2.58,1.58,3.8Z"/>
          <path class="cls-3" d="m62.24,232.15c-1.26-1.02-3.3-3.25-4.2-4.41-.21-.28-.26-.45-.11-.58.27-.24,1-.15,1.86.71.76.75,1.93,2.12,2.79,2.91,1,.9,1.66,1.1,1.61.37-.05-1.03-1.19-2.67-2.37-3.78-.15-.17-.14-.32,0-.36.27-.08.63.12,1.06.55,1.06,1.06,1.79,2.74,1.82,4,.03,1.71-1.05,1.74-2.46.59Zm-4.86-7.35c.24.38.19.99-.25,1.16-.46.19-.97-.11-1.26-.58-.29-.47-.09-1.04.37-1.16.44-.13.9.2,1.14.58Z"/>
          <path class="cls-3" d="m65.39,214.82c1.27-.09,2.21,1.69,2.57,2.75.58,1.8.35,3.59-.24,4.58-.49.82-1.59,1.29-2.99.82-3.64-1.25-6.49-6.28-6.74-8.87-.15-1.26.03-2.29.69-2.76.45-.33,1.09-.6,1.56-.61.55,0,1.01.24,1.44.73.43.49,1.02,1.02,1.45,1.43.12.11.18.29-.02.48-.38.37-.98.51-1.76-.11-.82-.66-1.6-1.75-2.13-1.43-.7.37,0,4.02,2.38,6.91,2.3,2.81,4.86,3.53,5.63,2.72,1.01-1.06.19-3.73-1.98-6.22-.16-.17-.11-.4.14-.42Z"/>
          <path class="cls-3" d="m66.93,214.16c-1.11-.97-2.69-3.02-3.28-4.07-.14-.25-.13-.41.09-.5.4-.19,1.19-.07,1.85.7.58.68,1.42,1.93,2.14,2.66.83.84,1.5,1.05,1.69.4.27-.9-.4-2.38-1.3-3.38-.11-.15-.03-.28.15-.3.35-.05.68.14.99.52.77.95.96,2.43.59,3.54-.5,1.51-1.66,1.51-2.91.42Zm-3.3-6.2c.12.33-.19.85-.75.97-.59.14-1.06-.15-1.22-.56-.16-.42.31-.89.89-.97.57-.08.96.22,1.08.55Z"/>
          <path class="cls-3" d="m64.11,207.34c-.34.1-.4-.06-.23-.33.3-.51.58-1.04.84-1.54-.57-.9-1.01-1.69-1.16-2.12-.1-.24.05-.41.33-.42.63-.01,1.19.19,1.75.93.52-.68,1.06-.82,1.39-.87.31-.04.37.07.15.32-.37.35-.75.91-1.01,1.37.63,1.1,1.62,2.74,2.67,3.98.91,1.07,2.07,1.25,2.55.49.51-.82,0-2.28-.78-3.39-.12-.18,0-.38.29-.36.34.01.58.21.83.53.32.41.91,2.1.02,3.56-.73,1.21-2.42,1.76-3.96.13-.66-.71-1.69-2.03-2.55-3.31-.38.62-.86.95-1.13,1.03Z"/>
          <path class="cls-3" d="m77.29,204.43c1.31,1.73,2.94,3.92,2.44,5.59-.12.38-.35.72-1.05.89-.74.17-1.55.32-2.34-.42-1.2-1.11-1.26-3.03-.37-4.92-.24-.31-.5-.63-.73-.96.04.71-.1,1.5-.71,2.17-1.08,1.21-2.31.8-3.15-.02-.81-.79-1.86-2.27-2.37-3.91-.06-.2.12-.36.4-.41.95-.19,1.55.17,1.96,1.15.42.96.8,1.59,1.33,2.21.55.65,1.18.84,1.54.46.61-.65.29-1.88-.3-3.24-.51-1.15-1.22-2.37-1.36-3.21-.04-.21.08-.33.4-.41.61-.09,1.51.07,1.82.76.34.8,1.19,2.47,2.11,3.75.62-1.38,1.12-2.89.95-4.42-.19-1.63-.81-3.17-1.21-4.75-.04-.15-.05-.35.09-.42.07-.03.15-.02.22,0,.76.21.99.85,1.22,1.49.26.73.51,1.45.65,2.21.28,1.5.22,3.08-.45,4.46-.32.67-.72,1.31-1.08,1.96Zm1.04,5.9c.47-.12-.37-2.26-1.91-4.21-.65,2.66,1.32,4.39,1.91,4.21Z"/>
        </g>
      </g>
      <g>
        <path class="cls-4" d="m17.91,86.98c0,.25.19.29.39.33.6.12,2.02.12,2.87.12.34,0,1.55-.03,1.84-.06.07,0,.17-.02.24-.02.2,0,.22.21.22.37,0,.85-.18.9-1.04.9h-1.31c-1.06,0-1.95-.02-2.49-.07-.46-.04-.85-.12-1.27-.34-.27-.14-.46-.28-.68-.5-.04-.04-.07-.06-.12-.06-.11,0-.12.19-.14.34-.09.58-.11.69-.25.69-.2,0-.82-.16-.82-.4,0-.03.02-.07.03-.1.18-.58.24-1.46.26-2.11.01-.34.01-.58,0-.74,0-.3,0-.37.11-.37.09,0,.51.05.64.07.2.03.34.04.34.13,0,.04-.04.08-.07.1-.09.06-.09.09-.09.5,0,.09,0,.34.13.35.05,0,.06-.05.06-.09v-.65c0-.74,0-.79-.35-.79-.23,0-.45.03-.68.03-.19,0-.21-.08-.21-.34v-.46c0-.25.02-.34.21-.34.25,0,.49.03.73.03.18,0,.29-.07.29-.27v-.28c0-.12-.09-.22-.21-.22-.19,0-.39.03-.59.03-.2,0-.21-.08-.21-.31v-.49c0-.24.02-.33.21-.33.17,0,.36.03.52.03.2,0,.28-.14.28-.33,0-.1-.02-.3-.03-.39,0-.06,0-.13,0-.15,0-.13.09-.13.19-.13.26,0,.7.03.97.04.08,0,.21.02.21.12,0,.05-.04.1-.1.14-.1.09-.1.27-.1.39,0,.17.07.3.27.3.1,0,.25-.02.38-.02.2,0,.22.08.22.34v.49c0,.22-.02.3-.21.3-.14,0-.27-.02-.42-.02-.15,0-.24.1-.24.24v.29c0,.16.13.22.28.22.18,0,.35-.02.54-.02.2,0,.21.1.21.3v.46c0,.3-.02.38-.21.38-.17,0-.34-.02-.5-.02-.11,0-.11.06-.12.11,0,.02-.02.03-.07.07-.07.06-.1.14-.1.31,0,.1.02.19.14.19h.07c.2,0,.41-.03.52-.03.02,0,.07,0,.09,0,.05,0,.05-.04.06-.1.02-.12.11-.14.22-.16.11-.02.12-.11.12-.2v-1.85c0-.25-.02-.49-.02-.73,0-.29.13-.38.41-.38.24,0,.49.02.73.02h.29c.19,0,.24-.15.24-.31,0-.28-.03-.58-.03-.66,0-.16.1-.19.24-.2.11,0,.63.04.8.04s.18,0,.27.05c.03.02.06.03.1.03.04,0,.08-.02.11-.04.09-.04.32-.16.42-.16.07,0,.2.16.33.45.03.07.16.34.16.4,0,.1-.16.18-.32.26-.04.02-.07.05-.07.08,0,.04.06.04.09.04.11,0,.2,0,.31,0,.17,0,.19.07.19.31v.52c0,.26-.02.31-.19.31-.27,0-.56-.02-.83-.02h-.25c-.16,0-.19.11-.19.24,0,.08.02.58.09.58.05,0,.13-.22.18-.35.05-.15.07-.2.17-.2.08,0,.37.15.54.24.33.17.46.24.46.34,0,.07-.07.09-.13.11-.1.03-.14.18-.18.27-.16.38-.36.74-.57,1.1-.04.08-.09.15-.09.24,0,.11.08.3.16.3.1,0,.11-.34.12-.46,0-.11.03-.18.15-.18.18,0,.41.08.54.16.12.08.16.13.16.26,0,.38-.14.83-.31,1.13-.17.3-.42.46-.76.46-.28,0-.5-.11-.69-.3-.06-.07-.16-.19-.26-.19-.11,0-.26.14-.35.23-.12.11-.43.38-.58.38-.21,0-.76-.53-.76-.7,0-.08.06-.12.12-.15.3-.19.66-.5.9-.75.15-.15.25-.27.25-.43,0-.08-.03-.21-.04-.29-.11-.54-.18-1.27-.2-1.64-.02-.2-.03-.38-.2-.38h-.16c-.12,0-.21.1-.21.21v1.35c0,.1,0,.16.1.16.03,0,.11-.02.15-.03.04-.02.09-.04.15-.04.19,0,.19.3.19.5,0,.5-.07.56-.26.63-.28.11-.93.31-1.23.37-.06,0-.07.04-.11.11-.03.05-.06.07-.11.07-.07,0-.1-.1-.15-.28-.03-.12-.07-.29-.1-.29-.04,0-.04.11-.05.21v.19c0,.16,0,.27-.19.27-.16,0-.32-.03-.48-.03-.19,0-.26.06-.28.25v.35Zm4.3-5.12s.09-.02.09-.07c0-.08-.28-.68-.35-.68-.05,0-.05.1-.05.18v.22c0,.19.04.33.26.35h.05Z"/>
        <path class="cls-4" d="m27.2,86.98c-.14,0-.25.12-.25.25v.48c0,.34.02.59.02.8,0,.19-.1.2-.37.2h-.45c-.26,0-.37-.02-.37-.19,0-.24.02-.54.02-.8v-3.04c0-.26-.02-.51-.02-.77,0-.34.19-.39.49-.39.26,0,.5.02.76.02h.81c.24,0,.48-.02.72-.02.3,0,.54.02.54.39,0,.2-.02.48-.02.77v2.58c0,.16,0,.32,0,.48,0,.27-.04.54-.26.72-.24.18-.68.24-.98.24-.22,0-.42-.02-.51-.2-.08-.19-.11-.47-.11-.66,0-.28.04-.31.27-.31h.24c.14,0,.22-.03.22-.19,0-.12,0-.34-.27-.34h-.47Zm3.44-6.34c.08,0,1.13.35,1.28.41.06.02.12.05.12.12,0,.11-.07.12-.14.13-.18.03-.22.06-.3.18-.07.1-.33.43-.33.49,0,.11.13.11.21.11h.34c.37,0,.75-.03,1.12-.03.2,0,.21.08.21.31v.47c0,.23-.02.31-.21.31-.37,0-.75-.02-1.12-.02h-5.18c-.37,0-.74.02-1.12.02-.19,0-.21-.09-.21-.35v-.4c0-.26.02-.35.22-.35.37,0,.74.03,1.11.03h.33c.09,0,.22,0,.22-.12,0-.04-.07-.13-.1-.19-.09-.12-.15-.21-.25-.33-.05-.06-.19-.21-.19-.29,0-.2.84-.5,1.03-.5.1,0,.14.04.19.12.1.12.23.31.31.44.05.08.32.51.32.58,0,.07-.11.13-.15.16-.03,0-.06.03-.06.06,0,.06.08.06.12.06h1.04c.19,0,.34-.03.44-.2.22-.36.42-.73.59-1.11.03-.07.05-.13.13-.13Zm-3.55,5.12c-.08,0-.14.07-.14.14v.06c0,.08.06.14.14.14h.71c.08,0,.14-.06.14-.14v-.06c0-.07-.06-.13-.14-.14h-.71Zm.71-.86c.08,0,.14-.06.14-.14v-.04c0-.08-.06-.14-.14-.14h-.71c-.08,0-.14.06-.14.14v.04c0,.08.05.13.14.14h.71Zm3.08,1.08c0,.35.03.71.03.93,0,.17-.1.19-.29.19h-.51c-.28,0-.36-.02-.36-.18,0-.31.02-.62.02-.94v-1.61c0-.37-.03-.48-.03-.56,0-.09.09-.09.15-.09.16,0,.81.04.99.04.09.01.21,0,.21.11,0,.04-.07.11-.12.13-.07.04-.09.05-.09.34v1.63Zm1.79,1.01c0,.09.02.34.02.52,0,.28,0,.61-.21.83-.34.34-1.01.36-1.46.36-.14,0-.28,0-.38-.12-.13-.19-.19-.5-.18-.73,0-.16,0-.43.2-.43.04,0,.13,0,.18.02.05,0,.31.02.4.02.26,0,.27-.07.27-.35v-2.89c0-.23,0-.49-.03-.65,0-.04,0-.05,0-.07,0-.11.12-.11.22-.11.04,0,.94.04.98.04.08,0,.21.03.21.12,0,.07-.06.11-.12.14-.08.05-.09.13-.09.59v2.7Z"/>
        <path class="cls-4" d="m41.65,81.43c.27,0,.55-.03.81-.03.16,0,.18.09.18.32v.51c0,.25-.02.33-.18.33-.27,0-.54-.02-.81-.02h-2.86c-.41,0-.46.34-.46.36,0,.14.12.15.42.15h2.27c.2,0,.41,0,.61,0,.42,0,.57.07.57.52,0,.31-.04.72-.04.99,0,.09.07.18.16.18h.15c.23,0,.25.07.25.35v.31c0,.4-.02.45-.24.45-.07,0-.13,0-.18,0-.21,0-.22.2-.22.44,0,.09.09.18.19.18h.13c.21,0,.23.06.23.32v.48c0,.24-.02.33-.21.33-.08,0-.19,0-.24,0-.12,0-.17.1-.19.2-.03.2-.1.46-.27.6-.35.31-.82.32-1.34.32h-.19c-.17,0-.37,0-.44-.1-.11-.12-.14-.44-.14-.6,0-.12.03-.22.18-.22.12,0,.32.04.51.04.21,0,.38-.02.38-.14,0-.11-.12-.12-.2-.12h-1.71c-.15,0-.21.08-.23.22-.05.33-.06.34-.39.34-.18,0-.42-.04-.6-.06-.2-.03-.32-.09-.32-.22,0-.04.05-.3.12-.72.11-.69.16-1.03.16-1.08,0-.12-.07-.19-.16-.19h-.08c-.2,0-.17,0-.36.46-.27.6-.61,1.28-.97,1.83-.06.1-.07.13-.07.25,0,.13,0,.24-.1.24-.06,0-.3-.19-.48-.32-.45-.33-.58-.44-.57-.54,0-.07.08-.17.11-.22.46-.57,1.14-1.88,1.41-2.58.03-.07.04-.12.13-.12.12,0,.36.15.46.21.04.03.09.05.14.05.06,0,.09-.04.09-.1v-.04c0-.2.09-.24.24-.24h.18c.24,0,.22-.31.24-.49,0-.05.03-.33.03-.36,0-.14-.08-.17-.2-.21-.17-.06-.81-.36-.81-.57,0-.05.08-.16.12-.2.44-.68.75-1.33.99-2.11.03-.1.03-.15.11-.15.1,0,.72.15.86.18.05.02.11.03.14.04.23.06.33.09.33.17,0,.07-.1.1-.14.12-.07.03-.13.07-.13.15,0,.13.16.13.25.13h2.38Zm-5.42,1.69c.19.14.37.28.54.44.04.05.09.09.09.17,0,.19-.49.83-.68.83-.1,0-.28-.16-.41-.27-.02-.02-.04-.04-.06-.05-.24-.2-.57-.45-.83-.61-.05-.04-.11-.08-.11-.15,0-.18.47-.84.68-.84.14,0,.64.38.78.49Zm-.49-2.42c.12,0,.8.5.94.6l.11.08c.18.12.38.27.38.38,0,.16-.47.84-.68.84-.09,0-.19-.09-.27-.14-.34-.28-.69-.57-1.08-.79-.04-.04-.09-.06-.09-.12,0-.16.48-.85.69-.85Zm3.21,5.12c-.15,0-.16.06-.2.5v.03c0,.05.04.13.16.13h.09c.12,0,.17-.04.18-.16,0-.06.03-.28.03-.33,0-.11-.03-.17-.15-.17h-.11Zm.23-1.06c.11,0,.15-.04.16-.14l.03-.29v-.04c0-.12-.09-.13-.2-.13-.17,0-.23.04-.23.46,0,.1.07.15.17.15h.08Zm1.36,1.06c-.12,0-.15.04-.17.15,0,.06-.03.28-.03.31,0,.12.02.2.14.19h.19c.12,0,.18-.04.18-.51,0-.07-.05-.14-.19-.14h-.12Zm-.04-1.25c0,.12.04.19.15.19h.1c.18,0,.18-.11.18-.36,0-.21-.05-.25-.26-.25-.07,0-.12.05-.14.16-.01.05-.03.23-.03.27Z"/>
        <path class="cls-4" d="m46.64,84.13c-.15,0-.25.11-.25.25v.53c0,.98-.12,2.17-.46,3.05-.21.55-.31.62-.45.62-.34,0-1.06-.43-1.06-.64,0-.04.03-.09.06-.14.46-.76.63-2.04.63-2.95v-.7c0-.28-.03-.51-.03-.69,0-.34.22-.4.51-.4.31,0,.62.02.93.02h4.43c.36,0,.73-.02,1.1-.02.21,0,.24.07.24.33v.43c0,.26-.03.32-.25.32-.36,0-.73-.02-1.09-.02h-4.32Zm3.45-2.41c.17,0,.27-.11.27-.27,0-.08,0-.18,0-.27-.02-.14-.03-.22-.03-.28,0-.11.09-.12.18-.12.06,0,.97.04,1.07.05.09,0,.2.04.19.14,0,.04-.02.06-.07.11-.09.07-.1.26-.1.4v.49c0,.18.03.37.03.49,0,.28-.28.29-.48.29h-5.39c-.2,0-.48,0-.48-.29,0-.09.02-.31.02-.49v-.49c0-.17-.03-.49-.03-.57,0-.11.08-.12.17-.12.07,0,.97.04,1.08.05.1,0,.19.04.19.14,0,.04-.02.06-.08.11-.07.05-.09.19-.09.37,0,.18.12.27.28.27h.69c.23,0,.28-.15.28-.23,0-.08,0-.26-.02-.42s-.02-.31-.02-.35c0-.1.12-.1.19-.1.11,0,.77.03,1.02.04.22.02.31.03.31.13,0,.05-.04.08-.1.13-.08.07-.09.23-.09.39v.15c0,.12.1.24.31.24h.69Zm-2.34,5.43c-.33,0-.65.02-.96.02-.21,0-.23-.11-.23-.35v-.33c0-.29.04-.37.24-.37.32,0,.64.02.95.02h.74c.14,0,.25-.11.25-.25v-.07c0-.2-.1-.3-.3-.3h-.1c-.32,0-.63.02-.95.02-.22,0-.24-.08-.24-.32v-.38c0-.26.02-.35.25-.34.31,0,.62.02.94.02h2.24c.31,0,.63-.02.94-.02.23,0,.25.09.25.35v.37c0,.25-.03.33-.25.33-.31,0-.63-.02-.94-.02h-.26c-.18,0-.28.1-.28.27v.1c0,.14.11.25.25.25h.92c.32,0,.64-.02.95-.02.22,0,.24.1.24.34v.43c0,.25-.04.29-.32.29-.18,0-.45-.02-.88-.02h-.88c-.15,0-.29.05-.29.24,0,.35.03.69.03,1.04,0,.22-.1.25-.39.25h-.57c-.3,0-.39-.02-.39-.26,0-.34.03-.67.03-1.01,0-.15-.11-.26-.3-.26h-.69Z"/>
        <path class="cls-4" d="m17.69,100.26c0,.29,0,.58,0,.88,0,.43-.02.46-.57.46h-.38c-.34,0-.44-.04-.44-.27,0-.35.02-.7.02-1.05v-5.11c0-.36-.02-.82-.02-1.1,0-.12.02-.17.13-.17.1,0,1.09.12,1.3.18.05.02.09.05.09.11,0,.04-.02.08-.05.11-.04.06-.09.13-.09.32v1.72s0,.12.1.12c.05,0,.1-.04.14-.04.07,0,.17.06.31.14.27.18.61.46.72.55.21.18.59.51.77.72.03.04.06.09.06.14,0,.18-.61.89-.81.89-.08,0-.16-.09-.21-.14-.14-.14-.83-.8-.97-.8-.12,0-.13.12-.13.21v2.12Z"/>
        <path class="cls-4" d="m27.34,96.28c.22,0,.45,0,.56-.02.06,0,.13-.02.19-.02.13,0,.41.27.53.39.1.11.25.26.25.4,0,.08-.11.35-.13.44-.45,1.35-1.2,2.36-2.25,3.24-.24.21-1.11.87-1.4.87-.25,0-.84-.78-.84-.95,0-.08.11-.13.17-.16.88-.38,1.78-1.19,2.35-1.98.1-.14.37-.54.37-.71,0-.18-.17-.2-.27-.2h-2.87c-.38,0-.75,0-1.12,0-.25,0-.28-.08-.29-.42v-.5c0-.35.05-.41.27-.41.39,0,.77.02,1.16.02h3.31Zm-.71-1.93c.26,0,.53,0,.8,0,.11,0,.22-.02.33-.02.21,0,.24.12.24.44v.42c0,.36,0,.48-.27.48-.37,0-.74,0-1.1,0h-1.96c-.36,0-.73,0-1.1,0-.25,0-.27-.11-.27-.45v-.49c0-.29.05-.4.24-.4.25,0,.71.03,1.13.03h1.96Z"/>
        <path class="cls-4" d="m35.66,96.48c.85.91,1.56,1.61,2.54,2.36.07.04.14.11.14.2,0,.26-.61,1.08-.91,1.08-.16,0-.48-.3-.61-.43-.66-.61-1.59-1.61-2.19-2.31-.08-.1-.18-.23-.31-.23-.09,0-.21.08-.28.13-.24.2-1.11,1.1-1.35,1.36-.11.12-.21.24-.32.24-.15,0-.47-.4-.58-.53-.08-.11-.4-.51-.4-.63,0-.09.19-.19.26-.22.64-.37,1.25-.99,1.82-1.5.22-.19.58-.38.87-.38.53,0,.92.41,1.33.85Zm1.81.04c0,.16-.4.51-.49.51-.04,0-.09-.06-.12-.1-.18-.24-.42-.5-.63-.69-.04-.04-.09-.09-.09-.14,0-.12.43-.46.51-.46.08,0,.82.74.82.88Zm.05-1.65c.08,0,.82.72.82.86,0,.16-.38.51-.48.51-.03,0-.11-.08-.19-.17-.18-.2-.36-.41-.56-.59-.04-.04-.1-.09-.1-.13,0-.13.41-.48.51-.48Z"/>
        <path class="cls-4" d="m43.13,94.98c.16.02.3.04.29.11,0,.03-.04.07-.05.09-.08.09-.09.15-.09.34,0,.11,0,.21,0,.32,0,.73-.02,1.55-.16,2.27-.16.9-.64,1.81-1.25,2.46-.09.1-.24.26-.35.26-.18,0-.65-.31-.82-.42-.08-.05-.23-.14-.23-.26,0-.08.07-.14.13-.19,1.24-1.12,1.38-2.3,1.38-3.91,0-.41-.03-1.02-.03-1.05,0-.08.04-.09.11-.09.17,0,.84.07,1.06.1Zm2.08,3.2c0,.36.02.49.17.49.3,0,1.62-1.31,1.89-1.59.04-.04.1-.12.18-.11.12,0,.26.27.37.48.07.12.22.41.22.55,0,.16-.24.38-.39.52-.03.03-.06.05-.08.07-.39.36-.79.72-1.2,1.06-.34.29-.71.57-1.04.88-.08.08-.21.2-.31.2-.13,0-.63-.27-.76-.34-.14-.08-.36-.21-.36-.42,0-.18.03-.57.02-1.07v-2.78c0-.18,0-.47,0-.74,0-.2,0-.4-.02-.51,0-.03,0-.04,0-.07,0-.06.04-.07.09-.07.02,0,.36.04.43.04.13.02.72.09.84.11.07.02.12.03.12.1,0,.05-.04.09-.08.12-.09.09-.09.22-.08.34,0,.27,0,.53,0,.8v1.96Z"/>
        <path class="cls-4" d="m18.24,108.85c.08.04.6.34.65.38.03.03.07.05.07.11,0,.04-.02.06-.07.1-.12.06-.15.12-.21.24-.48.93-.97,1.76-1.61,2.57-.13.16-.6.76-.77.76-.14,0-1.04-.57-1.04-.79,0-.06.04-.11.07-.15.91-.95,1.68-2.04,2.19-3.29.04-.1.08-.19.14-.19.1,0,.48.19.59.26Zm2.65.02c.11.09.5.63.61.78.26.37,1.32,2.06,1.32,2.44,0,.19-.4.41-.54.49-.14.08-.46.24-.61.24-.11,0-.16-.11-.19-.2-.35-.89-1.02-2.14-1.59-2.89-.05-.06-.1-.12-.1-.2,0-.13.32-.36.43-.44.12-.09.36-.27.5-.27.07,0,.13.03.19.06Zm2.18-.41c0,.5-.4.92-.88.92-.48,0-.87-.42-.87-.92,0-.51.39-.93.87-.93.49,0,.88.42.88.93Zm-1.33,0c0,.26.2.47.45.47.25,0,.45-.21.45-.47,0-.26-.19-.47-.45-.47-.24,0-.45.21-.44.47Z"/>
        <path class="cls-4" d="m29.57,107.92c.17,0,.41,0,.58-.03.06,0,.15-.02.21-.02.26,0,.72.66.72.79,0,.04-.07.17-.13.27-.16.3-.66,1.22-1.17,1.91-.04.05-.07.1-.07.17,0,.09.04.14.12.19.51.37,1.06.82,1.53,1.26.08.08.38.35.44.43.03.03.05.06.05.11,0,.25-.71,1.03-.94,1.03-.13,0-.23-.14-.33-.26,0-.03-.02-.04-.04-.06-.43-.54-.95-1-1.48-1.42-.08-.06-.2-.15-.28-.15-.08,0-.15.04-.21.11-.4.39-.86.75-1.32,1.06-.19.12-1,.63-1.17.63-.15,0-.46-.49-.55-.63-.07-.11-.21-.36-.21-.48,0-.13.12-.19.22-.22,1.3-.49,2.7-1.68,3.46-2.9.04-.06.12-.19.12-.27,0-.15-.14-.17-.28-.17h-1.28c-.38,0-.77.02-1.15.02-.21,0-.23-.11-.23-.43v-.59c0-.31.02-.37.22-.37.39,0,.77.03,1.16.03h2.02Z"/>
        <path class="cls-4" d="m36.46,111.1c.09.05.16.12.16.18,0,.04-.05.07-.08.09-.13.07-.15.12-.23.23-.21.27-1.3,1.58-1.56,1.58-.17,0-.84-.65-.84-.87,0-.09.14-.2.21-.25.45-.35.88-.82,1.16-1.34.03-.06.08-.15.16-.15.12,0,.72.35,1.03.52Zm.28-2.25c.22,0,.24-.19.24-.34v-.08c0-.35,0-.58-.04-.94,0-.04,0-.08,0-.12,0-.11.08-.12.2-.12.13,0,1,.11,1.15.13.05,0,.14.03.14.1,0,.06-.05.11-.08.14-.08.09-.1.17-.1.29v.12c0,.13,0,.27,0,.41v.08c0,.14.03.34.23.34h1.09c.39,0,.87-.03,1.19-.03.2,0,.24.11.24.43v.45c0,.33-.03.44-.27.44-.39,0-.77,0-1.16,0h-1.05c-.14,0-.26.12-.26.27v1.81c0,.18,0,.36,0,.55,0,.46-.04.9-.34,1.14-.28.22-.96.42-1.31.42-.15,0-.19-.05-.32-.3-.08-.16-.29-.66-.29-.81,0-.13.18-.14.28-.15.66-.03.71-.12.71-.78v-1.88c0-.15-.12-.27-.26-.26h-1.12c-.37,0-.73.02-1.1.02-.23,0-.26-.16-.26-.46v-.43c0-.37.04-.44.24-.44.11,0,.76.03,1.13.03h1.14Zm3.7,2.41c.16.16.77.78.77.98,0,.23-.65.89-.83.88-.09,0-.22-.17-.4-.41-.25-.34-.69-.82-1.07-1.14-.06-.05-.13-.11-.14-.2,0-.15.22-.4.32-.5.19-.21.29-.33.42-.33.24,0,.74.52.92.71Zm1.07-3.63c0,.51-.39.93-.87.93-.49,0-.87-.42-.87-.93,0-.5.39-.92.87-.92s.87.42.87.92Zm-1.32,0c0,.27.2.47.44.47s.45-.21.45-.47c0-.26-.2-.47-.45-.47s-.45.21-.44.47Z"/>
        <path class="cls-4" d="m48.71,109.92c.47,0,.98-.04,1.05-.04.21,0,.24.1.24.35v.43c0,.49,0,.64-.26.64-.31,0-.68-.03-1.03-.03h-3.66c-.35,0-.72.03-1.02.03-.27,0-.27-.17-.27-.64v-.41c0-.27.02-.37.23-.37.11,0,.56.04,1.06.03h3.66Z"/>
        <path class="cls-4" d="m53.87,113.27c0,.29,0,.58,0,.89,0,.42-.02.46-.57.46h-.38c-.34,0-.44-.04-.44-.27,0-.35.02-.7.02-1.05v-5.11c0-.36-.02-.82-.02-1.1,0-.12.02-.17.13-.17.1,0,1.09.12,1.29.18.05.02.09.05.09.11,0,.04-.03.08-.05.11-.04.06-.09.13-.09.32v1.72s0,.12.1.12c.05,0,.1-.04.14-.04.07,0,.18.06.31.14.27.18.61.46.72.55.21.18.59.51.77.72.03.04.06.09.06.14,0,.18-.61.89-.81.89-.08,0-.16-.09-.21-.14-.14-.14-.83-.8-.97-.8-.12,0-.13.12-.13.21v2.12Z"/>
      </g>
      <g>
        <path class="cls-4" d="m21.68,29.67v1.37s-2.58,0-2.58,0v12.54s-1.49,0-1.49,0v-12.54s-2.56,0-2.56,0v-1.37s6.63,0,6.63,0Z"/>
        <path class="cls-4" d="m27.5,29.67c1.51,0,3.68.22,3.68,3.3v1.09c0,1.53-.64,2.56-1.91,2.96l2.23,6.56h-1.55s-2.05-6.26-2.05-6.26h-1.69s0,6.26,0,6.26h-1.49s0-13.91,0-13.91h2.78Zm-1.29,6.36h1.47c1.09,0,2.01-.64,2.01-1.87v-1.31c0-1.73-1.33-1.89-2.09-1.89h-1.39s0,5.07,0,5.07Z"/>
        <path class="cls-4" d="m40.07,43.58l-.7-3.1h-3.14s-.68,3.1-.68,3.1h-1.45s3.02-13.91,3.02-13.91h1.35s3.04,13.91,3.04,13.91h-1.45Zm-2.31-10.93l-1.33,6.56h2.72s-1.39-6.56-1.39-6.56Z"/>
        <path class="cls-4" d="m48.09,43.57h-1.33s-2.96-13.91-2.96-13.91h1.67s1.95,10.31,1.95,10.31h.06s1.99-10.31,1.99-10.31h1.57s-2.94,13.91-2.94,13.91Z"/>
        <path class="cls-4" d="m53.97,29.67h5.58s0,1.37,0,1.37h-4.09s0,4.85,0,4.85h3.62s0,1.29,0,1.29h-3.62s0,5.03,0,5.03h4.15s0,1.37,0,1.37h-5.64s0-13.91,0-13.91Z"/>
        <path class="cls-4" d="m64.24,29.67v12.54s4.39,0,4.39,0v1.37s-5.88,0-5.88,0v-13.91s1.49,0,1.49,0Z"/>
        <path class="cls-4" d="m16.5,53.2h3.02c2.5,0,3.44,1.63,3.44,3.54v1.23c0,1.79-1.15,3.4-3.14,3.4h-1.83s0,5.74,0,5.74h-1.49s0-13.91,0-13.91Zm1.49,6.89h1.41c1.37,0,2.06-.91,2.07-1.89v-1.65c0-1.27-.65-2.07-2.05-2.07h-1.43s0,5.6,0,5.6Z"/>
        <path class="cls-4" d="m31.47,67.11l-.7-3.1h-3.14s-.67,3.1-.67,3.1h-1.45s3.02-13.91,3.02-13.91h1.35s3.04,13.91,3.04,13.91h-1.45Zm-2.31-10.93l-1.33,6.56h2.72s-1.39-6.56-1.39-6.56Z"/>
        <path class="cls-4" d="m40.91,56.54c0-.36-.04-1.01-.42-1.51-.24-.28-.61-.58-1.33-.58-.36,0-.83.08-1.21.46-.48.5-.52,1.15-.52,1.69,0,.42.02,1.13.36,1.67.28.4.76.64,1.09.76l1.27.46c.58.2,1.31.54,1.77,1.17.5.68.56,1.43.56,2.31v.5c0,1.37-.38,2.38-.91,2.98-.5.52-1.37.87-2.48.87-1.37,0-2.25-.5-2.68-1.09-.6-.79-.6-2.13-.6-2.3v-.5s1.49,0,1.49,0v.4c0,.38.06,1.03.4,1.47.44.52,1.03.58,1.37.58.91,0,1.31-.36,1.53-.62.38-.48.4-1.13.4-1.61v-.54c0-.54-.06-1.23-.4-1.65-.34-.46-.89-.68-1.13-.76l-1.51-.54c-.68-.24-1.35-.62-1.73-1.49-.26-.62-.28-1.29-.28-1.97v-.42c0-1.11.42-1.95.99-2.48.61-.6,1.41-.79,2.28-.79,1.91,0,3.18,1.23,3.18,3.46v.48s-1.49,0-1.49,0v-.4Z"/>
        <path class="cls-4" d="m50.76,56.54c0-.36-.04-1.01-.42-1.51-.24-.28-.61-.58-1.33-.58-.36,0-.83.08-1.21.46-.48.5-.52,1.15-.52,1.69,0,.42.02,1.13.36,1.67.28.4.76.64,1.09.76l1.27.46c.58.2,1.31.54,1.77,1.17.5.68.56,1.43.56,2.31v.5c0,1.37-.38,2.38-.92,2.98-.5.52-1.37.87-2.48.87-1.37,0-2.25-.5-2.68-1.09-.6-.79-.6-2.13-.6-2.3v-.5s1.49,0,1.49,0v.4c0,.38.06,1.03.4,1.47.44.52,1.03.58,1.37.58.91,0,1.31-.36,1.53-.62.38-.48.4-1.13.4-1.61v-.54c0-.54-.06-1.23-.4-1.65-.34-.46-.89-.68-1.13-.75l-1.51-.54c-.67-.24-1.35-.62-1.73-1.49-.26-.62-.28-1.29-.28-1.97v-.42c0-1.11.42-1.95.99-2.48.61-.6,1.41-.79,2.28-.79,1.91,0,3.18,1.23,3.18,3.46v.48s-1.49,0-1.49,0v-.4Z"/>
        <path class="cls-4" d="m55.86,53.2h3.02c2.5,0,3.44,1.63,3.44,3.54v1.23c0,1.79-1.15,3.4-3.14,3.4h-1.83s0,5.74,0,5.74h-1.49s0-13.91,0-13.91Zm1.49,6.89h1.41c1.37,0,2.06-.91,2.07-1.89v-1.65c0-1.27-.66-2.07-2.05-2.07h-1.43s0,5.6,0,5.6Z"/>
        <path class="cls-4" d="m65.43,56.72c0-1.03.08-2.03.99-2.88.55-.54,1.35-.83,2.34-.83.99,0,1.79.3,2.34.83.91.85.99,1.85.99,2.88v6.87c0,1.03-.08,2.03-.99,2.88-.56.54-1.35.83-2.34.83-.99,0-1.79-.3-2.34-.83-.91-.85-.99-1.85-.99-2.88v-6.87Zm5.18-.32c0-.5-.04-.99-.52-1.45-.28-.28-.73-.5-1.33-.5-.6,0-1.05.22-1.33.5-.48.46-.52.95-.52,1.45v7.51c0,.5.04.99.52,1.47.28.26.74.48,1.33.48s1.05-.22,1.33-.48c.48-.48.52-.97.52-1.47v-7.51Z"/>
        <path class="cls-4" d="m78.68,53.2c1.51,0,3.68.22,3.68,3.3v1.09c0,1.53-.64,2.56-1.91,2.96l2.23,6.56h-1.55s-2.05-6.26-2.05-6.26h-1.69s0,6.26,0,6.26h-1.49s0-13.91,0-13.91h2.78Zm-1.29,6.36h1.47c1.09,0,2.01-.64,2.01-1.87v-1.31c0-1.73-1.33-1.89-2.08-1.89h-1.39s0,5.07,0,5.07Z"/>
        <path class="cls-4" d="m91.73,53.2v1.37s-2.58,0-2.58,0v12.54s-1.49,0-1.49,0v-12.54s-2.56,0-2.56,0v-1.37s6.63,0,6.63,0Z"/>
      </g>
      <g>
        <path class="cls-4" d="m15.62,16.73h1.95s0,.48,0,.48h-1.43s0,1.69,0,1.69h1.26s0,.45,0,.45h-1.26s0,1.76,0,1.76h1.45s0,.48,0,.48h-1.97s0-4.86,0-4.86Z"/>
        <path class="cls-4" d="m21.31,17.78c0-.17-.07-.61-.57-.61-.55,0-.6.47-.6.74v2.62c0,.17.08.63.56.63.27,0,.6-.12.6-.68v-.15s.53,0,.53,0v.18c0,.69-.32,1.16-1.15,1.16-.97,0-1.06-.79-1.06-1.07v-2.87c0-.55.38-1.06,1.09-1.05.6,0,1.1.29,1.1,1.06v.31s-.51,0-.51,0v-.26Z"/>
        <path class="cls-4" d="m24.46,16.73v2.17s1.17,0,1.17,0v-2.17s.52,0,.52,0v4.86s-.52,0-.52,0v-2.24s-1.17,0-1.17,0v2.24s-.52,0-.52,0v-4.86s.52,0,.52,0Z"/>
        <path class="cls-4" d="m29.03,16.73v4.86s-.52,0-.52,0v-4.86s.52,0,.52,0Z"/>
        <path class="cls-4" d="m33.35,16.73v.46s-1.55,3.92-1.55,3.92h1.52s0,.48,0,.48h-2.04s0-.53,0-.53l1.52-3.85h-1.42s0-.48,0-.48h1.97Z"/>
        <path class="cls-4" d="m35.56,16.73h1.95s0,.48,0,.48h-1.43s0,1.69,0,1.69h1.26s0,.45,0,.45h-1.26s0,1.76,0,1.76h1.45s0,.48,0,.48h-1.97s0-4.86,0-4.86Z"/>
        <path class="cls-4" d="m40.13,16.73l1.37,3.62v-3.62s.52,0,.52,0v4.86s-.52,0-.52,0l-1.37-3.55v3.55s-.52,0-.52,0v-4.86s.52,0,.52,0Z"/>
        <path class="cls-4" d="m49.02,17.78c0-.17-.07-.61-.57-.61-.55,0-.6.47-.6.74v2.62c0,.17.08.63.56.63.27,0,.6-.12.6-.68v-.15s.53,0,.53,0v.18c0,.69-.32,1.16-1.15,1.16-.97,0-1.06-.79-1.06-1.07v-2.87c0-.55.38-1.06,1.09-1.06.6,0,1.1.29,1.1,1.06v.31s-.51,0-.51,0v-.26Z"/>
        <path class="cls-4" d="m51.61,17.96c0-.36.03-.71.35-1.01.19-.19.47-.29.82-.29.35,0,.63.1.82.29.32.3.35.65.35,1.01v2.4c0,.36-.03.71-.35,1.01-.19.19-.47.29-.82.29s-.62-.1-.82-.29c-.32-.3-.35-.65-.35-1.01v-2.4Zm1.81-.11c0-.17-.01-.35-.18-.51-.1-.1-.26-.17-.47-.17-.21,0-.37.08-.47.17-.17.16-.18.33-.18.51v2.62c0,.17.01.35.18.51.1.09.26.17.47.17s.37-.08.47-.17c.17-.17.18-.34.18-.51v-2.62Z"/>
        <path class="cls-4" d="m58.1,21.59l-.24-1.08h-1.1s-.24,1.08-.24,1.08h-.51s1.05-4.86,1.05-4.86h.47s1.06,4.86,1.06,4.86h-.51Zm-.81-3.82l-.46,2.29h.95s-.49-2.29-.49-2.29Z"/>
        <path class="cls-4" d="m62.37,17.9c0-.12-.02-.35-.15-.53-.08-.1-.21-.2-.46-.2-.12,0-.29.03-.42.16-.17.17-.18.4-.18.59,0,.15,0,.4.13.58.1.14.26.22.38.26l.44.16c.2.07.46.19.62.41.17.24.19.5.19.81v.17c0,.48-.13.83-.32,1.04-.17.18-.48.31-.87.31-.48,0-.78-.17-.94-.38-.21-.28-.21-.74-.21-.81v-.17s.52,0,.52,0v.14c0,.13.02.36.14.51.15.18.36.2.48.2.32,0,.46-.12.54-.22.13-.17.14-.4.14-.56v-.19c0-.19-.02-.43-.14-.58-.12-.16-.31-.24-.4-.26l-.53-.19c-.24-.08-.47-.22-.6-.52-.09-.22-.1-.45-.1-.69v-.14c0-.39.15-.68.35-.87.22-.21.49-.28.8-.28.67,0,1.11.43,1.11,1.21v.17s-.52,0-.52,0v-.14Z"/>
        <path class="cls-4" d="m67.15,16.73v.48s-.9,0-.9,0v4.38s-.52,0-.52,0v-4.38s-.89,0-.89,0v-.48s2.32,0,2.32,0Z"/>
      </g>
    </g>
  </g>
</svg>